<?xml version="1.0" encoding="UTF-8"?>
<svg version="1.1" xmlns="http://www.w3.org/2000/svg" width="1024" height="320">
<path d="M0 0 C5.96449271 4.59338568 9.874295 8.19339008 11.26513672 15.77001953 C11.44593034 20.22497129 11.26451968 24.66635002 11.09912109 29.11962891 C10.98857982 34.42179843 11.10872617 38.25144574 14.26513672 42.77001953 C15.25513672 43.10001953 16.24513672 43.43001953 17.26513672 43.77001953 C17.48427734 42.58666016 17.70341797 41.40330078 17.92919922 40.18408203 C19.72385383 31.03260258 21.57128088 23.35725394 27.26513672 15.77001953 C27.78978516 15.00560547 28.31443359 14.24119141 28.85498047 13.45361328 C39.06473191 -0.74394696 56.0331554 -10.0877012 73.15869141 -12.94873047 C92.48496199 -15.52915046 112.20070061 -11.33525987 127.92919922 0.43408203 C144.29106677 13.36990468 154.66029471 32.23658716 157.72998047 52.89892578 C158.01186205 55.86061305 158.16909878 58.79684505 158.26513672 61.77001953 C158.31669922 62.67623047 158.36826172 63.58244141 158.42138672 64.51611328 C158.63593836 70.96160223 157.91788835 77.16299019 156.95263672 83.52001953 C156.77619629 84.70833374 156.77619629 84.70833374 156.59619141 85.9206543 C155.19454691 94.48735488 153.35664518 100.73300629 146.44873047 106.29736328 C139.24855898 111.15329289 130.79440527 112.32931583 122.26513672 111.77001953 C120.26513672 110.39501953 120.26513672 110.39501953 119.26513672 108.77001953 C119.26513672 108.11001953 119.26513672 107.45001953 119.26513672 106.77001953 C118.60513672 106.77001953 117.94513672 106.77001953 117.26513672 106.77001953 C117.47138672 107.84251953 117.67763672 108.91501953 117.89013672 110.02001953 C118.25275582 113.6462105 118.2487574 114.85293029 116.26513672 117.77001953 C123.65415093 121.98511627 131.92360788 119.62229654 139.69873047 117.52392578 C141.56525645 116.97561602 143.41957269 116.38520754 145.26513672 115.77001953 C144.69119018 120.36159183 142.75385682 123.87798872 140.39013672 127.77001953 C139.79773193 128.75143921 139.79773193 128.75143921 139.19335938 129.75268555 C135.26423709 136.07394543 130.66286674 141.63974608 125.69287109 147.16967773 C124.68303311 148.30160112 123.68546563 149.44452784 122.69677734 150.5949707 C118.02460051 156.02671386 113.08294811 161.14478305 108.01513672 166.20751953 C107.17321777 167.04863281 106.33129883 167.88974609 105.46386719 168.75634766 C100.45081585 173.72014729 95.41492748 178.41430691 89.84716797 182.75048828 C87.40246304 184.66260999 85.04626473 186.6557646 82.69848633 188.68505859 C71.30143267 198.51134797 59.15984738 207.2510479 46.76513672 215.77001953 C45.84547119 216.40520508 44.92580566 217.04039062 43.97827148 217.69482422 C29.7552206 227.37452639 29.7552206 227.37452639 22.39013672 227.14501953 C21.46458984 227.13212891 20.53904297 227.11923828 19.58544922 227.10595703 C17.26513672 226.77001953 17.26513672 226.77001953 15.26513672 224.77001953 C13.77842919 224.32686633 12.27508975 223.93850529 10.76513672 223.58251953 C4.63884743 221.8208827 0.31564879 218.55056272 -4.73486328 214.77001953 C-6.83478398 213.32632405 -8.93919673 211.88914706 -11.04736328 210.45751953 C-32.98722955 195.33111678 -53.07583578 177.75784047 -71.73486328 158.77001953 C-72.55986328 157.96564453 -73.38486328 157.16126953 -74.23486328 156.33251953 C-93.19347513 136.89994238 -113.58024024 110.2262604 -114.35986328 81.77001953 C-114.07789756 77.48536658 -112.83363761 74.53032354 -110.73486328 70.77001953 C-110.48342016 67.0192875 -110.48342016 67.0192875 -110.73486328 63.77001953 C-111.37423828 63.95564453 -112.01361328 64.14126953 -112.67236328 64.33251953 C-113.69330078 64.54908203 -113.69330078 64.54908203 -114.73486328 64.77001953 C-115.73486328 63.77001953 -115.73486328 63.77001953 -115.78955078 61.20751953 C-114.63904908 39.19792183 -105.8105277 20.02864261 -89.87939453 4.67626953 C-64.64052442 -17.75828168 -27.37182623 -19.4060316 0 0 Z M47.26513672 42.77001953 C47.59513672 44.42001953 47.92513672 46.07001953 48.26513672 47.77001953 C48.92513672 47.77001953 49.58513672 47.77001953 50.26513672 47.77001953 C49.91726964 45.79465208 49.91726964 45.79465208 49.26513672 43.77001953 C48.60513672 43.44001953 47.94513672 43.11001953 47.26513672 42.77001953 Z M118.26513672 83.77001953 C117.93513672 84.43001953 117.60513672 85.09001953 117.26513672 85.77001953 C114.29513672 85.27501953 114.29513672 85.27501953 111.26513672 84.77001953 C112.4689512 87.26363524 113.71942394 89.45145036 115.26513672 91.77001953 C115.53857422 93.70751953 115.53857422 93.70751953 115.64013672 95.77001953 C115.96254512 99.1922106 115.96254512 99.1922106 118.32763672 101.77001953 C118.96701172 102.10001953 119.60638672 102.43001953 120.26513672 102.77001953 C122.79021317 99.53792168 123.27260646 98.00531629 123.14013672 93.83251953 C122.51025753 90.10278544 121.15518072 87.05705257 119.26513672 83.77001953 C118.93513672 83.77001953 118.60513672 83.77001953 118.26513672 83.77001953 Z " fill="#9AD0EE" transform="translate(485.73486328125,60.22998046875)"/>
<path d="M0 0 C16.36186755 12.93582265 26.73109549 31.80250513 29.80078125 52.46484375 C30.08266283 55.42653102 30.23989956 58.36276301 30.3359375 61.3359375 C30.3875 62.24214844 30.4390625 63.14835937 30.4921875 64.08203125 C30.70673914 70.5275202 29.98868913 76.72890816 29.0234375 83.0859375 C28.90581055 83.87814697 28.78818359 84.67035645 28.66699219 85.48657227 C27.26534769 94.05327285 25.42744596 100.29892426 18.51953125 105.86328125 C11.31935976 110.71921086 2.86520606 111.8952338 -5.6640625 111.3359375 C-7.6640625 109.9609375 -7.6640625 109.9609375 -8.6640625 108.3359375 C-8.6640625 107.6759375 -8.6640625 107.0159375 -8.6640625 106.3359375 C-9.3240625 106.3359375 -9.9840625 106.3359375 -10.6640625 106.3359375 C-10.2928125 107.9446875 -10.2928125 107.9446875 -9.9140625 109.5859375 C-9.6640625 113.3359375 -9.6640625 113.3359375 -11.6015625 115.7734375 C-12.2821875 116.2890625 -12.9628125 116.8046875 -13.6640625 117.3359375 C-15.6640625 115.3359375 -15.6640625 115.3359375 -15.9296875 113.3125 C-15.92453125 112.53648437 -15.919375 111.76046875 -15.9140625 110.9609375 C-15.92179688 109.80464844 -15.92179688 109.80464844 -15.9296875 108.625 C-15.6640625 106.3359375 -15.6640625 106.3359375 -14.65625 104.4375 C-13.30557072 101.57661239 -13.47070793 99.23024784 -13.5390625 96.0859375 C-13.55710937 95.00828125 -13.57515625 93.930625 -13.59375 92.8203125 C-13.61695313 92.00046875 -13.64015625 91.180625 -13.6640625 90.3359375 C-13.0040625 90.6659375 -12.3440625 90.9959375 -11.6640625 91.3359375 C-11.43895119 93.36193925 -11.2199747 95.39053026 -11.10546875 97.42578125 C-10.80063546 99.74018562 -10.80063546 99.74018562 -7.6640625 101.3359375 C-5.38028885 98.11178646 -5.51049082 95.38141248 -6.125 91.55859375 C-7.39803477 86.30963157 -9.24838016 81.78887464 -13.0390625 77.8984375 C-19.85662992 73.84036165 -26.91106138 73.41657184 -34.6640625 74.3359375 C-41.01400622 76.69941495 -45.24382373 81.47709527 -48.78125 87.1171875 C-49.96030716 90.08048161 -49.92877576 92.59169451 -49.9140625 95.7734375 C-49.91921875 96.88589844 -49.924375 97.99835938 -49.9296875 99.14453125 C-49.66614979 102.31085934 -48.88366713 104.43695666 -47.6640625 107.3359375 C-47.6640625 108.6559375 -47.6640625 109.9759375 -47.6640625 111.3359375 C-55.5840625 111.3359375 -63.5040625 111.3359375 -71.6640625 111.3359375 C-71.6021875 109.3146875 -71.5403125 107.2934375 -71.4765625 105.2109375 C-71.47612896 98.30664993 -71.47612896 98.30664993 -74.6640625 92.3359375 C-80.37267733 87.08460189 -86.65950966 84.94879677 -94.46484375 85.1328125 C-98.59609838 85.51438486 -102.62533685 86.40901686 -106.6640625 87.3359375 C-106.6640625 84.3659375 -106.6640625 81.3959375 -106.6640625 78.3359375 C-105.4265625 78.8309375 -104.1890625 79.3259375 -102.9140625 79.8359375 C-96.59439913 81.90600046 -89.47308925 83.03901196 -83.2265625 80.24609375 C-81.1159766 78.94796298 -81.1159766 78.94796298 -79.28515625 77.52734375 C-77.6640625 76.3359375 -77.6640625 76.3359375 -74.6640625 75.3359375 C-73.54471177 73.68963557 -73.54471177 73.68963557 -72.6640625 71.3359375 C-72.1278125 70.2015625 -71.5915625 69.0671875 -71.0390625 67.8984375 C-68.31084577 60.3466211 -68.41472171 52.1288676 -71.7890625 44.8359375 C-75.5681529 38.28622183 -80.38963668 34.6785492 -87.6640625 32.3359375 C-94.42823065 31.41469818 -100.31164281 33.10794897 -106.6640625 35.3359375 C-107.63028244 26.92624539 -105.54323018 22.09753351 -100.6640625 15.3359375 C-100.13425781 14.56121094 -99.60445312 13.78648438 -99.05859375 12.98828125 C-88.82389735 -1.18470688 -71.895767 -10.52182947 -54.77050781 -13.3828125 C-35.44423723 -15.96323249 -15.72849861 -11.7693419 0 0 Z " fill="#E4B43B" transform="translate(613.6640625,60.6640625)"/>
<path d="M0 0 C2.74069067 1.80237539 5.56575777 3.81533567 6.63671875 6.98046875 C7.06619175 9.40981096 7.19213385 11.70092922 7.2109375 14.16796875 C7.22511719 15.01359375 7.23929688 15.85921875 7.25390625 16.73046875 C7.00560859 19.35653211 6.19356857 20.83688411 5.0234375 23.16796875 C4.78363988 25.53019107 4.78363988 25.53019107 4.8984375 27.91796875 C4.91648437 28.7171875 4.93453125 29.51640625 4.953125 30.33984375 C4.97632813 30.943125 4.99953125 31.54640625 5.0234375 32.16796875 C10.78722403 36.17755938 15.06282067 37.0134674 22.0234375 36.16796875 C27.12148157 35.13592568 32.08988553 33.81248607 37.0234375 32.16796875 C36.44949096 36.75954105 34.5121576 40.27593794 32.1484375 44.16796875 C31.75350098 44.82224854 31.35856445 45.47652832 30.95166016 46.15063477 C27.02253787 52.47189465 22.42116752 58.0376953 17.45117188 63.56762695 C16.44133389 64.69955034 15.44376641 65.84247706 14.45507812 66.99291992 C9.78290129 72.42466307 4.8412489 77.54273227 -0.2265625 82.60546875 C-1.06848145 83.44658203 -1.91040039 84.28769531 -2.77783203 85.15429688 C-7.79088337 90.11809651 -12.82677174 94.81225613 -18.39453125 99.1484375 C-20.83923618 101.06055921 -23.19543449 103.05371382 -25.54321289 105.08300781 C-36.94026655 114.90929719 -49.08185184 123.64899712 -61.4765625 132.16796875 C-62.39622803 132.8031543 -63.31589355 133.43833984 -64.26342773 134.09277344 C-78.51385106 143.79110432 -78.51385106 143.79110432 -85.9765625 143.41796875 C-86.9253125 143.381875 -87.8740625 143.34578125 -88.8515625 143.30859375 C-89.5528125 143.2621875 -90.2540625 143.21578125 -90.9765625 143.16796875 C-92.19269603 139.51956816 -91.635219 138.82374387 -90.1015625 135.41796875 C-86.49554944 127.39900265 -86.79407024 119.17631606 -86.7890625 110.54296875 C-86.77069336 108.86460937 -86.77069336 108.86460937 -86.75195312 107.15234375 C-86.75001953 106.07210937 -86.74808594 104.991875 -86.74609375 103.87890625 C-86.74198486 102.90228027 -86.73787598 101.9256543 -86.73364258 100.91943359 C-87.07688313 97.03167379 -88.00046839 94.17892336 -90.7265625 91.35546875 C-93.78985748 89.73872973 -95.53888992 89.69613134 -98.9765625 90.16796875 C-100.0696875 90.84859375 -101.1628125 91.52921875 -102.2890625 92.23046875 C-105.90454376 94.45722211 -108.60737958 94.60290164 -112.76171875 93.9140625 C-117.28527643 92.39025383 -120.66354448 89.30217195 -123.14453125 85.26953125 C-124.91811902 80.78976496 -124.72879146 75.68650749 -123.359375 71.1015625 C-121.28801961 66.85803354 -118.42568244 64.62037571 -114.125 62.7578125 C-108.08338282 61.09911396 -103.35613568 63.47818216 -97.9765625 66.16796875 C-94.48722932 66.65647539 -92.7878152 66.68641863 -89.8059082 64.78076172 C-86.94364078 60.69268138 -87.61806141 56.78090644 -87.83203125 51.92578125 C-87.8777487 49.8698092 -87.92264508 47.81381876 -87.96679688 45.7578125 C-88.05989743 42.5226295 -88.16423021 39.28847403 -88.28491211 36.05419922 C-88.39382033 32.92803286 -88.45907023 29.80320655 -88.51953125 26.67578125 C-88.56820847 25.71310333 -88.61688568 24.75042542 -88.66703796 23.75857544 C-88.76418024 17.19839656 -88.76418024 17.19839656 -86.47926331 14.20907593 C-81.92797813 10.16807472 -78.75650741 9.36569906 -72.703125 9.69921875 C-67.65822191 10.56653733 -63.59059453 12.55393672 -59.9765625 16.16796875 C-59.50124798 22.70354337 -60.66104083 28.77829205 -61.9765625 35.16796875 C-56.30779278 36.95124131 -50.16308383 36.39264503 -44.27758789 36.40820312 C-42.0499149 36.41792141 -39.82316038 36.44897482 -37.59570312 36.48046875 C-36.17188045 36.48699853 -34.74805121 36.4922491 -33.32421875 36.49609375 C-32.03523682 36.50543945 -30.74625488 36.51478516 -29.41821289 36.52441406 C-25.4630985 36.11479024 -22.80644507 34.99785132 -19.9765625 32.16796875 C-19.32489146 26.21520443 -20.20646503 22.47732224 -22.9765625 17.16796875 C-23.79741508 11.62721384 -22.49191908 8.35196873 -19.37890625 3.90234375 C-14.78014487 -1.78526085 -6.71127945 -2.8251038 0 0 Z " fill="#4E96E8" transform="translate(593.9765625,143.83203125)"/>
<path d="M0 0 C0.86625 0.78375 1.7325 1.5675 2.625 2.375 C3.57375 3.2 4.5225 4.025 5.5 4.875 C8.53205104 8.6772505 8.09696877 12.90632624 7.99609375 17.5703125 C7.63149543 20.32590825 6.93516797 21.96614786 5.625 24.375 C5.13143723 28.46519746 5.13143723 28.46519746 6.8515625 32.015625 C9.77338903 34.25526296 12.41382097 34.08342993 15.99609375 34 C20.12110984 33.01931267 22.08960737 30.44822223 24.83203125 27.35546875 C28.33899785 23.48176055 31.91223432 22.22450217 37 21.9375 C43.17627323 22.16663661 47.6436825 24.54228131 52.125 28.6875 C54.04372209 32.1252104 53.99100149 34.49538425 53.625 38.375 C53.13 39.365 53.13 39.365 52.625 40.375 C52.5560528 41.74842831 52.54032292 43.12502102 52.5625 44.5 C52.583125 45.77875 52.60375 47.0575 52.625 48.375 C55.5432146 50.03308821 57.67949297 50.63478517 61.02636719 50.69384766 C62.3172525 50.72365219 62.3172525 50.72365219 63.63421631 50.75405884 C64.55414368 50.76561005 65.47407104 50.77716125 66.421875 50.7890625 C67.84503021 50.81811172 67.84503021 50.81811172 69.29693604 50.8477478 C72.32286633 50.90745659 75.34883484 50.95389433 78.375 51 C80.42840187 51.03818777 82.48178786 51.07723997 84.53515625 51.1171875 C89.56502084 51.21477582 94.59471927 51.29441372 99.625 51.375 C99.625 57.975 99.625 64.575 99.625 71.375 C98.14 70.88 96.655 70.385 95.125 69.875 C86.88324592 67.46729656 81.64448724 67.59697689 73.9609375 71.74609375 C70.26340765 74.32447159 67.89342164 77.52021593 65.625 81.375 C65.24988281 81.99761719 64.87476563 82.62023437 64.48828125 83.26171875 C62.25696304 88.72390495 62.9034367 96.07458084 64.6875 101.625 C67.29521981 107.46190555 71.47567382 112.80441503 77.4375 115.375 C85.21060145 117.70092804 92.94781002 116.45192096 100.625 114.375 C101.5549084 142.20336975 101.5549084 142.20336975 94.625 152.375 C91.09536272 151.08472838 88.23234802 149.57024571 85.1875 147.375 C84.32253906 146.75496094 83.45757812 146.13492188 82.56640625 145.49609375 C81.59574219 144.79613281 80.62507813 144.09617187 79.625 143.375 C78.48914012 142.57300096 77.35238148 141.77227368 76.21484375 140.97265625 C69.15373408 135.99648561 62.31535047 130.84371728 55.625 125.375 C54.41109103 124.40898043 53.19616746 123.44423503 51.98046875 122.48046875 C39.10137915 112.22048016 27.16411668 101.11744913 15.625 89.375 C14.8 88.570625 13.975 87.76625 13.125 86.9375 C-5.94974573 67.38588563 -26.04002652 40.87124205 -27.0625 12.3125 C-26.81347815 9.03762776 -26.36482352 7.35464703 -24.875 4.375 C-17.45720907 -1.55923275 -9.03746173 -4.35137046 0 0 Z " fill="#B2D47E" transform="translate(398.375,129.625)"/>
<path d="M0 0 C0.33 0 0.66 0 1 0 C1 2.31 1 4.62 1 7 C1.61746094 6.71125 2.23492187 6.4225 2.87109375 6.125 C9.72335609 3.12126856 15.30971355 1.39149509 22.57421875 3.8828125 C29.83181574 7.15903715 33.8387382 11.397897 37.875 18.125 C40.44444444 24.95633731 40.06298411 33.31386383 37.3125 40 C35.38656507 43.67739491 33.23882122 46.35005537 30 49 C29.44699219 49.46535156 28.89398437 49.93070313 28.32421875 50.41015625 C22.56257256 54.69262205 16.99194845 54.91115926 10 54 C7.38374142 53.24278131 5.41483622 52.31241099 3 51 C2.34 50.67 1.68 50.34 1 50 C1 52.97 1 55.94 1 59 C1.6290625 58.7834375 2.258125 58.566875 2.90625 58.34375 C11.92914005 55.408593 19.19528108 54.92374124 28 59 C32.46274724 61.73585809 35.27981018 65.03056273 37 70 C37.43351425 74.6080959 37.12461804 78.50152783 36 83 C43.92 83 51.84 83 60 83 C59.01 80.03 58.02 77.06 57 74 C56.03565919 66.92013119 56.06468204 60.59081788 60.4375 54.71484375 C64.76789395 49.96223639 69.3106278 45.424747 75.91796875 44.6640625 C84.61631435 44.56013961 90.6041998 45.75548081 97.625 50.9375 C99 53 99 53 98.5859375 55.62890625 C98.39257812 56.41136719 98.19921875 57.19382813 98 58 C96.3743193 57.69106068 94.74947252 57.3777305 93.125 57.0625 C92.22007812 56.88847656 91.31515625 56.71445313 90.3828125 56.53515625 C88 56 88 56 86 55 C80.74449329 54.47616682 76.33533814 54.38002158 71.5 56.625 C67.66251102 60.27061454 66.18906383 63.2354043 65.625 68.5 C65.78620273 72.01725321 65.78620273 72.01725321 67.5 74.875 C69.47192989 78.98318728 69.78473072 82.51338741 69 87 C66.80168636 90.03215675 65.55036806 90.81654398 62 92 C57.4426795 92.20593952 52.88294475 92.18580098 48.3215332 92.18530273 C46.07418872 92.18748863 43.82733576 92.20565452 41.58007812 92.22460938 C40.14843917 92.2275437 38.7167979 92.22952823 37.28515625 92.23046875 C35.98457275 92.23457764 34.68398926 92.23868652 33.34399414 92.24291992 C30.25428242 92.018472 28.57353589 91.64206802 26 90 C25.875 82.375 25.875 82.375 27 79 C27.48178676 74.93876803 27.48178676 74.93876803 27 71 C22.5481195 67.14170357 18.47959767 65.8332912 12.6875 65.625 C11.30111328 65.55152344 11.30111328 65.55152344 9.88671875 65.4765625 C5.9484447 66.19067444 3.33549243 67.79269385 1 71 C0.22340756 74.4756973 0.41857504 77.83346247 0.58984375 81.375 C0.6101918 82.37708496 0.63053986 83.37916992 0.65150452 84.41162109 C0.71809582 87.60924887 0.82372535 90.80372608 0.9375 94 C1.0459789 97.19615866 1.14517236 100.3910809 1.21278381 103.58837891 C1.25503515 105.57569947 1.32072305 107.56269384 1.4125824 109.54833984 C1.5145918 114.22126027 1.54519869 116.27632208 -1.34545898 120.11328125 C-4 122 -4 122 -6.75 122.5625 C-9.77896823 122.0382555 -11.65572276 121.27377713 -14.375 119.9375 C-19.15989754 117.66588198 -21.86917106 117.71729277 -27 119 C-30.3524821 120.41549244 -31.71109979 121.59155487 -33.8125 124.5625 C-35.39870176 129.15413668 -35.71146566 133.19174307 -35 138 C-33.02277707 141.88383075 -30.91322591 144.99050561 -27 147 C-23.26658325 148.00235703 -19.71053678 148.74100176 -16.0703125 147.1640625 C-15.49023438 146.80054688 -14.91015625 146.43703125 -14.3125 146.0625 C-10.66816294 143.79338447 -9.18675177 143.19828158 -5 144 C-2.12578547 145.69900999 0.48981897 147.58179904 1.6574707 150.82763672 C2.40201309 155.54961686 2.18474037 160.3563584 2.1875 165.125 C2.19974609 166.21554688 2.21199219 167.30609375 2.22460938 168.4296875 C2.24303619 178.69956711 1.00847512 186.98474478 -4 196 C-5.31471568 195.71848913 -6.62675767 195.42446661 -7.9375 195.125 C-9.03384766 194.88136719 -9.03384766 194.88136719 -10.15234375 194.6328125 C-12 194 -12 194 -13 192 C-12.566875 191.071875 -12.13375 190.14375 -11.6875 189.1875 C-7.02940703 178.82909235 -7.50913146 166.18749397 -7 155 C-7.53367187 155.2165625 -8.06734375 155.433125 -8.6171875 155.65625 C-16.32506305 158.53670176 -24.28547473 159.57361432 -32.05078125 156.234375 C-37.75098081 152.62462939 -42.63747136 146.72625435 -44.58984375 140.22265625 C-46.16017391 131.71296235 -45.65845675 125.36080682 -40.70703125 118.125 C-35.81058728 112.02965556 -30.08188525 108.46841306 -22.1875 107.5625 C-17.03015892 107.73474911 -12.6579001 109.92982218 -8 112 C-8 105.4 -8 98.8 -8 92 C-12.56908203 92.05220703 -12.56908203 92.05220703 -17.23046875 92.10546875 C-20.18594424 92.12887592 -23.14140935 92.14708592 -26.09692383 92.16479492 C-28.14840326 92.17986622 -30.19985056 92.20032682 -32.2512207 92.22631836 C-35.20271748 92.26277424 -38.15378763 92.27974306 -41.10546875 92.29296875 C-42.47761787 92.31619453 -42.47761787 92.31619453 -43.87748718 92.33988953 C-48.70944526 92.34116189 -52.12424696 92.24948355 -56 89 C-56.88672245 85.65824747 -56.55430954 82.10861908 -55 79 C-54.62827953 75.05976306 -54.58708171 72.72673619 -56.5625 69.25 C-60.70326283 65.42775739 -64.92209484 63.84757181 -70.5 63.5625 C-75.02998395 63.74677053 -78.48422329 65.14291682 -82 68 C-83.11381431 69.24141118 -84.2176579 70.49182481 -85.3125 71.75 C-88.16516199 74.75110368 -90.04096745 75.53550101 -94.1875 75.6875 C-97.39899218 75.43820609 -98.84486908 75.09603343 -101.625 73.375 C-103.39575693 70.31641985 -103.43594462 68.48755699 -103 65 C-102.67257812 64.39800781 -102.34515625 63.79601562 -102.0078125 63.17578125 C-99.94631698 58.72518821 -100.27756555 53.76433064 -101 49 C-103.28734419 44.68523709 -106.4609094 41.80228597 -111 40 C-118.41939958 39.00921062 -123.64725437 40.16438 -130 44 C-131.58502671 40.82994658 -131.60385067 37.50875122 -132 34 C-126.68228021 30.48513397 -122.90954623 29.30759177 -116.5625 29.4375 C-115.43654419 29.4528479 -115.43654419 29.4528479 -114.2878418 29.46850586 C-108.39822214 29.69500501 -104.28924498 30.76410384 -100 35 C-99.44054687 35.54269531 -98.88109375 36.08539063 -98.3046875 36.64453125 C-92.10266231 43.28099781 -90.66238244 49.49323384 -90.796875 58.42578125 C-91 61 -91 61 -92 63 C-91.16855469 62.43410156 -90.33710938 61.86820313 -89.48046875 61.28515625 C-87.85044922 60.18494141 -87.85044922 60.18494141 -86.1875 59.0625 C-85.10855469 58.33160156 -84.02960938 57.60070312 -82.91796875 56.84765625 C-76.73255668 52.93105664 -70.11159808 53.33827911 -63 54 C-54.42691585 56.54566946 -49.36577056 61.74161298 -45.125 69.375 C-44 73 -44 73 -44 82 C-32.45 82 -20.9 82 -9 82 C-9.11838842 71.4096777 -9.11838842 71.4096777 -9.27026367 60.81982422 C-9.27903444 59.48145265 -9.28667698 58.14307302 -9.29296875 56.8046875 C-9.3159906 55.78193726 -9.3159906 55.78193726 -9.33947754 54.73852539 C-9.34248884 49.17967286 -8.0030914 45.14123564 -4.1875 41.0625 C-1.0460723 39.53666369 0.65865266 40.0827674 4 41 C5.093125 41.515625 6.18625 42.03125 7.3125 42.5625 C11.74461755 44.29027464 15.30417196 44.76980787 20 44 C24.51168247 41.74415877 26.7835212 39.48420566 29 35 C29.39724233 32.01360758 29.39724233 32.01360758 29.25 28.9375 C29.22679687 27.40416016 29.22679687 27.40416016 29.203125 25.83984375 C29.02965562 23.41460841 28.69034302 21.32155678 28 19 C28.66 19 29.32 19 30 19 C29.01 17.02 29.01 17.02 28 15 C27.34 15.66 26.68 16.32 26 17 C25.67 16.01 25.34 15.02 25 14 C17.05715886 12.76008199 11.75091618 12.3061224 4.9453125 16.8515625 C2.26107042 18.43623553 0.04148472 18.38993394 -3 18 C-3 14.31915662 -2.24328053 10.89832635 -1.5 7.3125 C-1.35691406 6.61060547 -1.21382812 5.90871094 -1.06640625 5.18554688 C-0.71353918 3.45649825 -0.35711396 1.72817647 0 0 Z " fill="#E9F1EF" transform="translate(506,89)"/>
<path d="M0 0 C0.33 0 0.66 0 1 0 C1 2.31 1 4.62 1 7 C1.61746094 6.71125 2.23492187 6.4225 2.87109375 6.125 C9.72335609 3.12126856 15.30971355 1.39149509 22.57421875 3.8828125 C29.83181574 7.15903715 33.8387382 11.397897 37.875 18.125 C40.44444444 24.95633731 40.06298411 33.31386383 37.3125 40 C35.38656507 43.67739491 33.23882122 46.35005537 30 49 C29.44699219 49.46535156 28.89398437 49.93070313 28.32421875 50.41015625 C22.56257256 54.69262205 16.99194845 54.91115926 10 54 C7.38374142 53.24278131 5.41483622 52.31241099 3 51 C2.34 50.67 1.68 50.34 1 50 C1 52.97 1 55.94 1 59 C1.6290625 58.7834375 2.258125 58.566875 2.90625 58.34375 C11.92914005 55.408593 19.19528108 54.92374124 28 59 C32.46274724 61.73585809 35.27981018 65.03056273 37 70 C37.53897474 74.91065876 37.47395924 78.6434662 35 83 C35 80.36 35 77.72 35 75 C34.34 75 33.68 75 33 75 C33 72.36 33 69.72 33 67 C32.34 67 31.68 67 31 67 C31 66.01 31 65.02 31 64 C29.39679026 63.80448662 27.79237014 63.61888017 26.1875 63.4375 C25.29417969 63.33308594 24.40085937 63.22867188 23.48046875 63.12109375 C20.86624428 62.84341291 20.86624428 62.84341291 18 64 C15.50894976 64.09635462 13.05259297 64.1393246 10.5625 64.125 C9.24378906 64.12757813 7.92507813 64.13015625 6.56640625 64.1328125 C3 64 3 64 -1 63 C-1 56.07 -1 49.14 -1 42 C6 42 6 42 8.375 43 C12.26923085 44.48351652 15.88615618 44.58769197 20 44 C24.51168247 41.74415877 26.7835212 39.48420566 29 35 C29.39724233 32.01360758 29.39724233 32.01360758 29.25 28.9375 C29.23453125 27.91527344 29.2190625 26.89304687 29.203125 25.83984375 C29.02965562 23.41460841 28.69034302 21.32155678 28 19 C28.66 19 29.32 19 30 19 C29.34 17.68 28.68 16.36 28 15 C27.34 15.66 26.68 16.32 26 17 C25.67 16.01 25.34 15.02 25 14 C17.05715886 12.76008199 11.75091618 12.3061224 4.9453125 16.8515625 C2.26107042 18.43623553 0.04148472 18.38993394 -3 18 C-3 14.31915662 -2.24328053 10.89832635 -1.5 7.3125 C-1.35691406 6.61060547 -1.21382813 5.90871094 -1.06640625 5.18554688 C-0.71353918 3.45649825 -0.35711396 1.72817647 0 0 Z " fill="#FCF8E8" transform="translate(506,89)"/>
<path d="M0 0 C2.74069067 1.80237539 5.56575777 3.81533567 6.63671875 6.98046875 C7.06619175 9.40981096 7.19213385 11.70092922 7.2109375 14.16796875 C7.22511719 15.01359375 7.23929688 15.85921875 7.25390625 16.73046875 C7.00568679 19.35570509 6.25421344 20.86552859 5.0234375 23.16796875 C4.63594537 25.49292152 4.29360911 27.82648143 4.0234375 30.16796875 C2.4763156 27.71077515 1.97859348 26.53568975 2.3359375 23.60546875 C2.85110871 21.77895263 3.42330731 19.96835933 4.0234375 18.16796875 C4.0924285 16.10651768 4.10811477 14.04295474 4.0859375 11.98046875 C4.07691406 10.89378906 4.06789063 9.80710938 4.05859375 8.6875 C4.04699219 7.85605469 4.03539062 7.02460938 4.0234375 6.16796875 C3.0334375 6.16796875 2.0434375 6.16796875 1.0234375 6.16796875 C0.4871875 5.50796875 -0.0490625 4.84796875 -0.6015625 4.16796875 C-3.70911327 1.55108389 -5.74993982 1.5315883 -9.72265625 1.71484375 C-13.64355519 2.50310073 -15.2892634 4.21849412 -17.9765625 7.16796875 C-19.83671917 10.55007179 -20.38089866 13.32677523 -19.9765625 17.16796875 C-18.9865625 18.65296875 -18.9865625 18.65296875 -17.9765625 20.16796875 C-17.4921875 22.69140625 -17.4921875 22.69140625 -17.2265625 25.54296875 C-17.12859375 26.47882813 -17.030625 27.4146875 -16.9296875 28.37890625 C-16.99973745 32.54687809 -18.0330659 35.22447215 -20.9765625 38.16796875 C-24.62255866 39.51109057 -28.34711498 39.29741434 -32.19140625 39.30078125 C-33.23053917 39.30221634 -33.23053917 39.30221634 -34.29066467 39.30368042 C-35.75228974 39.30435927 -37.21391787 39.30252556 -38.67553711 39.29833984 C-40.90290159 39.29299553 -43.1300637 39.29829058 -45.35742188 39.3046875 C-46.78125044 39.30402651 -48.20507888 39.30274491 -49.62890625 39.30078125 C-50.91788818 39.29965332 -52.20687012 39.29852539 -53.53491211 39.29736328 C-56.49041962 39.18624609 -59.11012659 38.85860183 -61.9765625 38.16796875 C-63.83988938 33.56445529 -63.88505128 30.98295926 -62.9765625 26.16796875 C-62.88016552 22.49980985 -62.91781152 18.8366411 -62.9765625 15.16796875 C-66.83477171 13.36699655 -69.85712679 12.92196149 -74.1015625 12.98046875 C-75.13539063 12.98691406 -76.16921875 12.99335938 -77.234375 13 C-80.06823227 13.05539497 -80.06823227 13.05539497 -82.9765625 14.16796875 C-85.95561117 18.74293635 -85.90566719 20.96367224 -84.9765625 26.16796875 C-84.87383245 28.86571162 -84.81276899 31.53700028 -84.80859375 34.234375 C-84.80526535 34.99088852 -84.80193695 35.74740204 -84.79850769 36.52684021 C-84.79346946 38.11774085 -84.7910984 39.70865194 -84.79125977 41.29956055 C-84.78906602 43.72657627 -84.77085794 46.1531422 -84.75195312 48.58007812 C-84.74901995 50.13150887 -84.74703465 51.68294176 -84.74609375 53.234375 C-84.73890823 53.95532852 -84.73172272 54.67628204 -84.72431946 55.41908264 C-84.74243919 59.42971289 -85.02544045 62.62671269 -86.9765625 66.16796875 C-90.12267503 68.26537711 -90.88844328 68.42125094 -94.4765625 68.35546875 C-95.25 68.34902344 -96.0234375 68.34257812 -96.8203125 68.3359375 C-98.9765625 68.16796875 -98.9765625 68.16796875 -101.9765625 67.16796875 C-101.9765625 66.50796875 -101.9765625 65.84796875 -101.9765625 65.16796875 C-100.96335937 65.34585938 -100.96335937 65.34585938 -99.9296875 65.52734375 C-98.59164063 65.72070312 -98.59164063 65.72070312 -97.2265625 65.91796875 C-96.34484375 66.0571875 -95.463125 66.19640625 -94.5546875 66.33984375 C-91.91548864 66.37101307 -91.91548864 66.37101307 -89.82446289 64.79736328 C-86.94365684 60.69823775 -87.61722406 56.7999065 -87.83203125 51.92578125 C-87.8777487 49.8698092 -87.92264508 47.81381876 -87.96679688 45.7578125 C-88.05989743 42.5226295 -88.16423021 39.28847403 -88.28491211 36.05419922 C-88.39382033 32.92803286 -88.45907023 29.80320655 -88.51953125 26.67578125 C-88.56820847 25.71310333 -88.61688568 24.75042542 -88.66703796 23.75857544 C-88.76418024 17.19839656 -88.76418024 17.19839656 -86.47926331 14.20907593 C-81.92797813 10.16807472 -78.75650741 9.36569906 -72.703125 9.69921875 C-67.65822191 10.56653733 -63.59059453 12.55393672 -59.9765625 16.16796875 C-59.50124798 22.70354337 -60.66104083 28.77829205 -61.9765625 35.16796875 C-56.30779278 36.95124131 -50.16308383 36.39264503 -44.27758789 36.40820312 C-42.0499149 36.41792141 -39.82316038 36.44897482 -37.59570312 36.48046875 C-36.17188045 36.48699853 -34.74805121 36.4922491 -33.32421875 36.49609375 C-32.03523682 36.50543945 -30.74625488 36.51478516 -29.41821289 36.52441406 C-25.4630985 36.11479024 -22.80644507 34.99785132 -19.9765625 32.16796875 C-19.32489146 26.21520443 -20.20646503 22.47732224 -22.9765625 17.16796875 C-23.79741508 11.62721384 -22.49191908 8.35196873 -19.37890625 3.90234375 C-14.78014487 -1.78526085 -6.71127945 -2.8251038 0 0 Z " fill="#6799CE" transform="translate(593.9765625,143.83203125)"/>
<path d="M0 0 C0.53625 0.474375 1.0725 0.94875 1.625 1.4375 C5.13906813 3.74938693 8.8986173 3.77042548 13 3 C14.00641417 2.00645558 15.00660917 1.00656577 16 0 C17.9375 -0.328125 17.9375 -0.328125 20 -0.25 C20.680625 -0.23453125 21.36125 -0.2190625 22.0625 -0.203125 C24 0 24 0 27 1 C27 1.66 27 2.32 27 3 C27.99 3 28.98 3 30 3 C30.495 5.475 30.495 5.475 31 8 C31.66 8 32.32 8 33 8 C33.64038874 40.60728085 33.64038874 40.60728085 30 52 C29.67 52.33 29.34 52.66 29 53 C31.64 53.33 34.28 53.66 37 54 C37 53.34 37 52.68 37 52 C39.64738916 50.5393715 40.89448334 50 44 50 C44 49.34 44 48.68 44 48 C46.90600261 46.74335022 48.79604584 46 52 46 C52.33 44.68 52.66 43.36 53 42 C53.99 42.33 54.98 42.66 56 43 C56 42.01 56 41.02 56 40 C58.64738916 38.5393715 59.89448334 38 63 38 C63.33 36.68 63.66 35.36 64 34 C65.65 33.67 67.3 33.34 69 33 C69 32.34 69 31.68 69 31 C69.99 31 70.98 31 72 31 C72 30.34 72 29.68 72 29 C72.5775 28.79375 73.155 28.5875 73.75 28.375 C76.28119834 27.06273203 76.28119834 27.06273203 77.875 23.9375 C80 21 80 21 83.25 20.125 C84.1575 20.08375 85.065 20.0425 86 20 C86 19.34 86 18.68 86 18 C92.29444444 12.27777778 92.29444444 12.27777778 96 11 C96.99 11.33 97.98 11.66 99 12 C81.16803408 26.84687911 62.8146103 40.88340032 43 53 C42.01 53.639375 41.02 54.27875 40 54.9375 C35.39052865 56.5700211 30.83976482 56.23251539 26 56 C24.78386647 52.35159941 25.3413435 51.65577512 26.875 48.25 C30.48101306 40.2310339 30.18249226 32.00834731 30.1875 23.375 C30.20586914 21.69664062 30.20586914 21.69664062 30.22460938 19.984375 C30.22654297 18.90414062 30.22847656 17.82390625 30.23046875 16.7109375 C30.23457764 15.73431152 30.23868652 14.75768555 30.24291992 13.75146484 C29.89967937 9.86370504 28.97609411 7.01095461 26.25 4.1875 C23.18670502 2.57076098 21.43767258 2.52816259 18 3 C16.3603125 4.0209375 16.3603125 4.0209375 14.6875 5.0625 C11.03900469 7.32764121 8.2791983 7.36847374 4.08984375 6.6953125 C0.86006501 5.62073191 -0.92250463 3.61362321 -3 1 C-2.01 0.67 -1.02 0.34 0 0 Z " fill="#6196D0" transform="translate(477,231)"/>
<path d="M0 0 C1.34256904 4.36334936 1.02789735 8.60513243 0.9375 13.125 C0.99194366 15.62940839 1.26798166 17.6209404 2 20 C2.99 18.35 3.98 16.7 5 15 C6.051875 16.0828125 6.051875 16.0828125 7.125 17.1875 C9.92770745 19.99823813 12.92262792 22.49516226 16 25 C13 26 13 26 10.8125 25.0625 C9.9153125 24.5365625 9.9153125 24.5365625 9 24 C9 25.32 9 26.64 9 28 C12.63 28.33 16.26 28.66 20 29 C20 30.32 20 31.64 20 33 C23.63 33 27.26 33 31 33 C31.33 31.35 31.66 29.7 32 28 C35.3 28 38.6 28 42 28 C42.10256275 35.0768299 41.74915369 41.9633064 41 49 C38.525 49.495 38.525 49.495 36 50 C36 44.39 36 38.78 36 33 C34.72125 33.495 33.4425 33.99 32.125 34.5 C25.14374052 36.80151411 17.81356119 37.18618148 10.94921875 34.234375 C5.23245961 30.61414276 0.41837808 24.73546067 -1.60546875 18.24609375 C-2.6805971 12.12531353 -3.27546195 5.48085267 0 0 Z " fill="#EBEFE7" transform="translate(463,211)"/>
<path d="M0 0 C2.31 0 4.62 0 7 0 C7.19217298 4.52024275 7.37090744 9.04073941 7.53710938 13.56201172 C7.59557259 15.10056868 7.65773085 16.6389898 7.72363281 18.17724609 C7.81762837 20.38614165 7.89840086 22.59518213 7.9765625 24.8046875 C8.00875885 25.49432587 8.0409552 26.18396423 8.0741272 26.89450073 C8.12770248 28.59566977 8.0726782 30.29953998 8 32 C7.34 32.66 6.68 33.32 6 34 C3.375 33.625 3.375 33.625 1 33 C0.97294271 31.22925083 0.95357805 29.45838289 0.9375 27.6875 C0.92589844 26.70136719 0.91429687 25.71523437 0.90234375 24.69921875 C1 22 1 22 2 19 C-1.04213267 17.47893366 -4.28047572 17.62570662 -7.625 17.4375 C-8.33140625 17.39431641 -9.0378125 17.35113281 -9.765625 17.30664062 C-11.51018537 17.20055249 -13.25506697 17.09977111 -15 17 C-15 15.02 -15 13.04 -15 11 C-11.37 11 -7.74 11 -4 11 C-4 10.34 -4 9.68 -4 9 C-2.68 9 -1.36 9 0 9 C0 6.03 0 3.06 0 0 Z " fill="#EAECEA" transform="translate(498,163)"/>
<path d="M0 0 C0.66 0 1.32 0 2 0 C2 1.98 2 3.96 2 6 C2.6290625 5.7834375 3.258125 5.566875 3.90625 5.34375 C12.92914005 2.408593 20.19528108 1.92374124 29 6 C33.46274724 8.73585809 36.27981018 12.03056273 38 17 C38.53897474 21.91065876 38.47395924 25.6434662 36 30 C36 27.36 36 24.72 36 22 C35.34 22 34.68 22 34 22 C34 19.36 34 16.72 34 14 C33.34 14 32.68 14 32 14 C32 13.01 32 12.02 32 11 C30.39679026 10.80448662 28.79237014 10.61888017 27.1875 10.4375 C25.84751953 10.28087891 25.84751953 10.28087891 24.48046875 10.12109375 C21.86624428 9.84341291 21.86624428 9.84341291 19 11 C16.50894976 11.09635462 14.05259297 11.1393246 11.5625 11.125 C10.24378906 11.12757813 8.92507813 11.13015625 7.56640625 11.1328125 C4 11 4 11 0 10 C0 6.7 0 3.4 0 0 Z " fill="#F0EADA" transform="translate(505,142)"/>
<path d="M0 0 C6.47480545 0.48561041 11.48709209 3.21571975 15.80859375 8.00390625 C19.45916151 12.75752326 21.14165552 16.0925251 21.0625 22.1875 C21.05347656 23.08855469 21.04445313 23.98960937 21.03515625 24.91796875 C21.02355469 25.60503906 21.01195312 26.29210937 21 27 C20.67 27 20.34 27 20 27 C20 24.69 20 22.38 20 20 C19.236875 20.185625 18.47375 20.37125 17.6875 20.5625 C15 21 15 21 12 20 C10.859375 18.4765625 10.859375 18.4765625 9.75 16.625 C7.06264375 12.62272937 4.51637585 11.50545862 0 10 C0 6.7 0 3.4 0 0 Z " fill="#F4FBF9" transform="translate(440,143)"/>
<path d="M0 0 C3.17174085 1.64417448 5.73569445 3.37807972 7.9375 6.25 C7.9375 6.91 7.9375 7.57 7.9375 8.25 C7.2775 8.25 6.6175 8.25 5.9375 8.25 C5.9375 7.59 5.9375 6.93 5.9375 6.25 C5.31101562 6.26160156 4.68453125 6.27320313 4.0390625 6.28515625 C3.22179687 6.29417969 2.40453125 6.30320313 1.5625 6.3125 C0.75039063 6.32410156 -0.06171875 6.33570313 -0.8984375 6.34765625 C-3.0625 6.25 -3.0625 6.25 -5.0625 5.25 C-5.0625 3.6 -5.0625 1.95 -5.0625 0.25 C-7.48163128 0.50575393 -9.89660539 0.77893381 -12.3125 1.0625 C-12.99441406 1.13275391 -13.67632813 1.20300781 -14.37890625 1.27539062 C-18.42104844 1.76594186 -21.06796098 2.43297231 -24.0625 5.25 C-21.7525 5.58 -19.4425 5.91 -17.0625 6.25 C-19.04861612 8.23611612 -20.50393249 9.16454712 -23.0625 10.25 C-24.0525 10.25 -25.0425 10.25 -26.0625 10.25 C-26.3925 12.23 -26.7225 14.21 -27.0625 16.25 C-28.7125 16.25 -30.3625 16.25 -32.0625 16.25 C-31.92165204 18.04206547 -31.77466299 19.83364917 -31.625 21.625 C-31.50318359 23.12160156 -31.50318359 23.12160156 -31.37890625 24.6484375 C-31.21284374 27.22927613 -31.21284374 27.22927613 -30.0625 29.25 C-30.022508 31.24960012 -30.01903201 33.25047242 -30.0625 35.25 C-34.55399279 28.51276081 -34.98742713 22.20822717 -34.0625 14.25 C-31.64829045 7.58936831 -26.1267469 2.78581217 -20.234375 -0.890625 C-14.0272501 -3.34668161 -6.05332185 -2.55405939 0 0 Z " fill="#FCF6D5" transform="translate(597.0625,135.75)"/>
<path d="M0 0 C9.04394537 7.80946025 12.66506987 24.72580262 13.75 36.125 C13.85288586 38.08240348 13.93671869 40.04091619 14 42 C14.07734375 43.35931641 14.07734375 43.35931641 14.15625 44.74609375 C14.37080164 51.1915827 13.65275163 57.39297066 12.6875 63.75 C12.56987305 64.54220947 12.45224609 65.33441895 12.33105469 66.15063477 C11.17368143 73.22437578 9.87949834 80.17940312 4.125 84.9375 C3.46757813 85.50339844 2.81015625 86.06929688 2.1328125 86.65234375 C-0.25615741 88.16185771 -2.21882318 88.61722479 -5 89 C-5 88.34 -5 87.68 -5 87 C-3.3203125 85.7109375 -3.3203125 85.7109375 -1.125 84.375 C-0.40570312 83.92898437 0.31359375 83.48296875 1.0546875 83.0234375 C3 82 3 82 5 82 C5.309375 81.195625 5.61875 80.39125 5.9375 79.5625 C7 77 7 77 8 76 C8.20896317 74.19188816 8.36780361 72.37783968 8.5 70.5625 C8.89007634 65.21984733 8.89007634 65.21984733 10 63 C10.23754683 58.6154614 10.22853492 54.22664516 10.24023438 49.83642578 C10.24981062 47.66788425 10.28076616 45.50034488 10.3125 43.33203125 C10.38939991 33.42248066 10.42128825 23.06492221 4 15 C3.0859375 12.59765625 3.0859375 12.59765625 2.375 10.0625 C2.13523437 9.22847656 1.89546875 8.39445312 1.6484375 7.53515625 C1.00909874 5.0355728 0.48059759 2.53447218 0 0 Z " fill="#DCBD6F" transform="translate(630,80)"/>
<path d="M0 0 C7.02505479 5.45031822 13.24173593 11.15449663 18.13427734 18.63720703 C17.80427734 19.29720703 17.47427734 19.95720703 17.13427734 20.63720703 C14.51035377 18.66926435 12.30434286 16.85699509 10.29052734 14.25439453 C7.35094099 10.68641834 3.85264393 8.18157946 0.18115234 5.40673828 C-0.49431641 4.82279297 -1.16978516 4.23884766 -1.86572266 3.63720703 C-1.86572266 2.97720703 -1.86572266 2.31720703 -1.86572266 1.63720703 C-2.85572266 1.63720703 -3.84572266 1.63720703 -4.86572266 1.63720703 C-4.86572266 0.97720703 -4.86572266 0.31720703 -4.86572266 -0.36279297 C-5.46384766 -0.48654297 -6.06197266 -0.61029297 -6.67822266 -0.73779297 C-8.86572266 -1.36279297 -8.86572266 -1.36279297 -11.86572266 -3.36279297 C-16.17944362 -5.82777638 -20.18101915 -7.01094004 -25.01025391 -7.93310547 C-26.86572266 -8.36279297 -26.86572266 -8.36279297 -27.86572266 -9.36279297 C-29.24830493 -9.46181575 -30.6358503 -9.49358908 -32.02197266 -9.49560547 C-32.88048828 -9.49689453 -33.73900391 -9.49818359 -34.62353516 -9.49951172 C-35.98091797 -9.49371094 -35.98091797 -9.49371094 -37.36572266 -9.48779297 C-38.23970703 -9.49166016 -39.11369141 -9.49552734 -40.01416016 -9.49951172 C-45.09236436 -9.49197729 -49.95735198 -9.19833368 -54.97314453 -8.38183594 C-56.86572266 -8.36279297 -56.86572266 -8.36279297 -59.86572266 -10.36279297 C-40.24018138 -16.17776816 -16.49704257 -12.05005125 0 0 Z " fill="#DBBC6A" transform="translate(611.86572265625,59.36279296875)"/>
<path d="M0 0 C3.9054743 0.57858879 6.19600103 2.26979048 9 5 C11.59472142 10.18944284 11.1533113 15.32748195 11 21 C19.415 20.505 19.415 20.505 28 20 C27.505 17.525 27.505 17.525 27 15 C26.93298494 12.56333235 26.91471979 10.12498258 26.9375 7.6875 C26.94652344 6.43324219 26.95554687 5.17898437 26.96484375 3.88671875 C26.97644531 2.93410156 26.98804688 1.98148438 27 1 C27.99 0.67 28.98 0.34 30 0 C29.97679687 1.02480469 29.95359375 2.04960937 29.9296875 3.10546875 C29.91091964 4.46613851 29.89272053 5.8268162 29.875 7.1875 C29.85824219 7.86103516 29.84148438 8.53457031 29.82421875 9.22851562 C29.78406436 13.34434026 30.35925981 16.25988751 32 20 C32 21.32 32 22.64 32 24 C24.08 24 16.16 24 8 24 C8.061875 21.97875 8.12375 19.9575 8.1875 17.875 C8.17229264 10.86440755 7.14257525 7.29205724 2.3125 2.125 C1.549375 1.42375 0.78625 0.7225 0 0 Z " fill="#DBB452" transform="translate(534,148)"/>
<path d="M0 0 C0 0.33 0 0.66 0 1 C-1.65 1 -3.3 1 -5 1 C-5 4.63 -5 8.26 -5 12 C-7.31 12 -9.62 12 -12 12 C-11.91621094 12.57363281 -11.83242188 13.14726562 -11.74609375 13.73828125 C-10.60702721 23.24011483 -11.39188231 32.47282291 -12 42 C-24.21 42 -36.42 42 -49 42 C-49 38.7 -49 35.4 -49 32 C-48.67 32 -48.34 32 -48 32 C-48 34.97 -48 37.94 -48 41 C-36.45 41 -24.9 41 -13 41 C-13.11838842 30.4096777 -13.11838842 30.4096777 -13.27026367 19.81982422 C-13.27903444 18.48145265 -13.28667698 17.14307302 -13.29296875 15.8046875 C-13.30831665 15.122854 -13.32366455 14.44102051 -13.33947754 13.73852539 C-13.34248884 8.17967286 -12.0030914 4.14123564 -8.1875 0.0625 C-5.17057509 -1.40286353 -3.18358402 -0.795896 0 0 Z " fill="#D2E9F3" transform="translate(510,130)"/>
<path d="M0 0 C0 0.66 0 1.32 0 2 C1.32 2.33 2.64 2.66 4 3 C4 3.66 4 4.32 4 5 C-0.455 5.495 -0.455 5.495 -5 6 C-5.33 7.32 -5.66 8.64 -6 10 C-7.258125 10.185625 -8.51625 10.37125 -9.8125 10.5625 C-10.87404297 10.71912109 -10.87404297 10.71912109 -11.95703125 10.87890625 C-14 11 -14 11 -17 10 C-17 8.68 -17 7.36 -17 6 C-18.0725 6.020625 -19.145 6.04125 -20.25 6.0625 C-23.14790424 6.0142016 -25.28612141 5.86844115 -28 5 C-28 3.68 -28 2.36 -28 1 C-27.02160156 1.2165625 -27.02160156 1.2165625 -26.0234375 1.4375 C-17.37088977 3.53141577 -17.37088977 3.53141577 -9 1.5 C-5.70101843 -0.14949078 -3.63415856 -0.25958275 0 0 Z " fill="#F6FAF9" transform="translate(500,234)"/>
<path d="M0 0 C3.60536875 3.10807651 5.88594448 6.37175464 7 11 C7.7525196 21.49496081 7.7525196 21.49496081 6 25 C6.83144531 24.4225 7.66289062 23.845 8.51953125 23.25 C10.14955078 22.13625 10.14955078 22.13625 11.8125 21 C12.89144531 20.2575 13.97039062 19.515 15.08203125 18.75 C18 17 18 17 21 17 C21 19.64 21 22.28 21 25 C12.585 25.495 12.585 25.495 4 26 C4.125 17.75 4.125 17.75 4.18017578 15.17089844 C4.28292975 9.77892836 4.28292975 9.77892836 2 5 C1.34 4.67 0.68 4.34 0 4 C0 6.97 0 9.94 0 13 C-0.66 13 -1.32 13 -2 13 C-4.1875 10.1875 -4.1875 10.1875 -6 7 C-5.67 6.01 -5.34 5.02 -5 4 C-3.68 4 -2.36 4 -1 4 C-0.67 2.68 -0.34 1.36 0 0 Z " fill="#DFEDF4" transform="translate(408,127)"/>
<path d="M0 0 C0.99 0.33 1.98 0.66 3 1 C1.53380812 5.56807759 -1.07088232 8.76571317 -4.1875 12.3125 C-4.64447266 12.84294922 -5.10144531 13.37339844 -5.57226562 13.91992188 C-6.53067909 15.02987366 -7.4935086 16.1360242 -8.46020508 17.23876953 C-9.51179106 18.44158249 -10.5555882 19.65123829 -11.5925293 20.86669922 C-16.29029528 26.33753257 -21.31343007 31.42960687 -26.4375 36.5 C-27.26443359 37.32242188 -28.09136719 38.14484375 -28.94335938 38.9921875 C-30.95994959 40.99712113 -32.97885236 42.99966253 -35 45 C-35.66 44.67 -36.32 44.34 -37 44 C-35.74155722 40.11980141 -34.57583797 38.0588158 -31 36 C-30.01 36 -29.02 36 -28 36 C-28 35.01 -28 34.02 -28 33 C-26.37064759 31.62131719 -24.70250393 30.28725907 -23 29 C-22.67 28.34 -22.34 27.68 -22 27 C-21.34 27 -20.68 27 -20 27 C-20 26.01 -20 25.02 -20 24 C-17 22 -17 22 -14 22 C-13.67 20.35 -13.34 18.7 -13 17 C-12.01 16.67 -11.02 16.34 -10 16 C-10 15.01 -10 14.02 -10 13 C-9.34 13 -8.68 13 -8 13 C-8 12.01 -8 11.02 -8 10 C-4.66666667 7 -4.66666667 7 -2 7 C-2 6.34 -2 5.68 -2 5 C-1.34 5 -0.68 5 0 5 C0 3.35 0 1.7 0 0 Z " fill="#6A9CD5" transform="translate(620,190)"/>
<path d="M0 0 C0.66 0 1.32 0 2 0 C5.54801062 7.83519011 6.55537773 15.46707896 3.5 23.6875 C3.005 24.780625 2.51 25.87375 2 27 C1.34 25.68 0.68 24.36 0 23 C-0.66 23 -1.32 23 -2 23 C-1.7525 24.0725 -1.505 25.145 -1.25 26.25 C-1 30 -1 30 -2.9375 32.4375 C-3.618125 32.953125 -4.29875 33.46875 -5 34 C-7 32 -7 32 -7.265625 29.9765625 C-7.26046875 29.20054687 -7.2553125 28.42453125 -7.25 27.625 C-7.25515625 26.85414063 -7.2603125 26.08328125 -7.265625 25.2890625 C-7 23 -7 23 -5.9921875 21.1015625 C-4.64150822 18.24067489 -4.80664543 15.89431034 -4.875 12.75 C-4.89304687 11.67234375 -4.91109375 10.5946875 -4.9296875 9.484375 C-4.95289063 8.66453125 -4.97609375 7.8446875 -5 7 C-4.34 7.33 -3.68 7.66 -3 8 C-2.77488869 10.02600175 -2.5559122 12.05459276 -2.44140625 14.08984375 C-2.13657296 16.40424812 -2.13657296 16.40424812 1 18 C3.35159273 14.68010438 3.0349019 11.95798331 2.42578125 8.0390625 C1.84748315 5.2695982 0.99244005 2.6465068 0 0 Z " fill="#F3F8F9" transform="translate(605,144)"/>
<path d="M0 0 C0 0.33 0 0.66 0 1 C-1.65 1 -3.3 1 -5 1 C-5 3.64 -5 6.28 -5 9 C-5.93972656 9.50660156 -5.93972656 9.50660156 -6.8984375 10.0234375 C-8.12433594 10.69246094 -8.12433594 10.69246094 -9.375 11.375 C-10.18710937 11.81585938 -10.99921875 12.25671875 -11.8359375 12.7109375 C-14.10814302 13.9443893 -14.10814302 13.9443893 -16 16 C-16.33 14.02 -16.66 12.04 -17 10 C-18.65 10.33 -20.3 10.66 -22 11 C-20.01080958 5.93660622 -16.37112454 3.72436768 -11.6875 1.25 C-7.42222154 -0.19585711 -4.46219527 -0.23485238 0 0 Z " fill="#E6EFEE" transform="translate(488,197)"/>
<path d="M0 0 C0 1.65 0 3.3 0 5 C5.445 5.495 5.445 5.495 11 6 C11.33 7.65 11.66 9.3 12 11 C10.3743193 10.69106068 8.74947252 10.3777305 7.125 10.0625 C6.22007812 9.88847656 5.31515625 9.71445313 4.3828125 9.53515625 C2 9 2 9 0 8 C0 7.34 0 6.68 0 6 C-6.6 6 -13.2 6 -20 6 C-13.41203838 -0.58796162 -8.73424943 -0.15323245 0 0 Z " fill="#F7FBF9" transform="translate(592,136)"/>
<path d="M0 0 C0.99 0.33 1.98 0.66 3 1 C3 1.99 3 2.98 3 4 C6.3 4 9.6 4 13 4 C13 4.66 13 5.32 13 6 C11.91332031 6.14695312 11.91332031 6.14695312 10.8046875 6.296875 C4.78215847 7.22835949 1.04830582 8.47792617 -4 12 C-7.375 12.25 -7.375 12.25 -10 12 C-10 8.07103605 -8.99700137 4.80106772 -8 1 C-6.865625 1.020625 -5.73125 1.04125 -4.5625 1.0625 C-1.18424326 1.41577477 -1.18424326 1.41577477 0 0 Z " fill="#E5ECF0" transform="translate(513,95)"/>
<path d="M0 0 C0.33 0 0.66 0 1 0 C1.04898437 0.62648438 1.09796875 1.25296875 1.1484375 1.8984375 C1.22320312 2.71570313 1.29796875 3.53296875 1.375 4.375 C1.44460938 5.18710937 1.51421875 5.99921875 1.5859375 6.8359375 C1.82892588 9.20334191 1.82892588 9.20334191 4 11 C4.66 11 5.32 11 6 11 C6 11.66 6 12.32 6 13 C6.66 13 7.32 13 8 13 C7.39301257 17.12751449 5.96189209 20.3321148 4 24 C2.68528432 23.71848913 1.37324233 23.42446661 0.0625 23.125 C-0.66839844 22.96257812 -1.39929688 22.80015625 -2.15234375 22.6328125 C-4 22 -4 22 -5 20 C-4.566875 19.071875 -4.13375 18.14375 -3.6875 17.1875 C-1.18074991 11.78303879 -0.74820765 5.85362453 0 0 Z " fill="#EEF1EA" transform="translate(498,261)"/>
<path d="M0 0 C1.45823212 -0.0270043 2.91660675 -0.04639787 4.375 -0.0625 C5.18710937 -0.07410156 5.99921875 -0.08570313 6.8359375 -0.09765625 C9 0 9 0 11 1 C11 3.31 11 5.62 11 8 C14.3 8 17.6 8 21 8 C21 8.66 21 9.32 21 10 C13.01651507 11.5206638 7.52722526 10.8101641 0 8 C0 5.36 0 2.72 0 0 Z " fill="#F2F9F7" transform="translate(483,198)"/>
<path d="M0 0 C-26.60714286 22.1530837 -26.60714286 22.1530837 -40 30 C-39.67 28.68 -39.34 27.36 -39 26 C-38.01 26 -37.02 26 -36 26 C-35.67 24.68 -35.34 23.36 -35 22 C-33.35 21.67 -31.7 21.34 -30 21 C-30 20.34 -30 19.68 -30 19 C-29.01 19 -28.02 19 -27 19 C-27 18.34 -27 17.68 -27 17 C-26.13375 16.690625 -26.13375 16.690625 -25.25 16.375 C-22.71880166 15.06273203 -22.71880166 15.06273203 -21.125 11.9375 C-19 9 -19 9 -15.75 8.125 C-14.8425 8.08375 -13.935 8.0425 -13 8 C-13 7.34 -13 6.68 -13 6 C-4.68292683 -1.56097561 -4.68292683 -1.56097561 0 0 Z " fill="#669AD4" transform="translate(576,243)"/>
<path d="M0 0 C4.62543521 1.97009278 5.28898966 3.94455465 7.375 8.4375 C7.87 9.4275 7.87 9.4275 8.375 10.4375 C8.88002343 15.96792052 9.11307257 20.84780524 6.75 25.9375 C2.72364697 30.17576634 -0.37263159 32.6532192 -6.3125 32.875 C-9.15526429 32.87009022 -10.21666883 32.78994479 -12.39453125 30.91015625 C-12.80058594 30.42417969 -13.20664062 29.93820313 -13.625 29.4375 C-12.82835937 29.49550781 -12.03171875 29.55351562 -11.2109375 29.61328125 C-4.12637655 30.12282211 -4.12637655 30.12282211 2 27.125 C5.92681055 22.68150385 6.70079081 20.44355484 6.5703125 14.73046875 C6.31382659 11.71932422 5.61357495 9.18988877 4.375 6.4375 C3.715 6.1075 3.055 5.7775 2.375 5.4375 C2.375 4.7775 2.375 4.1175 2.375 3.4375 C-2.21034607 2.25418488 -6.93332668 1.67035892 -11.625 2.4375 C-13.5811833 3.60803565 -15.23410704 4.93479464 -16.984375 6.390625 C-18.625 7.4375 -18.625 7.4375 -22.0625 7.25 C-23.3309375 6.8478125 -23.3309375 6.8478125 -24.625 6.4375 C-24.625 6.1075 -24.625 5.7775 -24.625 5.4375 C-23.449375 5.19 -22.27375 4.9425 -21.0625 4.6875 C-18.01230797 3.94512522 -15.65159928 2.98532102 -13 1.3125 C-8.18383267 -1.36314852 -5.30361214 -0.8229743 0 0 Z " fill="#A9CEE2" transform="translate(527.625,101.5625)"/>
<path d="M0 0 C1.65 0 3.3 0 5 0 C4.125 7.625 4.125 7.625 3 11 C2.01 11 1.02 11 0 11 C0 12.65 0 14.3 0 16 C-1.26839526 16.50615298 -2.53983102 17.00469099 -3.8125 17.5 C-4.52019531 17.7784375 -5.22789062 18.056875 -5.95703125 18.34375 C-8 19 -8 19 -11 19 C-11.1875 16.125 -11.1875 16.125 -11 13 C-7.3558226 10.5705484 -5.28758728 10.83820425 -1 11 C-1.020625 9.741875 -1.04125 8.48375 -1.0625 7.1875 C-1.10886083 4.35948913 -0.91692961 2.75078884 0 0 Z " fill="#F9FBF7" transform="translate(538,120)"/>
<path d="M0 0 C0.62092529 0.32145996 1.24185059 0.64291992 1.8815918 0.97412109 C6.23026846 2.40472779 10.34281678 2.35658573 14.89453125 2.4140625 C15.84188644 2.43342865 16.78924164 2.4527948 17.76530457 2.4727478 C20.78094577 2.53236371 23.79662552 2.57885705 26.8125 2.625 C28.86134446 2.66319633 30.91017314 2.70224902 32.95898438 2.7421875 C37.97257259 2.83965702 42.98599971 2.91936859 48 3 C48 9.6 48 16.2 48 23 C46.515 22.505 45.03 22.01 43.5 21.5 C36.129866 19.30663149 30.28187698 19.57270767 23 22 C23 21.34 23 20.68 23 20 C27.55110111 18.23670968 31.31761501 17.75508442 36.1875 17.8125 C37.39792969 17.81894531 38.60835938 17.82539063 39.85546875 17.83203125 C43 18 43 18 46 19 C46.33 14.38 46.66 9.76 47 5 C32.15 4.67 17.3 4.34 2 4 C1.34 2.68 0.68 1.36 0 0 Z " fill="#B6CE94" transform="translate(450,178)"/>
<path d="M0 0 C0 6.93 0 13.86 0 21 C-1.32 21 -2.64 21 -4 21 C-4 22.65 -4 24.3 -4 26 C-4.33 26 -4.66 26 -5 26 C-5.125 18.375 -5.125 18.375 -4 15 C-3.51779943 10.93892634 -3.51779943 10.93892634 -4 7 C-6.72150183 4.51893124 -6.72150183 4.51893124 -10 3 C-10.99 2.34 -11.98 1.68 -13 1 C-7.68578267 -0.53121516 -5.61318624 -1.12263725 0 0 Z " fill="#D9E9F6" transform="translate(537,153)"/>
<path d="M0 0 C3.0625 1.125 3.0625 1.125 5.0625 3.125 C7.13124034 3.7675235 7.13124034 3.7675235 9.0625 4.125 C9.5575 6.6 9.5575 6.6 10.0625 9.125 C9.44761719 8.77566406 8.83273437 8.42632812 8.19921875 8.06640625 C7.39097656 7.61136719 6.58273437 7.15632812 5.75 6.6875 C4.94949219 6.23503906 4.14898438 5.78257812 3.32421875 5.31640625 C-2.46255886 2.26810371 -8.55063926 2.45985947 -14.9375 3.125 C-20.71986604 5.25776458 -24.3024339 9.3138831 -27.9375 14.125 C-28.5975 14.785 -29.2575 15.445 -29.9375 16.125 C-30.31808069 12.794919 -30.12230641 11.40563196 -28.25 8.5625 C-24.12018001 4.2094465 -20.73193406 1.79894762 -14.9375 0.125 C-10.52893704 -2.07928148 -4.6479418 -1.24010212 0 0 Z " fill="#DBBA62" transform="translate(593.9375,131.875)"/>
<path d="M0 0 C0.99 0.33 1.98 0.66 3 1 C2.67 1.99 2.34 2.98 2 4 C1.77820215 5.89212737 1.59385985 7.78884472 1.4375 9.6875 C1.35371094 10.68136719 1.26992188 11.67523438 1.18359375 12.69921875 C1.12300781 13.45847656 1.06242187 14.21773437 1 15 C1.804375 14.979375 2.60875 14.95875 3.4375 14.9375 C6 15 6 15 7 16 C7.14193337 19.00331018 7.04236378 21.99217134 7 25 C3.37 25 -0.26 25 -4 25 C-4 23.02 -4 21.04 -4 19 C-2.68 19.33 -1.36 19.66 0 20 C0 13.4 0 6.8 0 0 Z " fill="#E9EAE8" transform="translate(498,181)"/>
<path d="M0 0 C2.4375 1 2.4375 1 4 2 C1 3 1 3 -1.875 2.25 C-5.19037925 1.62572801 -5.19037925 1.62572801 -7.8125 4.25 C-11.21391805 8.52606841 -11.19248642 12.26800125 -11.31640625 17.51171875 C-11.33505737 18.15741821 -11.3537085 18.80311768 -11.3729248 19.46838379 C-11.44109373 21.87462001 -11.50132457 24.28107583 -11.5625 26.6875 C-11.706875 32.070625 -11.85125 37.45375 -12 43 C-23.55 43 -35.1 43 -47 43 C-47 40.36 -47 37.72 -47 35 C-46.67 35 -46.34 35 -46 35 C-45.34 36.98 -44.68 38.96 -44 41 C-33.77 41.33 -23.54 41.66 -13 42 C-13.05220703 38.29716797 -13.05220703 38.29716797 -13.10546875 34.51953125 C-13.12888687 32.12004756 -13.14709056 29.72057677 -13.16479492 27.32104492 C-13.17985114 25.65757519 -13.20030063 23.99414495 -13.22631836 22.33081055 C-13.26284207 19.93528478 -13.27975782 17.54028533 -13.29296875 15.14453125 C-13.30845261 14.4047554 -13.32393646 13.66497955 -13.33988953 12.90278625 C-13.34134432 8.40633722 -12.80390758 5.554405 -10 2 C-6.29873141 -0.46751239 -4.37776468 -0.30721156 0 0 Z " fill="#A5CBDF" transform="translate(509,128)"/>
<path d="M0 0 C3 1 3 1 4.1796875 2.546875 C5.36549312 6.09299848 5.20978989 9.55837849 5.125 13.25 C5.11597656 13.99507812 5.10695313 14.74015625 5.09765625 15.5078125 C5.07418358 17.33868059 5.03831525 19.16938238 5 21 C2.625 21.1875 2.625 21.1875 0 21 C-2.13586678 17.79619983 -2.23132175 16.98060033 -2.125 13.3125 C-2.10695313 12.50425781 -2.08890625 11.69601563 -2.0703125 10.86328125 C-2.04710937 10.24839844 -2.02390625 9.63351563 -2 9 C-1.34 9 -0.68 9 0 9 C0 6.03 0 3.06 0 0 Z " fill="#E8EBE5" transform="translate(408,131)"/>
<path d="M0 0 C2.64 0.33 5.28 0.66 8 1 C8 4.63 8 8.26 8 12 C6.68 12 5.36 12 4 12 C3.67 15.63 3.34 19.26 3 23 C1.02 23 -0.96 23 -3 23 C-2.01 21.63875 -2.01 21.63875 -1 20.25 C2.21724066 14.69088098 1.8298649 7.77494937 0.48046875 1.63671875 C0.32191406 1.09660156 0.16335938 0.55648437 0 0 Z " fill="#DBECF4" transform="translate(534,108)"/>
<path d="M0 0 C3.63 0 7.26 0 11 0 C11 2.97 11 5.94 11 9 C7.37 9.33 3.74 9.66 0 10 C0 6.7 0 3.4 0 0 Z " fill="#E6ECE7" transform="translate(429,143)"/>
<path d="M0 0 C1.2375 0.495 2.475 0.99 3.75 1.5 C10.52834163 3.77735091 18.10888407 4.02968735 25 2 C25 2.66 25 3.32 25 4 C24.01 4.33 23.02 4.66 22 5 C23.65 5.99 25.3 6.98 27 8 C24.25060937 9.37469531 22.78870222 8.33943655 19.98046875 7.48828125 C13.25027783 5.82896396 6.59584183 7.48620023 0 9 C0 6.03 0 3.06 0 0 Z " fill="#D5B664" transform="translate(507,139)"/>
<path d="M0 0 C0.33 0 0.66 0 1 0 C1 2.31 1 4.62 1 7 C1.61746094 6.71125 2.23492187 6.4225 2.87109375 6.125 C8.54428332 3.63812238 13.75691017 1.84287559 20 3 C20.66 3.66 21.32 4.32 22 5 C21.34 5 20.68 5 20 5 C20 6.65 20 8.3 20 10 C16.7 10 13.4 10 10 10 C9.67 9.01 9.34 8.02 9 7 C4.545 7.495 4.545 7.495 0 8 C0 5.36 0 2.72 0 0 Z " fill="#E9E8E1" transform="translate(506,89)"/>
<path d="M0 0 C8.42536441 3.16320699 16.04461886 8.34570592 21 16 C21.90750204 19.53305761 22.07007734 22.66853048 21.87890625 26.30078125 C21.83056641 27.27724609 21.78222656 28.25371094 21.73242188 29.25976562 C21.67634766 30.26716797 21.62027344 31.27457031 21.5625 32.3125 C21.51029297 33.33923828 21.45808594 34.36597656 21.40429688 35.42382812 C21.27507334 37.94956087 21.14012709 40.47485261 21 43 C20.67 43 20.34 43 20 43 C19.21011619 39.58338173 18.92847503 36.59101059 19.11328125 33.09375 C19.14357422 32.18496094 19.17386719 31.27617188 19.20507812 30.33984375 C19.27672441 28.44577642 19.36789921 26.55234764 19.47851562 24.66015625 C19.7675283 19.64910255 19.7675283 19.64910255 17.64208984 15.3359375 C16.1433988 14.15918097 14.57457291 13.07310342 13 12 C13 11.01 13 10.02 13 9 C11.02 8.34 9.04 7.68 7 7 C7 6.34 7 5.68 7 5 C5.68 4.67 4.36 4.34 3 4 C3 3.34 3 2.68 3 2 C2.01 2 1.02 2 0 2 C0 1.34 0 0.68 0 0 Z " fill="#AED1E3" transform="translate(475,55)"/>
<path d="M0 0 C1.64574566 -0.02688151 3.29161413 -0.04634123 4.9375 -0.0625 C5.85402344 -0.07410156 6.77054688 -0.08570313 7.71484375 -0.09765625 C10 0 10 0 11 1 C12.68183948 1.23287008 14.3712416 1.41264166 16.0625 1.5625 C16.98160156 1.64628906 17.90070312 1.73007813 18.84765625 1.81640625 C19.91306641 1.90728516 19.91306641 1.90728516 21 2 C21.33 3.98 21.66 5.96 22 8 C17.37301506 9.10166308 14.32207132 9.11077902 10 7 C9.67 5.68 9.34 4.36 9 3 C6.03 2.67 3.06 2.34 0 2 C0 1.34 0 0.68 0 0 Z " fill="#E6E8E6" transform="translate(549,172)"/>
<path d="M0 0 C0.66 0.66 1.32 1.32 2 2 C-2.62 2 -7.24 2 -12 2 C-12.33 2.99 -12.66 3.98 -13 5 C-13.99 5.495 -13.99 5.495 -15 6 C-17.45596075 12.30506882 -17.01272949 18.4446294 -16 25 C-19.32099559 21.82339552 -20.17853864 19.91654051 -20.3125 15.3125 C-20.23301325 10.3048345 -19.4895576 6.70520442 -16 3 C-10.69478422 -1.06107226 -6.39320826 -1.5431882 0 0 Z " fill="#5F93CC" transform="translate(490,207)"/>
<path d="M0 0 C2.31 0 4.62 0 7 0 C7 3.63 7 7.26 7 11 C3.37 11 -0.26 11 -4 11 C-4 10.34 -4 9.68 -4 9 C-2.68 9 -1.36 9 0 9 C0 6.03 0 3.06 0 0 Z " fill="#F8FDFD" transform="translate(498,163)"/>
<path d="M0 0 C0 0.33 0 0.66 0 1 C-1.134375 1.12375 -2.26875 1.2475 -3.4375 1.375 C-5.2009375 1.684375 -5.2009375 1.684375 -7 2 C-7.33 2.66 -7.66 3.32 -8 4 C-9.299375 4.5878125 -9.299375 4.5878125 -10.625 5.1875 C-13.84518808 6.91686027 -14.89579306 7.97748372 -17.125 10.6875 C-19.50919871 13.24930267 -20.59505653 13.94106218 -24.11328125 14.453125 C-27.10519849 14.43906193 -30.02480292 14.30777901 -33 14 C-33 13.01 -33 12.02 -33 11 C-32.3709375 11.0928125 -31.741875 11.185625 -31.09375 11.28125 C-27.00180104 11.62635413 -24.14916079 11.86187059 -20.765625 9.32421875 C-19.41921225 7.89691686 -18.09477273 6.44857105 -16.79296875 4.98046875 C-11.95033215 -0.36858736 -6.72997268 -0.40379836 0 0 Z " fill="#BAD393" transform="translate(440,152)"/>
<path d="M0 0 C0 2.64 0 5.28 0 8 C-4.95 10.475 -4.95 10.475 -10 13 C-11.6415049 9.7169902 -10.51888624 6.57454967 -10 3 C-9.443125 2.87625 -8.88625 2.7525 -8.3125 2.625 C-5.6504688 1.90553211 -2.72340102 0 0 0 Z " fill="#E2E6E0" transform="translate(386,120)"/>
<path d="M0 0 C0.99 0.66 1.98 1.32 3 2 C3.36328125 5.265625 3.36328125 5.265625 3.3125 9.25 C3.30863281 10.55453125 3.30476562 11.8590625 3.30078125 13.203125 C3.01358121 16.82855925 2.28108155 19.61854056 1 23 C0.7834375 24.1446875 0.7834375 24.1446875 0.5625 25.3125 C0.376875 25.869375 0.19125 26.42625 0 27 C-0.99 27.33 -1.98 27.66 -3 28 C-3.433125 28.845625 -3.86625 29.69125 -4.3125 30.5625 C-4.869375 31.366875 -5.42625 32.17125 -6 33 C-9.1875 33.3125 -9.1875 33.3125 -12 33 C-10.37660195 31.29115995 -8.70680947 29.62553283 -7 28 C-6.34 28 -5.68 28 -5 28 C-4.289999 26.68922893 -3.63960014 25.3465266 -3 24 C-2.46375 22.9275 -1.9275 21.855 -1.375 20.75 C1.09873046 14.23625749 0.22434272 6.84660756 0 0 Z " fill="#DAB85E" transform="translate(544,108)"/>
<path d="M0 0 C2.8033072 2.8033072 2.3421453 5.48213213 2.37109375 9.23828125 C2.38012222 9.95606247 2.3891507 10.67384369 2.39845276 11.41337585 C2.41297036 12.93398867 2.42184575 14.45466416 2.42553711 15.9753418 C2.43740474 18.29389003 2.48654146 20.60975066 2.53710938 22.92773438 C2.54657726 24.40623703 2.55381055 25.88475602 2.55859375 27.36328125 C2.57812607 28.05303543 2.59765839 28.74278961 2.61778259 29.45344543 C2.58206401 33.29610751 2.0785442 34.90079967 -0.33569336 37.94995117 C-3 40 -3 40 -6.1875 40.4375 C-9 40 -9 40 -11 38 C-6.05 37.505 -6.05 37.505 -1 37 C0.23333188 24.66668119 0.09840912 12.38289517 0 0 Z " fill="#E4F9FE" transform="translate(505,171)"/>
<path d="M0 0 C4.3890815 0.51035831 7.33708062 1.52214277 11 4 C10.67 5.65 10.34 7.3 10 9 C6.7 9 3.4 9 0 9 C0 6.03 0 3.06 0 0 Z " fill="#F8FDFC" transform="translate(440,143)"/>
<path d="M0 0 C3.63 0 7.26 0 11 0 C11 2.64 11 5.28 11 8 C7.37 8 3.74 8 0 8 C0 5.36 0 2.72 0 0 Z " fill="#EBECE8" transform="translate(516,133)"/>
<path d="M0 0 C2.97 0 5.94 0 9 0 C9.3403125 1.2065625 9.3403125 1.2065625 9.6875 2.4375 C10.120625 3.283125 10.55375 4.12875 11 5 C13.54775306 5.89386164 13.54775306 5.89386164 16 6 C16 6.33 16 6.66 16 7 C10.39 7 4.78 7 -1 7 C-0.67 4.69 -0.34 2.38 0 0 Z " fill="#F5FCFC" transform="translate(549,174)"/>
<path d="M0 0 C4.24471668 3.43619922 5.75970187 7.78010303 6.328125 13.03125 C6.5598827 20.11641395 5.90628083 25.96420822 2 32 C1.03168548 33.03071188 0.03939733 34.0410145 -1 35 C-1 33.35 -1 31.7 -1 30 C-0.01 30 0.98 30 2 30 C3.549094 19.93088901 2.70985931 9.82939877 0 0 Z " fill="#F3E7C1" transform="translate(539,101)"/>
<path d="M0 0 C1.47906892 -0.02689216 2.95827483 -0.04634621 4.4375 -0.0625 C5.26121094 -0.07410156 6.08492187 -0.08570313 6.93359375 -0.09765625 C9 0 9 0 10 1 C10.04080783 2.99958364 10.04254356 5.00045254 10 7 C8.04196493 7.05389087 6.08351091 7.09274217 4.125 7.125 C3.03445313 7.14820313 1.94390625 7.17140625 0.8203125 7.1953125 C-2 7 -2 7 -4 5 C-2.68 5 -1.36 5 0 5 C0 3.35 0 1.7 0 0 Z " fill="#DDE8EF" transform="translate(538,174)"/>
<path d="M0 0 C1.32 0.33 2.64 0.66 4 1 C3.01 2.485 3.01 2.485 2 4 C-0.32086653 8.08209148 -0.63921674 11.38850782 0 16 C0.65583207 18.33640176 1.32215008 20.66989091 2 23 C2.07403678 25.33215844 2.09515886 27.66860788 2 30 C-2.86721866 22.69917201 -4.2452877 13.63155297 -3 5 C-1.4765625 2.14453125 -1.4765625 2.14453125 0 0 Z " fill="#BCD499" transform="translate(375,132)"/>
<path d="M0 0 C0.73999023 1.72949219 0.73999023 1.72949219 1 4 C-0.53881836 6.10644531 -0.53881836 6.10644531 -2.83984375 8.328125 C-3.65517578 9.12734375 -4.47050781 9.9265625 -5.31054688 10.75 C-6.17744141 11.575 -7.04433594 12.4 -7.9375 13.25 C-9.23204102 14.51070312 -9.23204102 14.51070312 -10.55273438 15.796875 C-12.69110315 17.87617282 -14.84024089 19.94296615 -17 22 C-17.66 21.67 -18.32 21.34 -19 21 C-17.74155722 17.11980141 -16.57583797 15.0588158 -13 13 C-12.01 13 -11.02 13 -10 13 C-10 12.01 -10 11.02 -10 10 C-8.37064759 8.62131719 -6.70250393 7.28725907 -5 6 C-4.67 5.34 -4.34 4.68 -4 4 C-3.34 4 -2.68 4 -2 4 C-2 3.01 -2 2.02 -2 1 C-1.34 0.67 -0.68 0.34 0 0 Z " fill="#6196D3" transform="translate(602,213)"/>
<path d="M0 0 C0.25 3.3125 0.25 3.3125 0 7 C-1.6875 8.9375 -1.6875 8.9375 -4 10 C-6.75 10.1875 -6.75 10.1875 -9 10 C-8.73946801 4.70251618 -8.73946801 4.70251618 -8 2 C-4.87852371 -0.71075572 -3.98376104 -1.32792035 0 0 Z " fill="#F9FDF8" transform="translate(472,207)"/>
<path d="M0 0 C2.31 0 4.62 0 7 0 C7 3.3 7 6.6 7 10 C4.69 10 2.38 10 0 10 C0 6.7 0 3.4 0 0 Z " fill="#FBFCFB" transform="translate(498,142)"/>
<path d="M0 0 C5.37254676 0.61400534 8.03488794 2.88587471 11.6484375 6.7734375 C16.93558059 13.45062759 16.63308493 19.75817216 16 28 C16.99 28 17.98 28 19 28 C19 27.34 19 26.68 19 26 C19.99 26.33 20.98 26.66 22 27 C16.25 32 16.25 32 14 32 C14.05800781 31.10539062 14.11601562 30.21078125 14.17578125 29.2890625 C14.48462742 21.01198518 14.01386187 14.7849275 9 8 C6.8170134 5.75143011 4.50717278 3.86932782 2 2 C1.34 1.34 0.68 0.68 0 0 Z " fill="#ADD0E2" transform="translate(400,120)"/>
<path d="M0 0 C1.65 0 3.3 0 5 0 C6.28446919 2.56893838 6.32977144 4.76576337 6.5625 7.625 C6.64628906 8.62789063 6.73007812 9.63078125 6.81640625 10.6640625 C6.87699219 11.43492187 6.93757813 12.20578125 7 13 C6.34 13 5.68 13 5 13 C5 12.34 5 11.68 5 11 C4.34 11 3.68 11 3 11 C2.67 11.66 2.34 12.32 2 13 C0.21590198 9.93753253 -0.22880021 7.77920727 -0.125 4.25 C-0.10695313 3.45078125 -0.08890625 2.6515625 -0.0703125 1.828125 C-0.04710937 1.22484375 -0.02390625 0.6215625 0 0 Z " fill="#FDFEFC" transform="translate(499,261)"/>
<path d="M0 0 C0.33 0 0.66 0 1 0 C1 3.3 1 6.6 1 10 C7.6 10 14.2 10 21 10 C21 8.35 21 6.7 21 5 C23 8 23 8 23 12 C15.08 12 7.16 12 -1 12 C-0.67 8.04 -0.34 4.08 0 0 Z " fill="#DABE75" transform="translate(543,160)"/>
<path d="M0 0 C3.63 0 7.26 0 11 0 C11 1.98 11 3.96 11 6 C7.37 6 3.74 6 0 6 C0 4.02 0 2.04 0 0 Z " fill="#FAFCF8" transform="translate(483,174)"/>
<path d="M0 0 C3.63 0 7.26 0 11 0 C11 1.98 11 3.96 11 6 C7.37 6 3.74 6 0 6 C0 4.02 0 2.04 0 0 Z " fill="#FAFCF9" transform="translate(461,174)"/>
<path d="M0 0 C3.3 0 6.6 0 10 0 C10 2.31 10 4.62 10 7 C6.7 6.67 3.4 6.34 0 6 C0 4.02 0 2.04 0 0 Z " fill="#FDFEF9" transform="translate(387,121)"/>
<path d="M0 0 C-2.65032771 1.32516386 -4.91617889 0.95064613 -7.81591797 0.83422852 C-15.86677937 0.54055679 -20.45918397 0.89816349 -27 6 C-27.99 5.67 -28.98 5.34 -30 5 C-30 2.69 -30 0.38 -30 -2 C-29.34 -0.68 -28.68 0.64 -28 2 C-27.32195312 1.72285156 -26.64390625 1.44570312 -25.9453125 1.16015625 C-16.75158133 -2.41801336 -9.03172893 -4.90854833 0 0 Z " fill="#AAD1E4" transform="translate(400,119)"/>
<path d="M0 0 C0 0.33 0 0.66 0 1 C-0.62648438 1.13277344 -1.25296875 1.26554687 -1.8984375 1.40234375 C-2.71570313 1.57894531 -3.53296875 1.75554688 -4.375 1.9375 C-5.18710937 2.11152344 -5.99921875 2.28554688 -6.8359375 2.46484375 C-9.029463 2.92330693 -9.029463 2.92330693 -11 4 C-12.56814453 4.16822266 -12.56814453 4.16822266 -14.16796875 4.33984375 C-18.45786065 5.07887712 -21.52990785 6.510718 -25.3125 8.5625 C-31.77715264 12 -31.77715264 12 -34 12 C-34 11.34 -34 10.68 -34 10 C-22.8804314 4.0749744 -12.90755743 -0.63479791 0 0 Z " fill="#A9D0E3" transform="translate(439,48)"/>
<path d="M0 0 C0.33 0.66 0.66 1.32 1 2 C3.02463255 2.65213292 3.02463255 2.65213292 5 3 C1.4285962 4.06965312 -2.03742888 4.23890176 -5.75 4.4375 C-11.09432758 4.78337506 -15.87909762 5.46372929 -21 7 C-20.67 5.35 -20.34 3.7 -20 2 C-17.04160645 1.97310551 -14.08345573 1.95321259 -11.125 1.9375 C-10.28324219 1.92912109 -9.44148437 1.92074219 -8.57421875 1.91210938 C-7.76855469 1.90888672 -6.96289062 1.90566406 -6.1328125 1.90234375 C-5.01737061 1.89448853 -5.01737061 1.89448853 -3.87939453 1.88647461 C-2 2 -2 2 0 3 C0 2.01 0 1.02 0 0 Z " fill="#E8F5FB" transform="translate(526,150)"/>
<path d="M0 0 C1.98 1.65 3.96 3.3 6 5 C5.67 5.66 5.34 6.32 5 7 C3.35 6.67 1.7 6.34 0 6 C0 8.31 0 10.62 0 13 C-0.886875 12.21625 -1.77375 11.4325 -2.6875 10.625 C-5.30720519 8.42843009 -7.71715601 7.06209659 -11 6 C-11 5.67 -11 5.34 -11 5 C-7.7 5 -4.4 5 -1 5 C-0.67 3.35 -0.34 1.7 0 0 Z " fill="#E6F0F3" transform="translate(451,147)"/>
<path d="M0 0 C0 2.64 0 5.28 0 8 C-3.3 8 -6.6 8 -10 8 C-9 4 -9 4 -6.125 1.75 C-3 0 -3 0 0 0 Z " fill="#F6FCFD" transform="translate(429,144)"/>
<path d="M0 0 C-7.04033056 5.86694213 -11.85739601 6.82247676 -21 6 C-23.61306191 5.24530933 -25.59779319 4.31029462 -28 3 C-26.68 2.67 -25.36 2.34 -24 2 C-24 2.66 -24 3.32 -24 4 C-19.38 4 -14.76 4 -10 4 C-10 3.34 -10 2.68 -10 2 C-3.375 -1.125 -3.375 -1.125 0 0 Z " fill="#FAF3CD" transform="translate(537,137)"/>
<path d="M0 0 C-0.89203125 0.45890625 -1.7840625 0.9178125 -2.703125 1.390625 C-3.88562062 2.01002747 -5.06790098 2.62984099 -6.25 3.25 C-7.41015625 3.85328125 -8.5703125 4.4565625 -9.765625 5.078125 C-12.99986234 6.81999204 -12.99986234 6.81999204 -15.1875 9.1875 C-17.82311253 11.82311253 -20.38947739 11.72226749 -24 12 C-20.21804617 7.84640908 -16.39448967 5.22778514 -11.4375 2.625 C-10.77814453 2.25761719 -10.11878906 1.89023437 -9.43945312 1.51171875 C-5.81834278 -0.4171139 -3.90530436 -1.29837856 0 0 Z " fill="#DCBB6B" transform="translate(549,52)"/>
<path d="M0 0 C0.98484375 0.01804688 1.9696875 0.03609375 2.984375 0.0546875 C4.10585938 0.08949219 4.10585938 0.08949219 5.25 0.125 C5.25 1.115 5.25 2.105 5.25 3.125 C4.59773437 3.06699219 3.94546875 3.00898438 3.2734375 2.94921875 C-2.90644524 2.5858248 -2.90644524 2.5858248 -8.25 5.3125 C-10.5811116 7.93500055 -11.79489499 9.78213246 -12.75 13.125 C-13.08 13.125 -13.41 13.125 -13.75 13.125 C-14.09717213 9.39289965 -14.0422789 7.58429542 -12 4.375 C-8.1617643 0.5367643 -5.38917643 -0.12831372 0 0 Z " fill="#5F93CC" transform="translate(586.75,142.875)"/>
<path d="M0 0 C0.22102569 10.2531361 -0.0320296 19.89658054 -2 30 C-2.33 30 -2.66 30 -3 30 C-2.67 20.76 -2.34 11.52 -2 2 C-4.31 2.33 -6.62 2.66 -9 3 C-6.15236477 0.15236477 -3.96383452 0 0 0 Z " fill="#BBD29A" transform="translate(499,244)"/>
<path d="M0 0 C1.65 0 3.3 0 5 0 C6 1 6 1 6.1328125 2.8125 C6.13023437 3.534375 6.12765625 4.25625 6.125 5 C6.12757813 5.721875 6.13015625 6.44375 6.1328125 7.1875 C6 9 6 9 5 10 C3.35 10 1.7 10 0 10 C0 6.7 0 3.4 0 0 Z " fill="#FBFDF9" transform="translate(499,185)"/>
<path d="M0 0 C4.71969675 2.7269359 7.22824275 4.78315922 9 10 C9.53806623 14.91092195 9.47422411 18.64299977 7 23 C7 20.36 7 17.72 7 15 C6.34 15 5.68 15 5 15 C5 12.36 5 9.72 5 7 C4.34 7 3.68 7 3 7 C3 6.01 3 5.02 3 4 C2.34 4 1.68 4 1 4 C0.67 2.68 0.34 1.36 0 0 Z " fill="#FAF2CE" transform="translate(534,149)"/>
<path d="M0 0 C11.89832241 0.08191616 11.89832241 0.08191616 16.08203125 4.265625 C18.15077159 4.9081485 18.15077159 4.9081485 20.08203125 5.265625 C20.41203125 6.915625 20.74203125 8.565625 21.08203125 10.265625 C20.47875 9.92789063 19.87546875 9.59015625 19.25390625 9.2421875 C18.4546875 8.79617187 17.65546875 8.35015625 16.83203125 7.890625 C16.043125 7.44976562 15.25421875 7.00890625 14.44140625 6.5546875 C13.6628125 6.12929687 12.88421875 5.70390625 12.08203125 5.265625 C11.45296875 4.894375 10.82390625 4.523125 10.17578125 4.140625 C7.38706603 2.97519178 4.84038291 2.83682185 1.83203125 2.640625 C0.754375 2.56585938 -0.32328125 2.49109375 -1.43359375 2.4140625 C-2.2534375 2.36507812 -3.07328125 2.31609375 -3.91796875 2.265625 C-1.91796875 0.265625 -1.91796875 0.265625 0 0 Z " fill="#DBB556" transform="translate(582.91796875,130.734375)"/>
<path d="M0 0 C0 3.96371154 -1.49924573 4.99909488 -4 8 C-4.515625 8.86625 -5.03125 9.7325 -5.5625 10.625 C-6.87941551 12.80077344 -8.04586559 14.38571505 -10 16 C-10.66 16 -11.32 16 -12 16 C-12.33 17.32 -12.66 18.64 -13 20 C-13.66 20 -14.32 20 -15 20 C-13.52801986 15.71068153 -11.34897548 12.48585122 -8.625 8.875 C-7.85414063 7.84117188 -7.08328125 6.80734375 -6.2890625 5.7421875 C-4.31013692 3.37152921 -2.55659642 1.69272366 0 0 Z " fill="#DABB65" transform="translate(524,64)"/>
<path d="M0 0 C0.99 0.33 1.98 0.66 3 1 C2.113125 1.639375 1.22625 2.27875 0.3125 2.9375 C-4.1092964 6.73961472 -7.5722085 10.98610484 -8.21044922 16.97460938 C-8.4228032 21.66118789 -8.25849205 26.31842183 -8 31 C-10.50577842 28.49422158 -10.28673131 26.9059617 -10.32226562 23.47851562 C-10.31904297 22.76373047 -10.31582031 22.04894531 -10.3125 21.3125 C-10.32861328 20.61705078 -10.34472656 19.92160156 -10.36132812 19.20507812 C-10.366096 14.09868484 -9.2705111 10.57097617 -7 6 C-6.34 6 -5.68 6 -5 6 C-4.67 5.01 -4.34 4.02 -4 3 C-3.34 3 -2.68 3 -2 3 C-2 2.34 -2 1.68 -2 1 C-1.34 0.67 -0.68 0.34 0 0 Z " fill="#B7D093" transform="translate(470,200)"/>
<path d="M0 0 C0.99 0 1.98 0 3 0 C4.49821059 3.37097383 5 5.20442119 5 9 C3.02 9 1.04 9 -1 9 C-1.33 7.35 -1.66 5.7 -2 4 C-2.66 4.66 -3.32 5.32 -4 6 C-4.33 5.01 -4.66 4.02 -5 3 C-5.66 3 -6.32 3 -7 3 C-7 2.34 -7 1.68 -7 1 C-6.030625 1.165 -5.06125 1.33 -4.0625 1.5 C-2.04016429 1.85992293 -2.04016429 1.85992293 0 2 C0 1.34 0 0.68 0 0 Z " fill="#FCFEF7" transform="translate(536,100)"/>
<path d="M0 0 C0.99 0.33 1.98 0.66 3 1 C3 1.99 3 2.98 3 4 C6.3 4 9.6 4 13 4 C13 4.66 13 5.32 13 6 C9.37 6.33 5.74 6.66 2 7 C2 6.01 2 5.02 2 4 C-1.3 4 -4.6 4 -8 4 C-7.67 3.01 -7.34 2.02 -7 1 C-5.5459375 1.0309375 -5.5459375 1.0309375 -4.0625 1.0625 C-1.12534105 1.35618499 -1.12534105 1.35618499 0 0 Z " fill="#F7FBF6" transform="translate(513,95)"/>
<path d="M0 0 C0.33 0 0.66 0 1 0 C1.125 5.75 1.125 5.75 0 8 C-0.09608608 9.83128771 -0.12982579 11.66619959 -0.125 13.5 C-0.12757813 14.4796875 -0.13015625 15.459375 -0.1328125 16.46875 C-0.16940053 18.99431054 -0.16940053 18.99431054 1 21 C1.039992 22.99960012 1.04346799 25.00047242 1 27 C-3.52208109 20.21687836 -3.6914448 13.99670943 -3 6 C-2.25212173 3.58776835 -1.43678816 2.09531607 0 0 Z " fill="#F8EDC6" transform="translate(566,144)"/>
<path d="M0 0 C2.58926331 2.58926331 2.37398043 4.02705279 2.625 7.625 C2.69976562 8.62789062 2.77453125 9.63078125 2.8515625 10.6640625 C2.92503906 11.82035156 2.92503906 11.82035156 3 13 C5.97 13 8.94 13 12 13 C12 13.33 12 13.66 12 14 C2.99894292 14.61839323 2.99894292 14.61839323 -0.625 12.375 C-2.39575693 9.31641985 -2.43594462 7.48755699 -2 4 C-1 1.625 -1 1.625 0 0 Z " fill="#E5EFD6" transform="translate(405,150)"/>
<path d="M0 0 C0.33 0.99 0.66 1.98 1 3 C0.44570313 3.44730469 -0.10859375 3.89460938 -0.6796875 4.35546875 C-6.02849691 8.81012755 -6.02849691 8.81012755 -9 15 C-9.99 15.66 -10.98 16.32 -12 17 C-13.20482939 18.7179646 -13.20482939 18.7179646 -14.1875 20.625 C-15.0846875 22.295625 -15.0846875 22.295625 -16 24 C-16.66 23.67 -17.32 23.34 -18 23 C-13.20295346 14.15838481 -7.13476239 7.04416223 0 0 Z " fill="#ADCFE0" transform="translate(397,64)"/>
<path d="M0 0 C1.32 0 2.64 0 4 0 C4 3.63 4 7.26 4 11 C0.7 11 -2.6 11 -6 11 C-6.33 10.34 -6.66 9.68 -7 9 C-3.535 8.505 -3.535 8.505 0 8 C0 5.36 0 2.72 0 0 Z " fill="#FCFBF0" transform="translate(566,163)"/>
<path d="M0 0 C0 0.33 0 0.66 0 1 C-3.3 1 -6.6 1 -10 1 C-10 2.98 -10 4.96 -10 7 C-8.68 7.33 -7.36 7.66 -6 8 C-7.65 8 -9.3 8 -11 8 C-11.33 5.69 -11.66 3.38 -12 1 C-14.86724686 1.57344937 -15.8614515 1.8614515 -18 4 C-18.99 3.67 -19.98 3.34 -21 3 C-21.33 4.32 -21.66 5.64 -22 7 C-22.33 5.68 -22.66 4.36 -23 3 C-16.05278584 -2.73145168 -8.40644346 -0.92844274 0 0 Z " fill="#F0F8F3" transform="translate(397,120)"/>
<path d="M0 0 C0.33 0 0.66 0 1 0 C1 1.98 1 3.96 1 6 C3.31 6 5.62 6 8 6 C8 6.33 8 6.66 8 7 C1.19796625 7.37634203 -3.75690073 6.77471079 -10 4 C-10 3.01 -10 2.02 -10 1 C-7.98177083 1.32552083 -5.96354167 1.65104167 -3.9453125 1.9765625 C-2.98238281 1.98816406 -2.98238281 1.98816406 -2 2 C-1.34 1.34 -0.68 0.68 0 0 Z " fill="#E1ECD2" transform="translate(482,240)"/>
<path d="M0 0 C4.71206002 4.24223585 7.7712977 10.34705336 8.3125 16.625 C8.1578125 17.800625 8.1578125 17.800625 8 19 C2.12502303 14.54312092 1.31238885 6.85631184 0 0 Z " fill="#DCB559" transform="translate(630,80)"/>
<path d="M0 0 C0.66 0 1.32 0 2 0 C2 0.66 2 1.32 2 2 C2.66 2 3.32 2 4 2 C3.39301257 6.12751449 1.96189209 9.3321148 0 13 C-0.99 12.67 -1.98 12.34 -3 12 C-2.40075776 7.80530429 -1.42500059 3.99000166 0 0 Z " fill="#DDEBF4" transform="translate(502,272)"/>
<path d="M0 0 C0 0.33 0 0.66 0 1 C-0.72445312 1.02578125 -1.44890625 1.0515625 -2.1953125 1.078125 C-8.15830871 1.42795411 -12.43661913 1.77887269 -17 6 C-18.88568694 9.10014929 -18.88568694 9.10014929 -20 12 C-22 10 -22 10 -22.1875 7.125 C-20.8554372 3.61957158 -20.39276782 3.25086049 -17.1875 1.625 C-11.53813038 -0.58007653 -5.97346603 -0.36386595 0 0 Z " fill="#CBE1F4" transform="translate(592,142)"/>
<path d="M0 0 C1.23556641 0.01740234 1.23556641 0.01740234 2.49609375 0.03515625 C3.32238281 0.04417969 4.14867187 0.05320313 5 0.0625 C5.63808594 0.07410156 6.27617187 0.08570313 6.93359375 0.09765625 C3.76406528 3.35774268 0.53421386 6.32003502 -3.06640625 9.09765625 C-3.1640625 2.9453125 -3.1640625 2.9453125 -3.06640625 1.09765625 C-2.06640625 0.09765625 -2.06640625 0.09765625 0 0 Z " fill="#E4EDD8" transform="translate(421.06640625,152.90234375)"/>
<path d="M0 0 C5.875 4.75 5.875 4.75 7 7 C7.12199138 8.9972542 7.17547512 10.99905981 7.1875 13 C7.20167969 14.0725 7.21585937 15.145 7.23046875 16.25 C7 19 7 19 5 21 C4.34 15.72 3.68 10.44 3 5 C2.01 4.67 1.02 4.34 0 4 C0 2.68 0 1.36 0 0 Z " fill="#B8D293" transform="translate(399,131)"/>
<path d="M0 0 C0.66 0.33 1.32 0.66 2 1 C2 1.99 2 2.98 2 4 C1.34 4 0.68 4 0 4 C0 6.97 0 9.94 0 13 C-0.66 13 -1.32 13 -2 13 C-4.1875 10.1875 -4.1875 10.1875 -6 7 C-5.67 6.01 -5.34 5.02 -5 4 C-3.68 4 -2.36 4 -1 4 C-0.67 2.68 -0.34 1.36 0 0 Z " fill="#F5FAF7" transform="translate(408,127)"/>
<path d="M0 0 C1.32 0 2.64 0 4 0 C4 3.63 4 7.26 4 11 C2.68 11 1.36 11 0 11 C-0.19406478 9.35492782 -0.38007935 7.70890406 -0.5625 6.0625 C-0.66691406 5.14597656 -0.77132812 4.22945313 -0.87890625 3.28515625 C-0.91886719 2.53105469 -0.95882812 1.77695313 -1 1 C-0.67 0.67 -0.34 0.34 0 0 Z " fill="#E5E5E6" transform="translate(538,109)"/>
<path d="M0 0 C0.66 0 1.32 0 2 0 C5.18932483 7.04309234 6.67577064 14.34508157 3.98046875 21.83203125 C3.65691406 22.54746094 3.33335937 23.26289063 3 24 C2.34 23.67 1.68 23.34 1 23 C2 16 2 16 2.75 12.625 C3.07655971 7.88988422 1.74619513 4.35068956 0 0 Z " fill="#F4E9BF" transform="translate(605,144)"/>
<path d="M0 0 C0.33 0 0.66 0 1 0 C1 2.31 1 4.62 1 7 C1.61746094 6.71125 2.23492187 6.4225 2.87109375 6.125 C8.54428332 3.63812238 13.75691017 1.84287559 20 3 C20.66 3.66 21.32 4.32 22 5 C21.09636719 5.04898438 20.19273437 5.09796875 19.26171875 5.1484375 C18.08222656 5.22320312 16.90273438 5.29796875 15.6875 5.375 C13.92986328 5.47941406 13.92986328 5.47941406 12.13671875 5.5859375 C8.84300113 5.78613747 8.84300113 5.78613747 6 8 C2.8125 8.125 2.8125 8.125 0 8 C0 5.36 0 2.72 0 0 Z " fill="#F2E4B1" transform="translate(506,89)"/>
<path d="M0 0 C5.72241611 1.25893155 8.66869918 3.07161088 13 7 C13.66 7.33 14.32 7.66 15 8 C15 8.66 15 9.32 15 10 C15.66 10 16.32 10 17 10 C17 10.66 17 11.32 17 12 C12.66498025 10.52818439 9.28143997 8.2017333 5.6875 5.4375 C4.86282227 4.8197168 4.86282227 4.8197168 4.02148438 4.18945312 C2.65866955 3.1550682 1.32624296 2.08087744 0 1 C0 0.67 0 0.34 0 0 Z " fill="#B9D094" transform="translate(463,261)"/>
<path d="M0 0 C0.66 0 1.32 0 2 0 C3.1577506 3.47325181 3.06866652 6.36067448 3 10 C1.02 10 -0.96 10 -3 10 C-2.67 7.36 -2.34 4.72 -2 2 C-1.34 2 -0.68 2 0 2 C0 1.34 0 0.68 0 0 Z " fill="#E8EAE9" transform="translate(502,132)"/>
<path d="M0 0 C7.42857143 -0.28571429 7.42857143 -0.28571429 11 2 C11 2.66 11 3.32 11 4 C10.05125 3.95875 9.1025 3.9175 8.125 3.875 C4.89755144 3.65026182 4.89755144 3.65026182 3 6 C2.01 6 1.02 6 0 6 C0 4.02 0 2.04 0 0 Z " fill="#FAFCFC" transform="translate(505,131)"/>
<path d="M0 0 C0.33 0 0.66 0 1 0 C1 2.97 1 5.94 1 9 C1.78375 8.67 2.5675 8.34 3.375 8 C7.99361869 6.72589829 12.24249356 6.83076064 17 7 C17 7.33 17 7.66 17 8 C16.20335937 8.12117188 15.40671875 8.24234375 14.5859375 8.3671875 C6.65498622 9.61883475 6.65498622 9.61883475 -1 12 C-1.02698189 10.37509046 -1.04638757 8.75005367 -1.0625 7.125 C-1.07410156 6.22007813 -1.08570313 5.31515625 -1.09765625 4.3828125 C-1 2 -1 2 0 0 Z " fill="#D5B55F" transform="translate(508,84)"/>
<path d="M0 0 C0.81434143 2.85160391 1.11881242 5.36626131 1.09765625 8.328125 C1.09282227 9.52695313 1.09282227 9.52695313 1.08789062 10.75 C1.07951172 11.575 1.07113281 12.4 1.0625 13.25 C1.05798828 14.09046875 1.05347656 14.9309375 1.04882812 15.796875 C1.03707961 17.86461401 1.01914522 19.93231624 1 22 C-2.46905388 18.53094612 -2.15784897 14.7441652 -2.1875 10 C-2.20167969 8.96875 -2.21585937 7.9375 -2.23046875 6.875 C-2.00276947 4.03454797 -1.46504061 2.40892052 0 0 Z " fill="#E7F2D5" transform="translate(463,211)"/>
<path d="M0 0 C-0.99 0.33 -1.98 0.66 -3 1 C-3.33 1.66 -3.66 2.32 -4 3 C-6.27057377 3.05398987 -8.54151288 3.09278742 -10.8125 3.125 C-12.70935547 3.15980469 -12.70935547 3.15980469 -14.64453125 3.1953125 C-18 3 -18 3 -21 1 C-18.25091555 0.63685675 -15.50116549 0.28419159 -12.75 -0.0625 C-11.97269531 -0.16626953 -11.19539062 -0.27003906 -10.39453125 -0.37695312 C-9.64042969 -0.47041016 -8.88632812 -0.56386719 -8.109375 -0.66015625 C-7.41811523 -0.74918213 -6.72685547 -0.83820801 -6.01464844 -0.92993164 C-3.82569152 -1.00606235 -2.08994187 -0.6249336 0 0 Z " fill="#6FA2D2" transform="translate(625,180)"/>
<path d="M0 0 C0.93423645 3.01031744 1.04449911 3.86650268 0 7 C7.92 6.505 7.92 6.505 16 6 C10.72346191 9.51769206 5.13607598 9.10579441 -1 9 C-2.0326802 6.21176345 -2.04509293 5.1322726 -1.0625 2.25 C-0.711875 1.5075 -0.36125 0.765 0 0 Z " fill="#DBBD78" transform="translate(609,163)"/>
<path d="M0 0 C1.32 0 2.64 0 4 0 C4 3.3 4 6.6 4 10 C2.68 10 1.36 10 0 10 C0 6.7 0 3.4 0 0 Z " fill="#E9E9E4" transform="translate(565,153)"/>
<path d="M0 0 C5.75 -0.125 5.75 -0.125 8 1 C8.625 3.0625 8.625 3.0625 9 5 C5.94736336 5.98120464 4.05263664 5.98120464 1 5 C0.67 3.35 0.34 1.7 0 0 Z " fill="#FCFAE9" transform="translate(526,147)"/>
<path d="M0 0 C0.66 0 1.32 0 2 0 C4.69621989 5.93168377 5.76849117 10.59088162 4 17 C3.34 17.66 2.68 18.32 2 19 C1.93941406 18.13117188 1.87882813 17.26234375 1.81640625 16.3671875 C1.73261719 15.21476563 1.64882813 14.06234375 1.5625 12.875 C1.48128906 11.73804688 1.40007813 10.60109375 1.31640625 9.4296875 C1.02269035 6.2459522 0.56875687 3.14489093 0 0 Z " fill="#D8B357" transform="translate(608,146)"/>
<path d="M0 0 C0 0.66 0 1.32 0 2 C-0.79664063 2.04898438 -1.59328125 2.09796875 -2.4140625 2.1484375 C-10.38157314 2.70029395 -10.38157314 2.70029395 -18 5 C-17 2 -17 2 -14.625 0.25 C-9.5688849 -1.49348797 -5.21848298 -0.77070122 0 0 Z " fill="#AAD0E3" transform="translate(441,141)"/>
<path d="M0 0 C0.33 0 0.66 0 1 0 C1.33 3.63 1.66 7.26 2 11 C1.34 11 0.68 11 0 11 C0.66 12.65 1.32 14.3 2 16 C1.01 16 0.02 16 -1 16 C-1.33 17.32 -1.66 18.64 -2 20 C-2.66 19.34 -3.32 18.68 -4 18 C-3.69255859 17.05640625 -3.69255859 17.05640625 -3.37890625 16.09375 C-1.68028765 10.69718181 -0.52161147 5.63340386 0 0 Z " fill="#E7F5D5" transform="translate(498,261)"/>
<path d="M0 0 C0 0.33 0 0.66 0 1 C-0.59167969 1.10957031 -1.18335938 1.21914062 -1.79296875 1.33203125 C-6.48752939 2.27400671 -9.93077704 3.40021866 -14 6 C-16.8125 6.6875 -16.8125 6.6875 -19 7 C-13.65655627 0.80160527 -7.79574224 -0.41030222 0 0 Z " fill="#E4F2D0" transform="translate(488,197)"/>
<path d="M0 0 C3.3 0 6.6 0 10 0 C10.33 1.65 10.66 3.3 11 5 C8.36 4.01 5.72 3.02 3 2 C3 2.66 3 3.32 3 4 C1.35 3.67 -0.3 3.34 -2 3 C-1.34 2.67 -0.68 2.34 0 2 C0 1.34 0 0.68 0 0 Z " fill="#E0E6E2" transform="translate(526,99)"/>
<path d="M0 0 C1 3 1 3 -0.21484375 5.69921875 C-0.78332031 6.68535156 -1.35179687 7.67148438 -1.9375 8.6875 C-2.50339844 9.68136719 -3.06929687 10.67523438 -3.65234375 11.69921875 C-4.31943359 12.83810547 -4.31943359 12.83810547 -5 14 C-6.13643966 10.59068103 -5.86747764 9.99664544 -4.5625 6.8125 C-4.27503906 6.09707031 -3.98757813 5.38164062 -3.69140625 4.64453125 C-3.46324219 4.10183594 -3.23507812 3.55914062 -3 3 C-3.66 2.67 -4.32 2.34 -5 2 C-3.35 1.34 -1.7 0.68 0 0 Z " fill="#8DB1D5" transform="translate(630,176)"/>
<path d="M0 0 C0 1.98 0 3.96 0 6 C-1.32 5.67 -2.64 5.34 -4 5 C-4 4.34 -4 3.68 -4 3 C-4.99 2.67 -5.98 2.34 -7 2 C-7 1.34 -7 0.68 -7 0 C-4.3333581 -1.33332095 -2.83319697 -0.67102033 0 0 Z " fill="#EAECEA" transform="translate(537,153)"/>
<path d="M0 0 C4.53652018 1.74481545 7.87067892 3.11964186 11 7 C11 7.66 11 8.32 11 9 C10.34 9 9.68 9 9 9 C8.67 8.34 8.34 7.68 8 7 C7.21625 6.87625 6.4325 6.7525 5.625 6.625 C3 6 3 6 1.1875 4.0625 C0 2 0 2 0 0 Z " fill="#F0E2BD" transform="translate(594,135)"/>
<path d="M0 0 C3.59634744 3.49359465 6.83451967 7.11098131 10 11 C9.67 11.66 9.34 12.32 9 13 C4.47294663 9.85621294 2.41995531 6.83991063 0 2 C0 1.34 0 0.68 0 0 Z " fill="#DFC883" transform="translate(620,67)"/>
<path d="M0 0 C0.66 0.33 1.32 0.66 2 1 C2.37890625 3.14453125 2.37890625 3.14453125 2.5625 5.8125 C2.79281125 8.99455538 3.13286253 11.9256035 4 15 C3.01 15 2.02 15 1 15 C0.67 15.99 0.34 16.98 0 18 C-0.66 18 -1.32 18 -2 18 C-1.67 17.2575 -1.34 16.515 -1 15.75 C0.40324139 10.4878448 0.15769562 5.4142163 0 0 Z " fill="#C7DFF4" transform="translate(600,151)"/>
<path d="M0 0 C-3.3 2.64 -6.6 5.28 -10 8 C-10.33 7.01 -10.66 6.02 -11 5 C-4.83050847 -1.61016949 -4.83050847 -1.61016949 0 0 Z " fill="#6D9DD4" transform="translate(576,243)"/>
<path d="M0 0 C3.3 0 6.6 0 10 0 C8.01388388 1.98611612 6.55856751 2.91454712 4 4 C3.01 4 2.02 4 1 4 C0.67 4.66 0.34 5.32 0 6 C0 4.02 0 2.04 0 0 Z " fill="#E6E9E9" transform="translate(570,142)"/>
<path d="M0 0 C0.66 0 1.32 0 2 0 C5 3.46153846 5 3.46153846 5 6 C6.65 6 8.3 6 10 6 C10 6.33 10 6.66 10 7 C2.25 7.125 2.25 7.125 0 6 C0 4.02 0 2.04 0 0 Z " fill="#ECEAE2" transform="translate(592,135)"/>
<path d="M0 0 C1.09506492 3.28519475 1.09960608 5.73663415 1.0625 9.1875 C1.05347656 10.27417969 1.04445313 11.36085937 1.03515625 12.48046875 C1.02355469 13.31191406 1.01195312 14.14335937 1 15 C-1.18325915 13.25454479 -1.93939398 12.40208512 -2.36328125 9.58984375 C-2.34652344 8.71457031 -2.32976562 7.83929688 -2.3125 6.9375 C-2.30863281 6.05964844 -2.30476563 5.18179688 -2.30078125 4.27734375 C-2 2 -2 2 0 0 Z " fill="#D7ECFC" transform="translate(470,214)"/>
<path d="M0 0 C5.45620329 0.09572286 8.10615178 0.61291162 12 4.5625 C13.01826258 5.69213505 14.02488839 6.83291329 15 8 C14.67 8.66 14.34 9.32 14 10 C13.57589844 9.60167969 13.15179687 9.20335938 12.71484375 8.79296875 C8.67232555 5.14137539 5.11349698 2.87842746 0 1 C0 0.67 0 0.34 0 0 Z " fill="#D6B55E" transform="translate(526,92)"/>
<path d="M0 0 C-2.51830747 3.12270126 -3.7261549 3.94523098 -7.75 4.75 C-9.35875 4.87375 -9.35875 4.87375 -11 5 C-4.36842105 -2.18421053 -4.36842105 -2.18421053 0 0 Z " fill="#DEB75E" transform="translate(536,59)"/>
<path d="M0 0 C0.66 0 1.32 0 2 0 C1.1875 2.9375 1.1875 2.9375 0 6 C-0.99 6.33 -1.98 6.66 -3 7 C-4.32 5.68 -5.64 4.36 -7 3 C-5.5459375 2.814375 -5.5459375 2.814375 -4.0625 2.625 C-2.5465625 2.315625 -2.5465625 2.315625 -1 2 C-0.67 1.34 -0.34 0.68 0 0 Z " fill="#BFD495" transform="translate(494,275)"/>
<path d="M0 0 C0.99 0.33 1.98 0.66 3 1 C3.33 1.99 3.66 2.98 4 4 C4.66 4.33 5.32 4.66 6 5 C6 5.66 6 6.32 6 7 C6.99 7 7.98 7 9 7 C9 8.32 9 9.64 9 11 C7 11 7 11 5.2734375 9.35546875 C4.64695312 8.64003906 4.02046875 7.92460937 3.375 7.1875 C2.74335938 6.47980469 2.11171875 5.77210938 1.4609375 5.04296875 C0 3 0 3 0 0 Z " fill="#C2DCA4" transform="translate(405,207)"/>
<path d="M0 0 C3.89523329 0.5770716 6.27061743 2.19480124 9 5 C9.3125 8.25 9.3125 8.25 9 11 C8.608125 10.443125 8.21625 9.88625 7.8125 9.3125 C5.96458999 6.85930004 5.96458999 6.85930004 3.375 4.375 C1 2 1 2 0 0 Z " fill="#D8B75F" transform="translate(534,148)"/>
<path d="M0 0 C0 2.97 0 5.94 0 9 C-1.32 9 -2.64 9 -4 9 C-3.4140625 2.84765625 -3.4140625 2.84765625 -3 1 C-1 0 -1 0 0 0 Z " fill="#FBFCF4" transform="translate(570,143)"/>
<path d="M0 0 C3.57104439 1.87949705 5.54744301 3.17053157 7 7 C6.34 7.66 5.68 8.32 5 9 C5 8.01 5 7.02 5 6 C4.01 6 3.02 6 2 6 C0.3125 4.5 0.3125 4.5 -1 3 C-0.67 2.01 -0.34 1.02 0 0 Z " fill="#6FA0D3" transform="translate(593,144)"/>
<path d="M0 0 C3.63 0 7.26 0 11 0 C11 0.66 11 1.32 11 2 C7.5980513 4.09350689 4.94727588 4.17942163 1 4 C0.67 2.68 0.34 1.36 0 0 Z " fill="#DBEBF1" transform="translate(516,133)"/>
<path d="M0 0 C0.33 0 0.66 0 1 0 C1.31565274 5.26087893 0.7659748 8.49248551 -2 13 C-3.6875 14.875 -3.6875 14.875 -5 16 C-5 14.35 -5 12.7 -5 11 C-4.01 11 -3.02 11 -2 11 C-1.34 7.37 -0.68 3.74 0 0 Z " fill="#F9F0CB" transform="translate(543,120)"/>
<path d="M0 0 C0.99 0.33 1.98 0.66 3 1 C2.67 1.99 2.34 2.98 2 4 C1.77202438 6.73289293 1.58331813 9.45042204 1.4375 12.1875 C1.39431641 12.93708984 1.35113281 13.68667969 1.30664062 14.45898438 C1.20077315 16.30578375 1.0999024 18.15286834 1 20 C0.67 20 0.34 20 0 20 C0 13.4 0 6.8 0 0 Z " fill="#E5F0D4" transform="translate(498,181)"/>
<path d="M0 0 C-0.99 3.96 -1.98 7.92 -3 12 C-3.66 12 -4.32 12 -5 12 C-3.125 5.25 -3.125 5.25 -2 3 C-3.32 2.67 -4.64 2.34 -6 2 C-2.25 0 -2.25 0 0 0 Z " fill="#5A95D5" transform="translate(627,179)"/>
<path d="M0 0 C1.45945288 0.08708669 2.91765868 0.19526907 4.375 0.3125 C5.59316406 0.39951172 5.59316406 0.39951172 6.8359375 0.48828125 C9 1 9 1 11 4 C10.625 6.1875 10.625 6.1875 10 8 C9.278125 7.21625 8.55625 6.4325 7.8125 5.625 C5.16700959 3.15587562 3.39626389 2.06739722 0 1 C0 0.67 0 0.34 0 0 Z " fill="#E6EFD5" transform="translate(440,152)"/>
<path d="M0 0 C0.9796875 -0.01417969 1.959375 -0.02835937 2.96875 -0.04296875 C5.5 0.1875 5.5 0.1875 7.5 2.1875 C2.18103602 3.59546105 -2.28271224 2.5921544 -7.5 1.1875 C-4.89820337 -0.11339831 -2.9030812 0.01909922 0 0 Z " fill="#BCD298" transform="translate(389.5,127.8125)"/>
<path d="M0 0 C0.99 0.33 1.98 0.66 3 1 C1.6062718 5.43458973 -0.60582235 7.87378374 -4 11 C-4 9.68 -4 8.36 -4 7 C-3.34 7 -2.68 7 -2 7 C-2 6.34 -2 5.68 -2 5 C-1.34 5 -0.68 5 0 5 C0 3.35 0 1.7 0 0 Z " fill="#7DA8D5" transform="translate(620,190)"/>
<path d="M0 0 C1.9375 0.6875 1.9375 0.6875 4 2 C4.625 4.5625 4.625 4.5625 5 7 C5.66 7.33 6.32 7.66 7 8 C6.34 9.32 5.68 10.64 5 12 C4.16440201 10.18854294 3.33157951 8.37580533 2.5 6.5625 C2.0359375 5.55316406 1.571875 4.54382813 1.09375 3.50390625 C0 1 0 1 0 0 Z " fill="#C7D99F" transform="translate(378,167)"/>
<path d="M0 0 C0.66 0.33 1.32 0.66 2 1 C0.576875 2.0828125 0.576875 2.0828125 -0.875 3.1875 C-3.67412562 5.49809898 -4.98517558 7.44811452 -6 11 C-6.33 11 -6.66 11 -7 11 C-7.4375 8.3125 -7.4375 8.3125 -7 5 C-4.88875077 2.95224699 -2.54140493 1.46519774 0 0 Z " fill="#5694D7" transform="translate(580,145)"/>
<path d="M0 0 C0.515625 0.2475 1.03125 0.495 1.5625 0.75 C0.94375 1.03875 0.325 1.3275 -0.3125 1.625 C-2.57075765 2.68720042 -2.57075765 2.68720042 -4.4375 4.75 C-5.4275 4.42 -6.4175 4.09 -7.4375 3.75 C-7.7675 5.07 -8.0975 6.39 -8.4375 7.75 C-8.7675 6.43 -9.0975 5.11 -9.4375 3.75 C-3.0375 -0.31153846 -3.0375 -0.31153846 0 0 Z " fill="#E1F0F6" transform="translate(383.4375,119.25)"/>
<path d="M0 0 C0.33 0 0.66 0 1 0 C0.67 3.96 0.34 7.92 0 12 C-0.99 12.33 -1.98 12.66 -3 13 C-2.45144652 8.428721 -1.58255197 4.32564205 0 0 Z " fill="#B0D5E6" transform="translate(376,93)"/>
<path d="M0 0 C1.98 0 3.96 0 6 0 C3.56955617 3.64566574 2.17611041 3.9977335 -2 5 C-4.375 4.625 -4.375 4.625 -6 4 C-4.02 3.34 -2.04 2.68 0 2 C0 1.34 0 0.68 0 0 Z " fill="#DDB54D" transform="translate(549,50)"/>
<path d="M0 0 C0.165 0.639375 0.33 1.27875 0.5 1.9375 C1.781786 4.16119241 1.781786 4.16119241 3.9140625 4.48828125 C5.93575155 4.7275978 7.96841939 4.86893028 10 5 C10 5.33 10 5.66 10 6 C6.37 6 2.74 6 -1 6 C-1.33 5.01 -1.66 4.02 -2 3 C-1.34 2.01 -0.68 1.02 0 0 Z " fill="#6C97C6" transform="translate(504,281)"/>
<path d="M0 0 C1.65 0 3.3 0 5 0 C2.42215154 2.64752004 0.08351902 4.94432065 -3 7 C-3.66 6.34 -4.32 5.68 -5 5 C-4.34 4.34 -3.68 3.68 -3 3 C-2.01 3 -1.02 3 0 3 C0 2.01 0 1.02 0 0 Z " fill="#6298D5" transform="translate(579,235)"/>
<path d="M0 0 C0.33 1.32 0.66 2.64 1 4 C-2.96 4 -6.92 4 -11 4 C-11.33 3.34 -11.66 2.68 -12 2 C-10.7625 2.04125 -9.525 2.0825 -8.25 2.125 C-4.98362038 2.13658291 -2.7853053 1.8568702 0 0 Z " fill="#DCEDF9" transform="translate(492,235)"/>
<path d="M0 0 C1.485 0.99 1.485 0.99 3 2 C3.22137393 4.62697064 3.28162025 7.00893964 3.1875 9.625 C3.16719727 10.68460938 3.16719727 10.68460938 3.14648438 11.765625 C3.1111104 13.51074128 3.05730221 15.25546608 3 17 C2.67 17 2.34 17 2 17 C1.93941406 16.27554688 1.87882813 15.55109375 1.81640625 14.8046875 C1.38516567 9.82883467 0.92952359 4.91319609 0 0 Z " fill="#DAB14F" transform="translate(544,108)"/>
<path d="M0 0 C-1.125 1.5 -1.125 1.5 -3 3 C-6.0625 3.3125 -6.0625 3.3125 -9 3 C-9.66 2.34 -10.32 1.68 -11 1 C-7.32589215 -0.17571451 -3.83070817 -0.07366746 0 0 Z " fill="#D8F1FC" transform="translate(505,208)"/>
<path d="M0 0 C0.66 0.33 1.32 0.66 2 1 C1.96744792 2.98567708 1.93489583 4.97135417 1.90234375 6.95703125 C1.91736783 9.20305461 1.91736783 9.20305461 3 12 C1.68 11.34 0.36 10.68 -1 10 C-0.67 6.7 -0.34 3.4 0 0 Z " fill="#B7D190" transform="translate(402,151)"/>
<path d="M0 0 C0.66 1.32 1.32 2.64 2 4 C3.65 3.67 5.3 3.34 7 3 C7 3.66 7 4.32 7 5 C5.1875 6.6875 5.1875 6.6875 3 8 C2.01 7.67 1.02 7.34 0 7 C0 4.69 0 2.38 0 0 Z " fill="#B8E0EB" transform="translate(370,117)"/>
<path d="M0 0 C2.97246802 2.54782974 4.41535288 5.45340883 6 9 C6 9.66 6 10.32 6 11 C5.34 11 4.68 11 4 11 C0 4.5 0 4.5 0 0 Z " fill="#D7B96E" transform="translate(630,80)"/>
<path d="M0 0 C0.99 0.33 1.98 0.66 3 1 C1.22555028 3.24606427 0.41647515 3.95081002 -2.48046875 4.29296875 C-3.82044922 4.24076172 -3.82044922 4.24076172 -5.1875 4.1875 C-6.53908203 4.14689453 -6.53908203 4.14689453 -7.91796875 4.10546875 C-8.60503906 4.07066406 -9.29210937 4.03585937 -10 4 C-10 3.67 -10 3.34 -10 3 C-7.36 3 -4.72 3 -2 3 C-2 2.34 -2 1.68 -2 1 C-1.34 0.67 -0.68 0.34 0 0 Z " fill="#5A92CE" transform="translate(516,282)"/>
<path d="M0 0 C2.78211944 0.37596209 4.5879284 0.67318459 6.8125 2.4375 C8 4 8 4 8 6 C8.66 6.33 9.32 6.66 10 7 C6.433255 7 5.89456323 6.36308045 3.3125 4.0625 C2.68988281 3.51722656 2.06726563 2.97195312 1.42578125 2.41015625 C0.95527344 1.94480469 0.48476563 1.47945312 0 1 C0 0.67 0 0.34 0 0 Z " fill="#BFD69C" transform="translate(432,236)"/>
<path d="M0 0 C2.97 0 5.94 0 9 0 C8.67 0.66 8.34 1.32 8 2 C6.6078125 1.9071875 6.6078125 1.9071875 5.1875 1.8125 C2.01604897 1.69105736 2.01604897 1.69105736 0.125 3.5 C-0.24625 3.995 -0.6175 4.49 -1 5 C-0.67 3.35 -0.34 1.7 0 0 Z " fill="#EAEDE4" transform="translate(419,153)"/>
<path d="M0 0 C2.475 0.99 2.475 0.99 5 2 C3.68 2.33 2.36 2.66 1 3 C1 4.32 1 5.64 1 7 C2.98 7.495 2.98 7.495 5 8 C3.35 8.33 1.7 8.66 0 9 C0 6.03 0 3.06 0 0 Z " fill="#CFB572" transform="translate(507,139)"/>
<path d="M0 0 C1.32 0 2.64 0 4 0 C4 1.65 4 3.3 4 5 C2.68 5 1.36 5 0 5 C0 3.35 0 1.7 0 0 Z " fill="#F4FCFD" transform="translate(533,174)"/>
<path d="M0 0 C1.98 0.495 1.98 0.495 4 1 C4 1.99 4 2.98 4 4 C2.35 4.33 0.7 4.66 -1 5 C-0.67 3.35 -0.34 1.7 0 0 Z " fill="#F7FBFB" transform="translate(506,152)"/>
<path d="M0 0 C1.65 1.65 3.3 3.3 5 5 C2.6875 5.25 2.6875 5.25 0 5 C-1.8125 3 -1.8125 3 -3 1 C-2.01 0.67 -1.02 0.34 0 0 Z " fill="#578DCD" transform="translate(477,231)"/>
<path d="M0 0 C2.66666667 2.66666667 5.33333333 5.33333333 8 8 C5.61435923 7.42415568 3.33317216 6.77772405 1 6 C0.67 4.02 0.34 2.04 0 0 Z " fill="#D5EDFA" transform="translate(471,229)"/>
<path d="M0 0 C2.97550031 3.0684847 3.96474513 4.46236331 4.25 8.8125 C4.1675 9.864375 4.085 10.91625 4 12 C2.09681116 9.14521674 1.5380901 7.58058692 0.875 4.3125 C0.70742188 3.50425781 0.53984375 2.69601563 0.3671875 1.86328125 C0.24601562 1.24839844 0.12484375 0.63351563 0 0 Z " fill="#B8D79A" transform="translate(373,150)"/>
<path d="M0 0 C1.58294782 -0.05437607 3.16644256 -0.09296271 4.75 -0.125 C5.63171875 -0.14820313 6.5134375 -0.17140625 7.421875 -0.1953125 C10.1135858 0.00860498 11.69904974 0.63448279 14 2 C12.0085944 2.38133299 10.00720923 2.71325582 8 3 C7.67 2.67 7.34 2.34 7 2 C4.67182036 1.63239269 2.3381615 1.29758419 0 1 C0 0.67 0 0.34 0 0 Z " fill="#A8CCE4" transform="translate(448,48)"/>
<path d="M0 0 C0.99 0 1.98 0 3 0 C3.33 1.65 3.66 3.3 4 5 C2.68 5.33 1.36 5.66 0 6 C0 4 0 2 0 0 Z " fill="#E8E8E6" transform="translate(498,272)"/>
<path d="M0 0 C2.35171131 0.59861742 4.6859378 1.26924352 7 2 C7.33 2.66 7.66 3.32 8 4 C7.34 4.66 6.68 5.32 6 6 C3.97945196 4.35830472 1.97956942 2.69088222 0 1 C0 0.67 0 0.34 0 0 Z " fill="#C3DAA7" transform="translate(463,261)"/>
<path d="M0 0 C1.98 0.66 3.96 1.32 6 2 C6 2.66 6 3.32 6 4 C4.35 4 2.7 4 1 4 C1 3.34 1 2.68 1 2 C0.34 1.67 -0.32 1.34 -1 1 C-0.67 0.67 -0.34 0.34 0 0 Z " fill="#EAFAFB" transform="translate(510,131)"/>
<path d="M0 0 C0.66 0 1.32 0 2 0 C2.66 2.97 3.32 5.94 4 9 C0 4.5 0 4.5 0 0 Z " fill="#F7FDE9" transform="translate(403,131)"/>
</svg>
