<svg xmlns="http://www.w3.org/2000/svg" xmlns:xlink="http://www.w3.org/1999/xlink" width="284" zoomAndPan="magnify" viewBox="0 0 212.87999 161.999997" height="216" preserveAspectRatio="xMidYMid meet" version="1.0"><defs><clipPath id="60ed4e6182"><path d="M 3 0.046875 L 212.761719 0.046875 L 212.761719 156 L 3 156 Z M 3 0.046875 " clip-rule="nonzero"/></clipPath><clipPath id="50ca4a93eb"><path d="M 27.140625 0.046875 L 212.25 37.671875 L 188.359375 155.199219 L 3.25 117.574219 Z M 27.140625 0.046875 " clip-rule="nonzero"/></clipPath><clipPath id="8ef4bde0da"><path d="M 14 23 L 208 23 L 208 151 L 14 151 Z M 14 23 " clip-rule="nonzero"/></clipPath><clipPath id="f0a36b170d"><path d="M 24.140625 0.046875 L 209.25 37.671875 L 185.359375 155.199219 L 0.25 117.574219 Z M 24.140625 0.046875 " clip-rule="nonzero"/></clipPath><clipPath id="7a19b6461d"><path d="M 185.578125 155.246094 L 0.46875 117.621094 L 24.359375 0.0898438 L 209.464844 37.714844 Z M 185.578125 155.246094 " clip-rule="nonzero"/></clipPath><clipPath id="d0b7d0828b"><rect x="0" width="210" y="0" height="156"/></clipPath><clipPath id="9c8c18fcce"><path d="M 0 6 L 209 6 L 209 161.953125 L 0 161.953125 Z M 0 6 " clip-rule="nonzero"/></clipPath><clipPath id="3bd0b4aaed"><path d="M 23.890625 6.078125 L 208.996094 43.703125 L 185.109375 161.234375 L 0 123.609375 Z M 23.890625 6.078125 " clip-rule="nonzero"/></clipPath><clipPath id="69c1dac858"><path d="M 13 23 L 208 23 L 208 151 L 13 151 Z M 13 23 " clip-rule="nonzero"/></clipPath><clipPath id="68ea2aa518"><path d="M 23.890625 0.078125 L 208.996094 37.703125 L 185.109375 155.234375 L 0 117.609375 Z M 23.890625 0.078125 " clip-rule="nonzero"/></clipPath><clipPath id="df561bf6ed"><path d="M 185.328125 155.277344 L 0.21875 117.652344 L 24.105469 0.125 L 209.214844 37.75 Z M 185.328125 155.277344 " clip-rule="nonzero"/></clipPath><clipPath id="19db7804f6"><rect x="0" width="209" y="0" height="156"/></clipPath></defs><g clip-path="url(#60ed4e6182)"><g clip-path="url(#50ca4a93eb)"><g transform="matrix(1, 0, 0, 1, 3, -0.000000000000015841)"><g clip-path="url(#d0b7d0828b)"><g clip-path="url(#8ef4bde0da)"><g clip-path="url(#f0a36b170d)"><g clip-path="url(#7a19b6461d)"><path fill="#03134f" d="M 20.007812 45.847656 C 26.304688 44.722656 33.128906 43.160156 38.195312 41.699219 C 40.898438 40.921875 44.210938 39.96875 45.558594 39.597656 C 46.90625 39.21875 48.121094 38.816406 48.261719 38.695312 C 48.402344 38.574219 49.253906 38.335938 50.15625 38.15625 C 51.058594 37.980469 51.839844 37.640625 51.886719 37.410156 C 51.933594 37.175781 52.15625 37.023438 52.378906 37.070312 C 52.597656 37.113281 52.671875 37.695312 52.535156 38.363281 C 52.332031 39.371094 52.453125 39.605469 53.269531 39.769531 C 53.804688 39.878906 54.378906 39.757812 54.550781 39.503906 C 54.785156 39.148438 54.925781 39.195312 55.144531 39.695312 C 55.382812 40.246094 55.554688 40.265625 56.257812 39.792969 C 56.710938 39.492188 56.988281 39.097656 56.867188 38.917969 C 56.75 38.738281 56.414062 38.824219 56.121094 39.101562 C 55.71875 39.488281 55.5625 39.480469 55.484375 39.066406 C 55.363281 38.417969 54.277344 38.109375 54.15625 38.691406 C 54.113281 38.914062 53.890625 39.058594 53.667969 39.015625 C 53.007812 38.878906 53.53125 37.328125 54.460938 36.683594 C 55.074219 36.253906 55.683594 36.214844 56.589844 36.550781 C 57.289062 36.808594 57.828125 37.179688 57.789062 37.371094 C 57.75 37.566406 58.078125 37.800781 58.523438 37.890625 C 58.964844 37.980469 59.363281 37.871094 59.410156 37.648438 C 59.453125 37.425781 59.308594 37.207031 59.085938 37.160156 C 58.515625 37.046875 58.953125 35.378906 59.738281 34.6875 C 60.554688 33.96875 74.089844 28.460938 75.679688 28.199219 C 76.578125 28.054688 76.945312 28.179688 77.34375 28.792969 C 77.628906 29.222656 77.804688 29.859375 77.734375 30.207031 C 77.664062 30.558594 77.789062 30.878906 78.011719 30.921875 C 78.230469 30.96875 78.542969 30.382812 78.695312 29.628906 C 78.847656 28.875 79.222656 28.203125 79.519531 28.148438 C 79.929688 28.070312 79.941406 27.910156 79.546875 27.507812 C 78.851562 26.78125 79.574219 26.460938 85.769531 24.789062 C 92.398438 23.003906 96.160156 22.699219 100.722656 23.59375 C 105.125 24.453125 107.085938 25.257812 107.945312 26.550781 C 108.300781 27.085938 108.972656 27.640625 109.4375 27.769531 C 110.738281 28.136719 113.761719 32.851562 113.507812 34.109375 C 113.390625 34.679688 113.472656 35.191406 113.6875 35.234375 C 114.375 35.375 114.796875 37.71875 114.800781 41.371094 C 114.796875 45.9375 112.277344 56.742188 108.289062 69.226562 C 103.007812 85.769531 101.328125 99.339844 103.945312 104.316406 C 106.402344 108.988281 117.558594 107.125 130.898438 99.820312 C 136.710938 96.636719 145.191406 90.0625 152.324219 83.222656 C 159.238281 76.589844 185.09375 47.234375 189.683594 40.796875 C 192.519531 36.820312 192.820312 36.535156 193.816406 36.875 C 194.339844 37.058594 195.332031 36.835938 196.242188 36.34375 C 197.949219 35.414062 198.054688 35.40625 198.933594 36.199219 C 199.277344 36.503906 199.464844 37.195312 199.355469 37.742188 C 199.246094 38.285156 199.339844 38.765625 199.558594 38.8125 C 199.78125 38.855469 200.011719 38.667969 200.066406 38.386719 C 200.144531 38.015625 201.046875 38.097656 203.574219 38.714844 C 205.535156 39.191406 206.941406 39.714844 206.894531 39.953125 C 206.84375 40.195312 207.085938 40.917969 207.425781 41.59375 C 208.316406 43.359375 207.199219 48.144531 205.304688 50.703125 C 203.941406 52.542969 199.105469 60.210938 192.972656 70.265625 C 186.550781 80.789062 181.410156 91.496094 177.566406 102.351562 C 176.628906 105.003906 175.789062 106.980469 175.703125 106.746094 C 175.617188 106.511719 175.128906 108.058594 174.628906 110.175781 C 174.128906 112.300781 173.511719 114.195312 173.261719 114.394531 C 173.015625 114.59375 172.832031 115.175781 172.863281 115.683594 C 172.890625 116.191406 172.722656 116.910156 172.492188 117.265625 C 172.011719 118.019531 171.1875 121.675781 169.453125 130.710938 L 168.238281 137.058594 L 169.324219 137.410156 C 170.265625 137.71875 170.363281 137.921875 170.0625 138.953125 C 169.871094 139.609375 169.210938 142.121094 168.59375 144.539062 C 167.21875 149.894531 166.886719 150.707031 166.121094 150.550781 C 165.792969 150.484375 165.484375 150.605469 165.441406 150.824219 C 165.394531 151.054688 164.519531 150.953125 163.285156 150.574219 C 162.144531 150.222656 158.800781 149.457031 155.863281 148.871094 L 150.519531 147.8125 L 150.238281 146.386719 C 149.691406 143.617188 150.671875 135.648438 152.726562 126.183594 C 153.828125 121.089844 154.035156 120.496094 154.886719 120.039062 C 156.082031 119.398438 156.140625 119.097656 155.121094 118.890625 C 154.269531 118.71875 154.257812 118.214844 155.0625 116.988281 C 155.332031 116.574219 155.425781 116 155.265625 115.695312 C 155.089844 115.347656 155.246094 114.628906 155.683594 113.761719 C 156.066406 113.003906 156.484375 111.515625 156.609375 110.457031 C 156.734375 109.394531 157.125 107.925781 157.46875 107.1875 C 157.824219 106.449219 158.507812 104.507812 158.992188 102.878906 L 159.878906 99.90625 L 158.714844 100.929688 C 158.074219 101.496094 156.859375 102.480469 156.023438 103.128906 C 155.1875 103.773438 154.039062 104.726562 153.472656 105.242188 C 152.914062 105.757812 152.207031 106.128906 151.914062 106.066406 C 151.617188 106.007812 151.453125 106.164062 151.546875 106.414062 C 151.800781 107.109375 145.519531 111.410156 137.875 115.785156 C 131.609375 119.371094 122.105469 122.75 114.464844 124.117188 C 103.1875 126.128906 92.449219 121.136719 88.15625 111.886719 C 85.558594 106.289062 84.925781 102.023438 85.414062 93.421875 C 85.710938 88.148438 86.03125 86.144531 87.890625 77.925781 C 89.175781 72.265625 91.050781 65.320312 92.570312 60.589844 C 95.34375 51.980469 97.667969 41.992188 97.105469 41.136719 C 96.1875 39.753906 88.605469 41.6875 77.257812 46.199219 C 74.023438 47.484375 70.644531 48.757812 69.746094 49.039062 C 67.675781 49.667969 66.605469 50.085938 65.355469 50.753906 C 64.242188 51.347656 57.941406 53.710938 56.917969 53.921875 C 56.554688 53.996094 53.96875 54.863281 51.164062 55.855469 C 39.097656 60.117188 22.25 63.734375 18.234375 62.929688 C 17.53125 62.785156 16.699219 62.292969 16.394531 61.832031 C 15.351562 60.253906 13.789062 50.972656 14.222656 48.96875 C 14.558594 47.441406 16.238281 46.53125 19.980469 45.863281 Z M 205.421875 41.527344 C 205.53125 41.6875 205.875 41.777344 206.1875 41.71875 C 206.535156 41.65625 206.460938 41.542969 205.992188 41.425781 C 205.570312 41.320312 205.3125 41.367188 205.421875 41.527344 Z M 160.082031 106.878906 C 159.859375 106.832031 159.640625 106.980469 159.59375 107.203125 C 159.550781 107.421875 159.695312 107.644531 159.917969 107.6875 C 160.140625 107.734375 160.359375 107.589844 160.40625 107.367188 C 160.449219 107.144531 160.304688 106.921875 160.082031 106.878906 Z M 163.992188 95.90625 C 163.773438 95.863281 163.550781 96.007812 163.507812 96.230469 C 163.460938 96.453125 163.605469 96.671875 163.828125 96.71875 C 164.050781 96.761719 164.269531 96.617188 164.316406 96.394531 C 164.363281 96.171875 164.214844 95.953125 163.992188 95.90625 Z M 163.417969 98.730469 C 163.199219 98.6875 162.976562 98.832031 162.933594 99.054688 C 162.886719 99.277344 163.03125 99.496094 163.253906 99.542969 C 163.476562 99.585938 163.695312 99.441406 163.742188 99.21875 C 163.789062 98.996094 163.640625 98.777344 163.417969 98.730469 Z M 159.550781 114.519531 C 158.757812 115.046875 158.40625 116.207031 159.003906 116.328125 C 159.226562 116.375 159.445312 116.226562 159.492188 116.007812 C 159.539062 115.785156 159.847656 115.65625 160.179688 115.722656 C 160.511719 115.792969 160.859375 115.484375 160.949219 115.042969 C 161.140625 114.097656 160.53125 113.871094 159.550781 114.515625 Z M 164.652344 100.082031 C 163.683594 100.242188 163.664062 100.886719 164.625 101.082031 C 165.074219 101.171875 165.484375 100.976562 165.550781 100.640625 C 165.6875 99.960938 165.621094 99.917969 164.648438 100.078125 Z M 168.839844 96.890625 C 168.617188 96.847656 168.394531 97.003906 168.347656 97.242188 C 168.203125 97.953125 166.929688 98.605469 166.035156 98.425781 C 165.574219 98.332031 165.160156 98.4375 165.117188 98.660156 C 164.960938 99.425781 166.6875 99.394531 167.878906 98.609375 C 169.113281 97.792969 169.539062 97.035156 168.839844 96.890625 Z M 166.808594 100.679688 C 166.765625 100.902344 166.910156 101.125 167.132812 101.167969 C 167.355469 101.214844 167.574219 101.066406 167.621094 100.84375 C 167.664062 100.625 167.519531 100.402344 167.296875 100.359375 C 167.074219 100.3125 166.855469 100.457031 166.808594 100.679688 Z M 167.484375 104.605469 C 167.152344 104.535156 166.9375 104.207031 167.003906 103.875 C 167.070312 103.542969 166.941406 103.234375 166.722656 103.1875 C 166.5 103.144531 166.265625 103.363281 166.199219 103.679688 C 166.136719 103.996094 166.289062 104.402344 166.542969 104.585938 C 166.90625 104.855469 166.890625 104.949219 166.445312 105.058594 C 165.507812 105.28125 165.6875 105.917969 166.75 106.136719 C 167.488281 106.285156 167.804688 106.125 167.925781 105.535156 C 168.015625 105.085938 167.824219 104.679688 167.484375 104.609375 Z M 162.890625 127.210938 C 163.222656 127.277344 163.53125 127.148438 163.578125 126.925781 C 163.621094 126.707031 163.386719 126.464844 163.054688 126.398438 C 162.722656 126.332031 162.414062 126.460938 162.367188 126.679688 C 162.324219 126.902344 162.558594 127.140625 162.890625 127.210938 Z M 161.792969 129.507812 C 161.75 129.726562 161.984375 129.964844 162.316406 130.035156 C 162.648438 130.101562 162.957031 129.972656 163.003906 129.753906 C 163.046875 129.53125 162.8125 129.292969 162.480469 129.222656 C 162.148438 129.15625 161.839844 129.285156 161.792969 129.507812 Z M 167.871094 109.964844 C 167.789062 110.359375 168.722656 111.578125 169.175781 111.667969 C 169.414062 111.71875 169.644531 111.574219 169.691406 111.351562 C 169.734375 111.128906 169.5 110.890625 169.167969 110.824219 C 168.835938 110.757812 168.601562 110.515625 168.644531 110.296875 C 168.691406 110.074219 168.546875 109.851562 168.324219 109.808594 C 168.101562 109.761719 167.898438 109.832031 167.871094 109.957031 Z M 167.441406 114.207031 C 167.066406 114.367188 166.886719 114.675781 167.039062 114.894531 C 167.195312 115.109375 167.449219 115.078125 167.605469 114.824219 C 167.761719 114.566406 168.144531 114.40625 168.457031 114.46875 C 168.792969 114.539062 169.109375 114.179688 169.234375 113.574219 C 169.398438 112.769531 169.238281 112.527344 168.429688 112.359375 C 167.828125 112.238281 167.371094 112.386719 167.300781 112.726562 C 167.238281 113.042969 167.394531 113.4375 167.648438 113.605469 C 168 113.839844 167.949219 113.984375 167.433594 114.203125 Z M 178.972656 61.542969 C 178.75 61.496094 178.53125 61.640625 178.484375 61.863281 C 178.4375 62.085938 178.585938 62.304688 178.808594 62.351562 C 179.027344 62.398438 179.25 62.25 179.292969 62.027344 C 179.339844 61.804688 179.195312 61.585938 178.972656 61.542969 Z M 171.625 98.71875 C 171.289062 98.648438 170.949219 98.945312 170.863281 99.367188 C 170.773438 99.792969 170.460938 100.175781 170.164062 100.21875 C 169.847656 100.265625 169.742188 100.472656 169.910156 100.726562 C 170.078125 100.980469 170.3125 100.960938 170.476562 100.691406 C 170.632812 100.433594 171.019531 100.277344 171.328125 100.339844 C 171.640625 100.402344 171.972656 100.09375 172.0625 99.652344 C 172.152344 99.207031 171.960938 98.792969 171.621094 98.722656 Z M 170.148438 105.984375 C 169.8125 105.914062 169.472656 106.203125 169.386719 106.625 C 169.300781 107.046875 169.480469 107.550781 169.789062 107.746094 C 170.191406 108.003906 170.402344 107.828125 170.546875 107.105469 C 170.671875 106.488281 170.519531 106.058594 170.148438 105.984375 Z M 172.058594 101.746094 C 171.835938 101.703125 171.582031 102.027344 171.492188 102.46875 C 171.398438 102.914062 171.511719 103.3125 171.730469 103.359375 C 171.953125 103.402344 172.210938 103.078125 172.300781 102.636719 C 172.390625 102.191406 172.28125 101.792969 172.058594 101.746094 Z M 170.582031 109.011719 C 170.359375 108.96875 170.121094 109.203125 170.054688 109.535156 C 169.988281 109.867188 170.113281 110.179688 170.335938 110.222656 C 170.558594 110.269531 170.796875 110.035156 170.863281 109.699219 C 170.933594 109.367188 170.804688 109.058594 170.582031 109.011719 Z M 171.019531 112.042969 C 170.683594 111.976562 170.375 112.105469 170.332031 112.324219 C 170.285156 112.546875 170.519531 112.785156 170.855469 112.855469 C 171.1875 112.921875 171.496094 112.792969 171.542969 112.570312 C 171.585938 112.347656 171.351562 112.109375 171.019531 112.042969 Z M 170.609375 114.0625 C 170.269531 113.996094 169.929688 114.300781 169.839844 114.746094 C 169.75 115.1875 169.941406 115.605469 170.28125 115.671875 C 170.621094 115.742188 170.960938 115.433594 171.050781 114.992188 C 171.140625 114.546875 170.945312 114.132812 170.609375 114.0625 Z M 172.832031 112.414062 C 173.054688 112.457031 173.277344 112.3125 173.320312 112.089844 C 173.367188 111.867188 173.21875 111.648438 173 111.601562 C 172.777344 111.558594 172.554688 111.703125 172.511719 111.925781 C 172.464844 112.148438 172.613281 112.367188 172.832031 112.414062 Z M 170.433594 116.96875 C 169.878906 116.855469 169.386719 116.949219 169.339844 117.167969 C 169.296875 117.390625 169.714844 117.667969 170.269531 117.78125 C 170.824219 117.894531 171.316406 117.800781 171.359375 117.582031 C 171.40625 117.359375 170.988281 117.082031 170.433594 116.96875 Z M 169.890625 122.742188 C 170.113281 122.789062 170.386719 122.371094 170.5 121.816406 C 170.613281 121.261719 170.523438 120.769531 170.300781 120.722656 C 170.078125 120.675781 169.804688 121.09375 169.691406 121.652344 C 169.578125 122.207031 169.667969 122.699219 169.890625 122.742188 Z M 169.441406 120.292969 C 170.214844 119.917969 170.222656 119.890625 169.550781 119.742188 C 169.164062 119.660156 168.886719 119.40625 168.929688 119.183594 C 168.976562 118.960938 168.832031 118.742188 168.609375 118.695312 C 168.375 118.648438 167.929688 119.957031 167.546875 121.84375 C 167.019531 124.449219 166.773438 125.050781 166.285156 124.953125 C 165.953125 124.882812 165.644531 125.011719 165.597656 125.234375 C 165.554688 125.457031 165.15625 125.566406 164.710938 125.476562 C 164.265625 125.386719 163.867188 125.496094 163.824219 125.71875 C 163.777344 125.9375 164.101562 126.195312 164.546875 126.285156 C 164.988281 126.375 165.386719 126.265625 165.433594 126.042969 C 165.476562 125.824219 165.710938 125.679688 165.949219 125.726562 C 166.941406 125.929688 167.785156 124.828125 168.199219 122.792969 C 168.507812 121.261719 168.847656 120.582031 169.441406 120.292969 Z M 166.308594 130.003906 C 166.53125 130.046875 166.769531 129.8125 166.839844 129.480469 C 166.90625 129.148438 166.777344 128.835938 166.554688 128.792969 C 166.335938 128.746094 166.097656 128.980469 166.027344 129.316406 C 165.960938 129.648438 166.089844 129.957031 166.308594 130.003906 Z M 163.152344 133.144531 C 163.597656 133.234375 163.917969 133.492188 163.875 133.714844 C 163.828125 133.9375 164.0625 134.175781 164.398438 134.242188 C 164.730469 134.3125 165.039062 134.183594 165.085938 133.960938 C 165.128906 133.738281 164.972656 133.515625 164.734375 133.46875 C 164.171875 133.355469 163.355469 132.117188 163.46875 131.558594 C 163.515625 131.320312 163.375 131.085938 163.152344 131.042969 C 162.929688 130.996094 162.652344 131.414062 162.542969 131.96875 C 162.390625 132.707031 162.550781 133.023438 163.140625 133.144531 Z M 159.601562 143.355469 C 159.9375 143.421875 160.246094 143.292969 160.289062 143.070312 C 160.335938 142.847656 160.101562 142.609375 159.769531 142.542969 C 159.433594 142.476562 159.125 142.601562 159.082031 142.824219 C 159.035156 143.046875 159.269531 143.285156 159.601562 143.355469 Z M 159.414062 139.113281 C 159.636719 139.160156 159.855469 139.011719 159.902344 138.789062 C 159.945312 138.570312 159.800781 138.347656 159.578125 138.304688 C 159.355469 138.257812 159.136719 138.402344 159.089844 138.625 C 159.046875 138.847656 159.191406 139.066406 159.414062 139.113281 Z M 161.863281 116.703125 C 162.058594 116.886719 162.257812 116.839844 162.304688 116.605469 C 162.429688 116.007812 163.519531 116.296875 163.617188 116.953125 C 163.664062 117.269531 163.871094 117.375 164.125 117.207031 C 164.378906 117.039062 164.359375 116.804688 164.089844 116.640625 C 163.832031 116.484375 163.691406 116.011719 163.78125 115.582031 C 163.867188 115.15625 163.664062 114.757812 163.332031 114.6875 C 162.953125 114.613281 162.804688 114.183594 162.933594 113.554688 C 163.171875 112.367188 162.964844 112.261719 161.863281 112.992188 C 161.273438 113.378906 161.175781 113.601562 161.519531 113.800781 C 161.777344 113.949219 161.878906 114.589844 161.75 115.222656 C 161.621094 115.855469 161.675781 116.523438 161.871094 116.707031 Z M 158.3125 130.058594 C 158.535156 130.105469 158.753906 129.957031 158.800781 129.734375 C 158.84375 129.515625 158.699219 129.292969 158.476562 129.25 C 158.253906 129.203125 158.035156 129.347656 157.988281 129.570312 C 157.945312 129.792969 158.089844 130.011719 158.3125 130.058594 Z M 158.210938 123.308594 C 158.808594 123.433594 159.265625 123.28125 159.335938 122.945312 C 159.402344 122.628906 159.6875 122.34375 159.972656 122.3125 C 160.359375 122.261719 160.375 122.039062 160.042969 121.464844 C 159.375 120.3125 158.613281 120.304688 158.378906 121.453125 C 158.265625 122.011719 157.992188 122.429688 157.769531 122.382812 C 157.546875 122.335938 157.324219 122.484375 157.28125 122.707031 C 157.234375 122.925781 157.652344 123.203125 158.207031 123.316406 Z M 153.296875 137.019531 C 153.394531 137.039062 153.621094 136.894531 153.804688 136.703125 C 153.988281 136.507812 153.945312 136.308594 153.710938 136.261719 C 153.476562 136.214844 153.246094 136.355469 153.199219 136.578125 C 153.15625 136.800781 153.195312 137 153.296875 137.019531 Z M 157.003906 120.960938 C 157.339844 121.03125 157.648438 120.902344 157.691406 120.679688 C 157.738281 120.457031 157.503906 120.21875 157.171875 120.152344 C 156.835938 120.085938 156.527344 120.210938 156.484375 120.433594 C 156.4375 120.65625 156.671875 120.894531 157.003906 120.960938 Z M 155.929688 116.957031 C 155.707031 116.914062 155.488281 117.058594 155.441406 117.28125 C 155.398438 117.503906 155.542969 117.722656 155.765625 117.769531 C 155.988281 117.8125 156.207031 117.667969 156.253906 117.445312 C 156.296875 117.222656 156.152344 117.003906 155.929688 116.957031 Z M 155.511719 96.273438 C 155.730469 96.320312 155.953125 96.171875 155.996094 95.953125 C 156.042969 95.730469 155.898438 95.507812 155.675781 95.464844 C 155.453125 95.417969 155.230469 95.566406 155.1875 95.789062 C 155.140625 96.007812 155.289062 96.230469 155.511719 96.273438 Z M 154.710938 94.007812 C 154.933594 94.054688 155.152344 93.90625 155.199219 93.6875 C 155.242188 93.464844 155.097656 93.242188 154.875 93.199219 C 154.652344 93.152344 154.433594 93.300781 154.386719 93.519531 C 154.34375 93.742188 154.488281 93.964844 154.710938 94.007812 Z M 153.953125 89.46875 C 154.023438 89.125 153.894531 88.804688 153.675781 88.757812 C 153.453125 88.714844 153.234375 88.847656 153.191406 89.054688 C 153.152344 89.257812 153.273438 89.585938 153.46875 89.761719 C 153.664062 89.945312 153.882812 89.8125 153.953125 89.46875 Z M 149.746094 106.03125 C 149.96875 106.078125 150.1875 105.929688 150.234375 105.710938 C 150.28125 105.488281 150.132812 105.265625 149.910156 105.222656 C 149.691406 105.175781 149.46875 105.324219 149.425781 105.542969 C 149.378906 105.765625 149.523438 105.988281 149.746094 106.03125 Z M 148.375 106.589844 C 148.59375 106.636719 148.816406 106.488281 148.859375 106.269531 C 148.90625 106.046875 148.761719 105.824219 148.539062 105.78125 C 148.316406 105.734375 148.09375 105.882812 148.050781 106.101562 C 148.003906 106.324219 148.152344 106.546875 148.375 106.589844 Z M 148.058594 101.933594 C 147.804688 103.179688 148.523438 104.863281 149.128906 104.460938 C 149.308594 104.34375 149.289062 104.078125 149.082031 103.875 C 148.488281 103.292969 148.632812 101.210938 149.246094 101.59375 C 149.519531 101.773438 149.785156 101.710938 149.835938 101.46875 C 149.886719 101.222656 149.566406 100.945312 149.125 100.855469 C 148.492188 100.726562 148.265625 100.957031 148.066406 101.929688 Z M 145.957031 103.996094 C 146.179688 104.042969 146.402344 103.894531 146.445312 103.671875 C 146.492188 103.453125 146.34375 103.230469 146.125 103.1875 C 145.902344 103.140625 145.679688 103.285156 145.636719 103.507812 C 145.589844 103.730469 145.738281 103.953125 145.957031 103.996094 Z M 80.191406 30.523438 C 80.410156 30.566406 80.632812 30.421875 80.675781 30.199219 C 80.722656 29.976562 80.574219 29.757812 80.355469 29.710938 C 80.132812 29.667969 79.910156 29.8125 79.867188 30.035156 C 79.820312 30.257812 79.96875 30.476562 80.191406 30.523438 Z M 76.355469 29.742188 C 76.6875 29.808594 76.996094 29.683594 77.042969 29.460938 C 77.085938 29.238281 76.851562 29 76.519531 28.933594 C 76.1875 28.863281 75.875 28.992188 75.832031 29.214844 C 75.785156 29.4375 76.019531 29.675781 76.355469 29.742188 Z M 74.359375 34.382812 C 74.582031 34.425781 74.800781 34.28125 74.847656 34.058594 C 74.890625 33.835938 74.746094 33.617188 74.523438 33.574219 C 74.300781 33.527344 74.082031 33.671875 74.035156 33.894531 C 73.992188 34.117188 74.136719 34.335938 74.359375 34.382812 Z M 73.964844 32.199219 C 74.1875 32.242188 74.40625 32.097656 74.453125 31.875 C 74.496094 31.652344 74.351562 31.433594 74.128906 31.386719 C 73.90625 31.34375 73.6875 31.488281 73.640625 31.710938 C 73.597656 31.933594 73.742188 32.152344 73.964844 32.199219 Z M 71.945312 31.789062 C 72.167969 31.832031 72.386719 31.6875 72.433594 31.464844 C 72.476562 31.242188 72.332031 31.023438 72.109375 30.976562 C 71.886719 30.933594 71.667969 31.078125 71.621094 31.300781 C 71.578125 31.523438 71.722656 31.742188 71.945312 31.789062 Z M 67.5625 38.882812 C 67.78125 38.929688 68.058594 38.511719 68.171875 37.957031 C 68.335938 37.152344 68.578125 36.988281 69.386719 37.152344 C 69.941406 37.265625 70.433594 37.175781 70.480469 36.953125 C 70.523438 36.730469 70.289062 36.492188 69.957031 36.425781 C 69.625 36.355469 69.382812 36.070312 69.421875 35.789062 C 69.476562 35.378906 69.429688 35.371094 69.1875 35.742188 C 69.019531 35.996094 68.625 36.152344 68.308594 36.089844 C 67.925781 36.011719 67.644531 36.433594 67.449219 37.386719 C 67.289062 38.164062 67.34375 38.839844 67.566406 38.886719 Z M 64.324219 40.328125 C 64.546875 40.375 64.765625 40.230469 64.8125 40.007812 C 64.859375 39.785156 64.710938 39.566406 64.488281 39.519531 C 64.269531 39.476562 64.046875 39.621094 64.003906 39.84375 C 63.957031 40.066406 64.101562 40.285156 64.324219 40.328125 Z M 58.324219 47.097656 C 58.546875 47.144531 58.769531 46.992188 58.816406 46.757812 C 58.929688 46.207031 61.160156 44.730469 61.707031 44.84375 C 61.941406 44.890625 62.1875 44.65625 62.253906 44.324219 C 62.339844 43.902344 61.949219 43.632812 60.960938 43.433594 C 59.972656 43.230469 59.507812 43.332031 59.429688 43.714844 C 59.367188 44.03125 59.066406 44.335938 58.765625 44.390625 C 58.351562 44.46875 58.347656 44.632812 58.730469 45.082031 C 59.113281 45.523438 59.109375 45.695312 58.695312 45.773438 C 58.042969 45.898438 57.738281 46.984375 58.320312 47.101562 Z M 56.957031 45.558594 C 57.402344 45.648438 57.800781 45.539062 57.84375 45.316406 C 57.890625 45.097656 57.566406 44.839844 57.121094 44.75 C 56.675781 44.660156 56.28125 44.769531 56.234375 44.992188 C 56.191406 45.214844 56.511719 45.46875 56.957031 45.558594 Z M 56.960938 43.457031 C 57.183594 43.503906 57.40625 43.355469 57.449219 43.132812 C 57.496094 42.914062 57.347656 42.691406 57.125 42.648438 C 56.90625 42.601562 56.683594 42.746094 56.640625 42.96875 C 56.59375 43.191406 56.742188 43.414062 56.960938 43.457031 Z M 51.296875 46.507812 C 51.519531 46.550781 51.792969 46.132812 51.90625 45.578125 C 52.019531 45.023438 51.929688 44.53125 51.707031 44.488281 C 51.484375 44.441406 51.210938 44.859375 51.097656 45.414062 C 50.984375 45.96875 51.074219 46.460938 51.296875 46.507812 Z M 28.351562 47.726562 C 28.574219 47.773438 28.8125 47.539062 28.882812 47.203125 C 28.949219 46.871094 28.820312 46.5625 28.597656 46.519531 C 28.378906 46.472656 28.136719 46.707031 28.070312 47.039062 C 28.003906 47.371094 28.132812 47.683594 28.351562 47.726562 Z M 28.351562 47.726562 " fill-opacity="1" fill-rule="nonzero"/></g></g></g></g></g></g></g><g clip-path="url(#9c8c18fcce)"><g clip-path="url(#3bd0b4aaed)"><g transform="matrix(1, 0, 0, 1, 0, 6)"><g clip-path="url(#19db7804f6)"><g clip-path="url(#69c1dac858)"><g clip-path="url(#68ea2aa518)"><g clip-path="url(#df561bf6ed)"><path fill="#03134f" d="M 19.757812 45.878906 C 26.054688 44.753906 32.878906 43.195312 37.945312 41.734375 C 40.644531 40.953125 43.960938 40.003906 45.308594 39.628906 C 46.65625 39.25 47.871094 38.851562 48.011719 38.726562 C 48.152344 38.605469 49.003906 38.367188 49.90625 38.1875 C 50.808594 38.015625 51.589844 37.675781 51.636719 37.441406 C 51.683594 37.207031 51.902344 37.058594 52.125 37.101562 C 52.347656 37.148438 52.421875 37.730469 52.285156 38.394531 C 52.078125 39.40625 52.199219 39.636719 53.015625 39.804688 C 53.554688 39.914062 54.128906 39.792969 54.300781 39.539062 C 54.535156 39.179688 54.675781 39.226562 54.894531 39.726562 C 55.132812 40.28125 55.300781 40.296875 56.003906 39.828125 C 56.460938 39.527344 56.734375 39.132812 56.617188 38.953125 C 56.496094 38.769531 56.160156 38.859375 55.867188 39.132812 C 55.464844 39.519531 55.3125 39.511719 55.234375 39.097656 C 55.113281 38.449219 54.023438 38.140625 53.90625 38.722656 C 53.859375 38.945312 53.640625 39.09375 53.417969 39.046875 C 52.757812 38.914062 53.28125 37.359375 54.210938 36.714844 C 54.824219 36.285156 55.433594 36.25 56.339844 36.582031 C 57.039062 36.839844 57.578125 37.210938 57.539062 37.40625 C 57.5 37.597656 57.828125 37.832031 58.269531 37.921875 C 58.714844 38.015625 59.113281 37.902344 59.15625 37.683594 C 59.203125 37.460938 59.058594 37.238281 58.835938 37.195312 C 58.261719 37.078125 58.699219 35.410156 59.488281 34.71875 C 60.304688 34.003906 73.839844 28.496094 75.429688 28.234375 C 76.324219 28.085938 76.691406 28.214844 77.09375 28.828125 C 77.375 29.253906 77.554688 29.890625 77.480469 30.242188 C 77.410156 30.589844 77.539062 30.910156 77.757812 30.957031 C 77.980469 31 78.289062 30.417969 78.445312 29.660156 C 78.597656 28.90625 78.96875 28.238281 79.269531 28.183594 C 79.679688 28.105469 79.6875 27.945312 79.296875 27.539062 C 78.601562 26.816406 79.324219 26.496094 85.519531 24.824219 C 92.148438 23.039062 95.90625 22.734375 100.472656 23.625 C 104.871094 24.484375 106.835938 25.289062 107.695312 26.585938 C 108.046875 27.121094 108.722656 27.671875 109.1875 27.800781 C 110.488281 28.171875 113.511719 32.882812 113.253906 34.144531 C 113.140625 34.714844 113.222656 35.222656 113.4375 35.265625 C 114.125 35.40625 114.546875 37.75 114.546875 41.402344 C 114.542969 45.96875 112.023438 56.773438 108.035156 69.261719 C 102.753906 85.804688 101.078125 99.375 103.695312 104.351562 C 106.148438 109.023438 117.308594 107.15625 130.644531 99.851562 C 136.460938 96.671875 144.941406 90.09375 152.074219 83.257812 C 158.988281 76.625 184.84375 47.265625 189.433594 40.832031 C 192.269531 36.851562 192.570312 36.566406 193.566406 36.90625 C 194.089844 37.089844 195.082031 36.867188 195.992188 36.378906 C 197.699219 35.449219 197.804688 35.441406 198.683594 36.230469 C 199.027344 36.539062 199.214844 37.230469 199.105469 37.773438 C 198.996094 38.316406 199.085938 38.800781 199.308594 38.84375 C 199.53125 38.890625 199.761719 38.699219 199.816406 38.421875 C 199.894531 38.050781 200.796875 38.128906 203.324219 38.746094 C 205.28125 39.226562 206.691406 39.75 206.640625 39.988281 C 206.59375 40.226562 206.832031 40.953125 207.175781 41.628906 C 208.066406 43.390625 206.949219 48.175781 205.050781 50.738281 C 203.691406 52.578125 198.855469 60.246094 192.71875 70.296875 C 186.296875 80.820312 181.15625 91.527344 177.316406 102.386719 C 176.375 105.039062 175.535156 107.011719 175.449219 106.78125 C 175.367188 106.542969 174.878906 108.089844 174.378906 110.210938 C 173.875 112.332031 173.261719 114.230469 173.011719 114.429688 C 172.761719 114.625 172.582031 115.207031 172.609375 115.714844 C 172.640625 116.226562 172.472656 116.941406 172.242188 117.300781 C 171.761719 118.050781 170.9375 121.710938 169.203125 130.742188 L 167.988281 137.089844 L 169.074219 137.445312 C 170.015625 137.75 170.113281 137.957031 169.8125 138.988281 C 169.621094 139.640625 168.960938 142.15625 168.339844 144.570312 C 166.96875 149.929688 166.636719 150.738281 165.871094 150.582031 C 165.542969 150.515625 165.234375 150.640625 165.191406 150.855469 C 165.144531 151.089844 164.269531 150.984375 163.035156 150.609375 C 161.890625 150.253906 158.550781 149.488281 155.613281 148.902344 L 150.269531 147.84375 L 149.984375 146.417969 C 149.4375 143.648438 150.421875 135.683594 152.472656 126.214844 C 153.578125 121.125 153.785156 120.53125 154.636719 120.074219 C 155.828125 119.429688 155.890625 119.132812 154.871094 118.925781 C 154.019531 118.75 154.007812 118.246094 154.8125 117.023438 C 155.078125 116.609375 155.171875 116.03125 155.015625 115.730469 C 154.839844 115.378906 154.996094 114.660156 155.433594 113.796875 C 155.816406 113.035156 156.234375 111.550781 156.359375 110.488281 C 156.480469 109.425781 156.871094 107.957031 157.21875 107.21875 C 157.570312 106.480469 158.253906 104.539062 158.742188 102.910156 L 159.628906 99.941406 L 158.460938 100.964844 C 157.820312 101.527344 156.609375 102.511719 155.773438 103.164062 C 154.9375 103.808594 153.789062 104.757812 153.222656 105.273438 C 152.660156 105.789062 151.957031 106.160156 151.660156 106.101562 C 151.367188 106.039062 151.203125 106.199219 151.296875 106.449219 C 151.546875 107.140625 145.269531 111.441406 137.625 115.816406 C 131.359375 119.40625 121.851562 122.785156 114.210938 124.148438 C 102.9375 126.164062 92.195312 121.171875 87.90625 111.917969 C 85.308594 106.324219 84.675781 102.054688 85.160156 93.457031 C 85.460938 88.183594 85.78125 86.179688 87.640625 77.957031 C 88.925781 72.300781 90.800781 65.351562 92.320312 60.621094 C 95.09375 52.015625 97.417969 42.027344 96.851562 41.171875 C 95.9375 39.789062 88.355469 41.722656 77.003906 46.234375 C 73.773438 47.519531 70.394531 48.792969 69.492188 49.070312 C 67.421875 49.703125 66.355469 50.121094 65.105469 50.785156 C 63.992188 51.378906 57.691406 53.746094 56.664062 53.953125 C 56.304688 54.03125 53.714844 54.898438 50.914062 55.886719 C 38.847656 60.152344 22 63.765625 17.984375 62.960938 C 17.28125 62.816406 16.449219 62.324219 16.144531 61.863281 C 15.101562 60.289062 13.535156 51.007812 13.972656 49.003906 C 14.308594 47.476562 15.988281 46.5625 19.730469 45.898438 Z M 205.171875 41.5625 C 205.277344 41.722656 205.625 41.808594 205.9375 41.75 C 206.285156 41.691406 206.210938 41.574219 205.742188 41.457031 C 205.316406 41.355469 205.0625 41.398438 205.171875 41.5625 Z M 159.832031 106.910156 C 159.609375 106.867188 159.386719 107.011719 159.34375 107.234375 C 159.296875 107.457031 159.445312 107.675781 159.664062 107.722656 C 159.886719 107.765625 160.109375 107.621094 160.152344 107.398438 C 160.199219 107.175781 160.050781 106.957031 159.832031 106.910156 Z M 163.742188 95.941406 C 163.519531 95.894531 163.300781 96.039062 163.253906 96.261719 C 163.210938 96.484375 163.355469 96.703125 163.578125 96.75 C 163.800781 96.796875 164.019531 96.648438 164.066406 96.425781 C 164.109375 96.207031 163.964844 95.984375 163.742188 95.941406 Z M 163.167969 98.765625 C 162.945312 98.71875 162.726562 98.867188 162.679688 99.085938 C 162.636719 99.308594 162.78125 99.53125 163.003906 99.574219 C 163.226562 99.621094 163.445312 99.472656 163.492188 99.253906 C 163.535156 99.03125 163.390625 98.808594 163.167969 98.765625 Z M 159.300781 114.554688 C 158.503906 115.082031 158.152344 116.238281 158.753906 116.363281 C 158.976562 116.40625 159.195312 116.261719 159.242188 116.039062 C 159.285156 115.816406 159.59375 115.6875 159.929688 115.757812 C 160.261719 115.824219 160.605469 115.519531 160.695312 115.074219 C 160.890625 114.132812 160.28125 113.902344 159.300781 114.546875 Z M 164.402344 100.113281 C 163.433594 100.273438 163.414062 100.917969 164.371094 101.113281 C 164.824219 101.203125 165.230469 101.011719 165.300781 100.671875 C 165.4375 99.996094 165.371094 99.953125 164.398438 100.113281 Z M 168.585938 96.925781 C 168.367188 96.878906 168.144531 97.035156 168.09375 97.273438 C 167.949219 97.984375 166.679688 98.640625 165.785156 98.457031 C 165.324219 98.363281 164.910156 98.472656 164.863281 98.695312 C 164.710938 99.460938 166.4375 99.429688 167.625 98.640625 C 168.863281 97.824219 169.289062 97.066406 168.585938 96.925781 Z M 166.558594 100.714844 C 166.511719 100.9375 166.660156 101.15625 166.878906 101.203125 C 167.101562 101.246094 167.324219 101.101562 167.367188 100.878906 C 167.414062 100.65625 167.265625 100.4375 167.046875 100.390625 C 166.824219 100.347656 166.601562 100.492188 166.558594 100.714844 Z M 167.234375 104.636719 C 166.902344 104.570312 166.683594 104.242188 166.753906 103.910156 C 166.820312 103.574219 166.691406 103.265625 166.46875 103.222656 C 166.246094 103.175781 166.011719 103.394531 165.949219 103.710938 C 165.882812 104.027344 166.039062 104.433594 166.289062 104.617188 C 166.65625 104.890625 166.636719 104.984375 166.195312 105.089844 C 165.257812 105.316406 165.433594 105.953125 166.5 106.167969 C 167.238281 106.320312 167.554688 106.160156 167.675781 105.570312 C 167.765625 105.121094 167.570312 104.710938 167.234375 104.640625 Z M 162.640625 127.242188 C 162.972656 127.308594 163.28125 127.183594 163.328125 126.960938 C 163.371094 126.738281 163.136719 126.5 162.804688 126.433594 C 162.472656 126.363281 162.160156 126.492188 162.117188 126.714844 C 162.070312 126.9375 162.304688 127.175781 162.640625 127.242188 Z M 161.542969 129.539062 C 161.496094 129.761719 161.730469 130 162.066406 130.066406 C 162.398438 130.136719 162.707031 130.007812 162.753906 129.785156 C 162.796875 129.5625 162.5625 129.324219 162.230469 129.257812 C 161.898438 129.1875 161.585938 129.316406 161.542969 129.539062 Z M 167.617188 109.996094 C 167.539062 110.390625 168.46875 111.609375 168.925781 111.703125 C 169.164062 111.75 169.394531 111.605469 169.441406 111.382812 C 169.484375 111.164062 169.25 110.925781 168.917969 110.855469 C 168.585938 110.789062 168.351562 110.550781 168.394531 110.328125 C 168.441406 110.105469 168.292969 109.886719 168.070312 109.839844 C 167.851562 109.796875 167.644531 109.863281 167.621094 109.992188 Z M 167.191406 114.238281 C 166.816406 114.398438 166.636719 114.710938 166.789062 114.925781 C 166.941406 115.140625 167.195312 115.113281 167.351562 114.855469 C 167.507812 114.597656 167.894531 114.441406 168.207031 114.503906 C 168.542969 114.570312 168.859375 114.214844 168.980469 113.609375 C 169.144531 112.804688 168.988281 112.558594 168.175781 112.394531 C 167.578125 112.273438 167.121094 112.421875 167.050781 112.761719 C 166.988281 113.078125 167.144531 113.472656 167.398438 113.640625 C 167.75 113.871094 167.695312 114.019531 167.183594 114.238281 Z M 178.71875 61.574219 C 178.5 61.527344 178.277344 61.675781 178.234375 61.898438 C 178.1875 62.117188 178.335938 62.339844 178.554688 62.382812 C 178.777344 62.429688 179 62.285156 179.042969 62.0625 C 179.089844 61.839844 178.941406 61.621094 178.71875 61.574219 Z M 171.371094 98.75 C 171.039062 98.683594 170.695312 98.976562 170.609375 99.398438 C 170.523438 99.828125 170.210938 100.207031 169.910156 100.25 C 169.597656 100.296875 169.488281 100.507812 169.65625 100.761719 C 169.824219 101.015625 170.0625 100.992188 170.226562 100.726562 C 170.382812 100.46875 170.765625 100.308594 171.078125 100.371094 C 171.386719 100.433594 171.722656 100.128906 171.8125 99.683594 C 171.902344 99.238281 171.710938 98.824219 171.371094 98.757812 Z M 169.894531 106.015625 C 169.5625 105.949219 169.222656 106.238281 169.136719 106.660156 C 169.050781 107.082031 169.230469 107.585938 169.535156 107.78125 C 169.941406 108.035156 170.152344 107.859375 170.296875 107.136719 C 170.421875 106.523438 170.265625 106.089844 169.894531 106.015625 Z M 171.808594 101.78125 C 171.585938 101.734375 171.328125 102.058594 171.238281 102.503906 C 171.148438 102.949219 171.257812 103.34375 171.480469 103.390625 C 171.703125 103.433594 171.960938 103.113281 172.050781 102.667969 C 172.140625 102.222656 172.03125 101.824219 171.808594 101.78125 Z M 170.332031 109.046875 C 170.109375 109 169.871094 109.234375 169.804688 109.570312 C 169.734375 109.902344 169.863281 110.210938 170.085938 110.257812 C 170.308594 110.300781 170.546875 110.066406 170.613281 109.734375 C 170.679688 109.398438 170.554688 109.089844 170.332031 109.046875 Z M 170.765625 112.078125 C 170.433594 112.007812 170.125 112.136719 170.082031 112.359375 C 170.035156 112.582031 170.269531 112.820312 170.601562 112.886719 C 170.9375 112.953125 171.246094 112.828125 171.289062 112.605469 C 171.335938 112.382812 171.101562 112.144531 170.765625 112.078125 Z M 170.355469 114.097656 C 170.019531 114.027344 169.679688 114.335938 169.589844 114.777344 C 169.496094 115.222656 169.691406 115.636719 170.03125 115.707031 C 170.367188 115.773438 170.707031 115.46875 170.796875 115.023438 C 170.886719 114.582031 170.695312 114.164062 170.355469 114.097656 Z M 172.582031 112.445312 C 172.804688 112.492188 173.023438 112.34375 173.070312 112.121094 C 173.113281 111.898438 172.96875 111.679688 172.746094 111.636719 C 172.523438 111.589844 172.304688 111.734375 172.257812 111.957031 C 172.214844 112.179688 172.359375 112.398438 172.582031 112.445312 Z M 170.183594 117.003906 C 169.628906 116.890625 169.136719 116.980469 169.089844 117.203125 C 169.042969 117.425781 169.460938 117.699219 170.015625 117.8125 C 170.574219 117.925781 171.066406 117.835938 171.109375 117.613281 C 171.15625 117.390625 170.738281 117.117188 170.183594 117.003906 Z M 169.640625 122.777344 C 169.859375 122.820312 170.136719 122.402344 170.25 121.847656 C 170.363281 121.292969 170.269531 120.800781 170.050781 120.753906 C 169.828125 120.710938 169.550781 121.128906 169.4375 121.683594 C 169.324219 122.238281 169.417969 122.730469 169.640625 122.777344 Z M 169.1875 120.328125 C 169.964844 119.953125 169.96875 119.925781 169.300781 119.777344 C 168.914062 119.691406 168.636719 119.4375 168.679688 119.21875 C 168.726562 118.996094 168.578125 118.773438 168.359375 118.730469 C 168.125 118.683594 167.679688 119.992188 167.296875 121.878906 C 166.765625 124.480469 166.523438 125.085938 166.035156 124.984375 C 165.699219 124.917969 165.390625 125.046875 165.347656 125.265625 C 165.300781 125.488281 164.902344 125.597656 164.460938 125.507812 C 164.015625 125.417969 163.617188 125.527344 163.574219 125.75 C 163.527344 125.972656 163.851562 126.230469 164.296875 126.320312 C 164.738281 126.410156 165.136719 126.300781 165.183594 126.078125 C 165.226562 125.855469 165.457031 125.710938 165.699219 125.761719 C 166.691406 125.960938 167.53125 124.863281 167.945312 122.824219 C 168.257812 121.292969 168.597656 120.617188 169.1875 120.328125 Z M 166.058594 130.035156 C 166.28125 130.082031 166.519531 129.847656 166.585938 129.511719 C 166.65625 129.179688 166.527344 128.871094 166.304688 128.824219 C 166.082031 128.78125 165.84375 129.015625 165.777344 129.347656 C 165.710938 129.679688 165.835938 129.992188 166.058594 130.035156 Z M 162.902344 133.179688 C 163.34375 133.269531 163.667969 133.527344 163.625 133.746094 C 163.578125 133.96875 163.8125 134.207031 164.144531 134.277344 C 164.480469 134.34375 164.789062 134.214844 164.832031 133.992188 C 164.878906 133.773438 164.722656 133.550781 164.484375 133.5 C 163.921875 133.386719 163.105469 132.152344 163.21875 131.589844 C 163.265625 131.351562 163.121094 131.121094 162.902344 131.074219 C 162.679688 131.03125 162.402344 131.449219 162.289062 132.003906 C 162.140625 132.742188 162.300781 133.058594 162.890625 133.175781 Z M 159.351562 143.386719 C 159.683594 143.453125 159.996094 143.328125 160.039062 143.105469 C 160.085938 142.882812 159.851562 142.644531 159.515625 142.574219 C 159.183594 142.507812 158.875 142.636719 158.828125 142.859375 C 158.785156 143.082031 159.019531 143.320312 159.351562 143.386719 Z M 159.164062 139.144531 C 159.382812 139.191406 159.605469 139.046875 159.648438 138.824219 C 159.695312 138.601562 159.546875 138.382812 159.328125 138.335938 C 159.105469 138.289062 158.882812 138.4375 158.839844 138.660156 C 158.792969 138.878906 158.941406 139.101562 159.164062 139.144531 Z M 161.613281 116.734375 C 161.808594 116.917969 162.007812 116.871094 162.054688 116.640625 C 162.175781 116.039062 163.269531 116.332031 163.367188 116.988281 C 163.410156 117.300781 163.621094 117.410156 163.875 117.242188 C 164.128906 117.074219 164.105469 116.835938 163.839844 116.671875 C 163.582031 116.515625 163.441406 116.042969 163.527344 115.617188 C 163.617188 115.1875 163.414062 114.789062 163.082031 114.722656 C 162.703125 114.644531 162.554688 114.214844 162.679688 113.589844 C 162.921875 112.402344 162.710938 112.292969 161.609375 113.023438 C 161.023438 113.414062 160.925781 113.636719 161.265625 113.832031 C 161.527344 113.984375 161.628906 114.621094 161.5 115.253906 C 161.371094 115.886719 161.425781 116.558594 161.617188 116.742188 Z M 158.0625 130.089844 C 158.28125 130.136719 158.503906 129.992188 158.546875 129.769531 C 158.59375 129.546875 158.449219 129.328125 158.226562 129.28125 C 158.003906 129.234375 157.78125 129.382812 157.738281 129.605469 C 157.691406 129.824219 157.839844 130.046875 158.0625 130.089844 Z M 157.957031 123.34375 C 158.558594 123.464844 159.015625 123.316406 159.085938 122.976562 C 159.148438 122.660156 159.4375 122.378906 159.722656 122.34375 C 160.109375 122.296875 160.125 122.074219 159.789062 121.496094 C 159.125 120.34375 158.363281 120.339844 158.128906 121.488281 C 158.015625 122.042969 157.738281 122.460938 157.515625 122.414062 C 157.296875 122.371094 157.074219 122.515625 157.03125 122.738281 C 156.984375 122.960938 157.402344 123.234375 157.957031 123.347656 Z M 153.046875 137.054688 C 153.144531 137.074219 153.371094 136.929688 153.554688 136.734375 C 153.738281 136.542969 153.691406 136.339844 153.460938 136.292969 C 153.226562 136.246094 152.996094 136.390625 152.949219 136.613281 C 152.90625 136.835938 152.945312 137.03125 153.046875 137.054688 Z M 156.753906 120.996094 C 157.085938 121.0625 157.394531 120.933594 157.441406 120.710938 C 157.488281 120.492188 157.25 120.253906 156.917969 120.183594 C 156.585938 120.117188 156.277344 120.246094 156.230469 120.464844 C 156.1875 120.6875 156.421875 120.925781 156.753906 120.996094 Z M 155.679688 116.992188 C 155.457031 116.945312 155.234375 117.089844 155.191406 117.3125 C 155.144531 117.535156 155.292969 117.753906 155.511719 117.800781 C 155.734375 117.847656 155.957031 117.699219 156 117.476562 C 156.046875 117.257812 155.898438 117.035156 155.679688 116.992188 Z M 155.257812 96.308594 C 155.480469 96.351562 155.703125 96.207031 155.746094 95.984375 C 155.792969 95.761719 155.644531 95.542969 155.421875 95.496094 C 155.203125 95.453125 154.980469 95.597656 154.9375 95.820312 C 154.890625 96.042969 155.035156 96.261719 155.257812 96.308594 Z M 154.460938 94.042969 C 154.679688 94.085938 154.902344 93.941406 154.945312 93.71875 C 154.992188 93.496094 154.847656 93.277344 154.625 93.230469 C 154.402344 93.1875 154.183594 93.332031 154.136719 93.554688 C 154.089844 93.777344 154.238281 93.996094 154.460938 94.042969 Z M 153.699219 89.5 C 153.769531 89.15625 153.644531 88.835938 153.421875 88.789062 C 153.199219 88.746094 152.984375 88.878906 152.941406 89.085938 C 152.898438 89.292969 153.023438 89.617188 153.21875 89.796875 C 153.414062 89.980469 153.628906 89.84375 153.699219 89.5 Z M 149.496094 106.066406 C 149.71875 106.109375 149.9375 105.964844 149.984375 105.742188 C 150.027344 105.519531 149.882812 105.300781 149.660156 105.253906 C 149.4375 105.210938 149.21875 105.355469 149.171875 105.578125 C 149.128906 105.800781 149.273438 106.019531 149.496094 106.066406 Z M 148.121094 106.625 C 148.34375 106.667969 148.566406 106.523438 148.609375 106.300781 C 148.65625 106.078125 148.507812 105.859375 148.285156 105.8125 C 148.066406 105.769531 147.84375 105.914062 147.800781 106.136719 C 147.753906 106.359375 147.898438 106.578125 148.121094 106.625 Z M 147.808594 101.964844 C 147.554688 103.214844 148.269531 104.898438 148.878906 104.496094 C 149.058594 104.375 149.039062 104.109375 148.832031 103.90625 C 148.238281 103.324219 148.382812 101.246094 148.992188 101.628906 C 149.269531 101.804688 149.535156 101.746094 149.585938 101.5 C 149.636719 101.257812 149.316406 100.976562 148.871094 100.886719 C 148.238281 100.757812 148.011719 100.988281 147.816406 101.960938 Z M 145.707031 104.03125 C 145.929688 104.074219 146.148438 103.929688 146.195312 103.707031 C 146.242188 103.484375 146.09375 103.265625 145.871094 103.21875 C 145.652344 103.175781 145.429688 103.320312 145.386719 103.542969 C 145.339844 103.765625 145.484375 103.984375 145.707031 104.03125 Z M 79.9375 30.554688 C 80.160156 30.601562 80.378906 30.453125 80.425781 30.234375 C 80.472656 30.011719 80.324219 29.789062 80.101562 29.746094 C 79.882812 29.699219 79.660156 29.84375 79.617188 30.066406 C 79.570312 30.289062 79.714844 30.511719 79.9375 30.554688 Z M 76.101562 29.777344 C 76.4375 29.84375 76.746094 29.714844 76.789062 29.492188 C 76.835938 29.269531 76.601562 29.035156 76.265625 28.964844 C 75.933594 28.898438 75.625 29.027344 75.582031 29.246094 C 75.535156 29.46875 75.769531 29.707031 76.101562 29.777344 Z M 74.109375 34.414062 C 74.332031 34.460938 74.550781 34.316406 74.59375 34.09375 C 74.640625 33.871094 74.496094 33.652344 74.273438 33.605469 C 74.050781 33.558594 73.832031 33.707031 73.785156 33.929688 C 73.742188 34.148438 73.886719 34.371094 74.109375 34.414062 Z M 73.714844 32.230469 C 73.9375 32.277344 74.15625 32.128906 74.203125 31.910156 C 74.246094 31.6875 74.101562 31.464844 73.878906 31.421875 C 73.65625 31.375 73.4375 31.523438 73.390625 31.742188 C 73.347656 31.964844 73.492188 32.1875 73.714844 32.230469 Z M 71.695312 31.820312 C 71.914062 31.867188 72.136719 31.71875 72.179688 31.496094 C 72.226562 31.277344 72.082031 31.054688 71.859375 31.011719 C 71.636719 30.964844 71.414062 31.113281 71.371094 31.332031 C 71.324219 31.554688 71.472656 31.777344 71.695312 31.820312 Z M 67.308594 38.917969 C 67.53125 38.960938 67.808594 38.542969 67.921875 37.988281 C 68.082031 37.183594 68.324219 37.019531 69.136719 37.183594 C 69.691406 37.296875 70.183594 37.207031 70.226562 36.984375 C 70.273438 36.761719 70.039062 36.523438 69.707031 36.457031 C 69.371094 36.390625 69.128906 36.101562 69.171875 35.820312 C 69.222656 35.410156 69.179688 35.402344 68.9375 35.773438 C 68.769531 36.027344 68.375 36.1875 68.058594 36.121094 C 67.675781 36.042969 67.390625 36.464844 67.199219 37.421875 C 67.039062 38.199219 67.09375 38.875 67.316406 38.917969 Z M 64.074219 40.363281 C 64.296875 40.40625 64.515625 40.261719 64.5625 40.039062 C 64.605469 39.816406 64.460938 39.597656 64.238281 39.554688 C 64.015625 39.507812 63.796875 39.652344 63.75 39.875 C 63.707031 40.097656 63.851562 40.316406 64.074219 40.363281 Z M 58.074219 47.128906 C 58.296875 47.175781 58.519531 47.023438 58.566406 46.792969 C 58.675781 46.242188 60.90625 44.765625 61.457031 44.875 C 61.691406 44.925781 61.933594 44.691406 62.003906 44.359375 C 62.089844 43.9375 61.699219 43.664062 60.710938 43.464844 C 59.722656 43.265625 59.257812 43.367188 59.179688 43.75 C 59.113281 44.066406 58.816406 44.367188 58.515625 44.421875 C 58.101562 44.5 58.097656 44.667969 58.480469 45.113281 C 58.863281 45.558594 58.855469 45.730469 58.441406 45.808594 C 57.792969 45.929688 57.484375 47.015625 58.070312 47.136719 Z M 56.707031 45.59375 C 57.148438 45.683594 57.546875 45.574219 57.59375 45.351562 C 57.636719 45.128906 57.316406 44.871094 56.871094 44.78125 C 56.425781 44.691406 56.027344 44.800781 55.984375 45.023438 C 55.9375 45.246094 56.261719 45.503906 56.707031 45.59375 Z M 56.710938 43.492188 C 56.933594 43.535156 57.152344 43.390625 57.199219 43.167969 C 57.242188 42.945312 57.097656 42.726562 56.875 42.679688 C 56.652344 42.632812 56.433594 42.78125 56.386719 43.003906 C 56.34375 43.222656 56.488281 43.445312 56.710938 43.492188 Z M 51.046875 46.539062 C 51.269531 46.585938 51.542969 46.167969 51.65625 45.613281 C 51.769531 45.058594 51.679688 44.566406 51.457031 44.519531 C 51.234375 44.476562 50.960938 44.894531 50.847656 45.449219 C 50.734375 46.003906 50.824219 46.496094 51.046875 46.539062 Z M 28.101562 47.761719 C 28.324219 47.804688 28.5625 47.570312 28.628906 47.238281 C 28.699219 46.90625 28.570312 46.59375 28.347656 46.550781 C 28.125 46.503906 27.886719 46.738281 27.820312 47.074219 C 27.753906 47.40625 27.878906 47.714844 28.101562 47.761719 Z M 28.101562 47.761719 " fill-opacity="1" fill-rule="nonzero"/></g></g></g></g></g></g></g></svg>