<svg xmlns="http://www.w3.org/2000/svg" xmlns:xlink="http://www.w3.org/1999/xlink" width="176" zoomAndPan="magnify" viewBox="0 0 132 125.249995" height="167" preserveAspectRatio="xMidYMid meet" version="1.0"><defs><clipPath id="c0d6a46762"><path d="M 0.394531 0 L 131.605469 0 L 131.605469 122 L 0.394531 122 Z M 0.394531 0 " clip-rule="nonzero"/></clipPath><clipPath id="497d7327fb"><path d="M 0.394531 77.292969 L 36.378906 0.296875 L 131.613281 44.804688 L 95.628906 121.800781 Z M 0.394531 77.292969 " clip-rule="nonzero"/></clipPath><clipPath id="23c4e19e02"><path d="M 8 41 L 131 41 L 131 88 L 8 88 Z M 8 41 " clip-rule="nonzero"/></clipPath><clipPath id="2ccc770361"><path d="M 0.394531 77.292969 L 36.378906 0.296875 L 131.613281 44.804688 L 95.628906 121.800781 Z M 0.394531 77.292969 " clip-rule="nonzero"/></clipPath><clipPath id="6f7bf1ab4e"><path d="M 95.425781 121.707031 L 131.410156 44.710938 L 36.179688 0.203125 L 0.195312 77.199219 Z M 95.425781 121.707031 " clip-rule="nonzero"/></clipPath><clipPath id="965e87ef9c"><rect x="0" width="132" y="0" height="122"/></clipPath><clipPath id="75808667f2"><path d="M 0.394531 2 L 131.605469 2 L 131.605469 124 L 0.394531 124 Z M 0.394531 2 " clip-rule="nonzero"/></clipPath><clipPath id="5e752571ad"><path d="M 0.433594 79.421875 L 36.417969 2.421875 L 131.652344 46.929688 L 95.667969 123.929688 Z M 0.433594 79.421875 " clip-rule="nonzero"/></clipPath><clipPath id="77bcf5f90c"><path d="M 8 42 L 131 42 L 131 88 L 8 88 Z M 8 42 " clip-rule="nonzero"/></clipPath><clipPath id="cdd20bbae1"><path d="M 0.433594 77.421875 L 36.417969 0.421875 L 131.652344 44.929688 L 95.667969 121.929688 Z M 0.433594 77.421875 " clip-rule="nonzero"/></clipPath><clipPath id="8440f64af0"><path d="M 95.464844 121.835938 L 131.453125 44.835938 L 36.21875 0.328125 L 0.234375 77.328125 Z M 95.464844 121.835938 " clip-rule="nonzero"/></clipPath><clipPath id="cb4b90b5c6"><rect x="0" width="132" y="0" height="122"/></clipPath></defs><g clip-path="url(#c0d6a46762)"><g clip-path="url(#497d7327fb)"><g transform="matrix(1, 0, 0, 1, 0, 0.000000000000008299)"><g clip-path="url(#965e87ef9c)"><g clip-path="url(#23c4e19e02)"><g clip-path="url(#2ccc770361)"><g clip-path="url(#6f7bf1ab4e)"><path fill="#469ff3" d="M 15.277344 84.023438 C 17.753906 85.113281 21.675781 86.171875 24.863281 86.609375 C 25.246094 86.660156 25.691406 86.726562 25.851562 86.757812 C 26.179688 86.816406 28.472656 87.027344 31.226562 87.253906 C 33.566406 87.449219 38.21875 87.28125 40.519531 86.925781 C 41.503906 86.773438 42.367188 86.617188 42.445312 86.578125 C 42.519531 86.539062 42.722656 86.515625 42.890625 86.527344 C 43.40625 86.566406 47.796875 85.335938 48.96875 84.824219 C 51.515625 83.710938 55.136719 81.28125 56.796875 79.570312 L 57.738281 78.601562 L 61.375 78.484375 C 63.375 78.421875 65.652344 78.316406 66.4375 78.25 C 67.226562 78.183594 68.550781 78.105469 69.378906 78.074219 C 70.207031 78.042969 71.570312 77.917969 72.40625 77.800781 C 73.242188 77.679688 73.972656 77.609375 74.035156 77.636719 C 74.230469 77.726562 81.417969 76.640625 82.910156 76.296875 C 83.691406 76.113281 84.902344 75.867188 85.601562 75.746094 C 88.769531 75.191406 92.957031 74.011719 97.191406 72.484375 C 99.71875 71.570312 102.21875 70.601562 102.746094 70.335938 C 103.269531 70.066406 104.070312 69.679688 104.523438 69.472656 C 104.980469 69.269531 105.933594 68.75 106.644531 68.328125 C 107.359375 67.902344 108.046875 67.535156 108.175781 67.511719 C 108.304688 67.488281 108.34375 67.433594 108.265625 67.394531 C 108.1875 67.359375 108.492188 67.136719 108.9375 66.910156 C 110.242188 66.253906 116.558594 61.988281 118.429688 60.5 C 118.847656 60.171875 119.5 59.667969 119.878906 59.378906 C 121.910156 57.839844 124.613281 55.058594 127.71875 51.300781 C 128.871094 49.90625 130.042969 47.640625 130.113281 46.664062 C 130.144531 46.238281 130.003906 46.003906 129.476562 45.613281 C 128.929688 45.207031 128.839844 45.046875 129.003906 44.777344 C 129.136719 44.554688 129.085938 44.277344 128.851562 43.976562 C 128.652344 43.722656 128.457031 43.363281 128.414062 43.179688 C 128.375 42.996094 128.21875 42.859375 128.066406 42.878906 C 127.921875 42.894531 127.296875 42.71875 126.6875 42.484375 C 125.535156 42.046875 123.800781 41.742188 123.515625 41.929688 C 123.425781 41.988281 123.21875 42.492188 123.058594 43.050781 C 122.636719 44.507812 121.746094 45.832031 119.398438 48.515625 C 116.308594 52.042969 115.257812 52.941406 109.890625 56.613281 C 103.464844 61.015625 100.210938 62.804688 95.457031 64.546875 C 90.140625 66.496094 84.335938 67.933594 77.539062 68.976562 C 75.71875 69.257812 74.058594 69.515625 73.847656 69.546875 C 73.636719 69.578125 73.359375 69.730469 73.230469 69.886719 C 72.984375 70.183594 72.558594 70.117188 72.707031 69.804688 C 72.753906 69.703125 72.691406 69.632812 72.566406 69.644531 C 72.445312 69.660156 72.253906 69.863281 72.144531 70.09375 C 72.035156 70.328125 72.023438 70.558594 72.121094 70.601562 C 72.214844 70.644531 72.242188 70.792969 72.179688 70.929688 C 72.117188 71.066406 72.148438 71.253906 72.246094 71.347656 C 72.378906 71.472656 72.3125 71.5625 72.003906 71.675781 C 71.40625 71.890625 71.34375 71.8125 71.628906 71.203125 C 71.875 70.671875 71.777344 70.019531 71.425781 69.855469 C 71.167969 69.734375 71.050781 70.046875 71.269531 70.265625 C 71.371094 70.363281 71.359375 70.484375 71.242188 70.527344 C 71.125 70.574219 71.015625 70.476562 70.996094 70.316406 C 70.972656 70.101562 70.851562 70.027344 70.550781 70.046875 C 70.328125 70.0625 69.679688 70.078125 69.113281 70.078125 C 68.550781 70.078125 68.160156 70.152344 68.25 70.230469 C 68.574219 70.539062 68.242188 70.695312 67.796875 70.449219 C 67.320312 70.179688 65.351562 70.128906 65.234375 70.382812 C 65.195312 70.460938 65.066406 70.480469 64.945312 70.421875 C 64.828125 70.367188 63.773438 70.355469 62.609375 70.398438 L 60.496094 70.472656 L 60.363281 69.453125 C 60.007812 66.691406 57.992188 63.472656 55.214844 61.230469 C 51.3125 58.078125 45.332031 55.074219 40.402344 53.785156 C 33.496094 51.976562 23.296875 51.050781 18.144531 51.761719 C 15.714844 52.097656 13.644531 52.84375 12.421875 53.824219 C 11.160156 54.835938 10.183594 56.34375 9.875 57.757812 C 9.234375 60.679688 10.683594 63.613281 14.371094 66.882812 C 16.777344 69.007812 19.519531 70.640625 23.824219 72.5 C 28.859375 74.675781 31.460938 75.523438 35.296875 76.253906 C 36.472656 76.476562 37.8125 76.765625 38.273438 76.898438 C 38.734375 77.03125 40.28125 77.273438 41.714844 77.4375 C 44.28125 77.726562 44.949219 77.9375 43.855469 78.105469 C 43.546875 78.152344 42.859375 78.300781 42.324219 78.4375 C 41.789062 78.570312 41.160156 78.730469 40.929688 78.789062 C 40.695312 78.847656 40.453125 78.871094 40.386719 78.84375 C 40.324219 78.8125 39.652344 78.875 38.898438 78.980469 C 37.113281 79.230469 32.757812 79.265625 30.171875 79.050781 C 25.019531 78.621094 21.847656 77.894531 17.277344 76.089844 C 13.417969 74.570312 12.707031 74.460938 10.792969 75.117188 C 9.878906 75.429688 9.144531 75.816406 8.929688 76.101562 C 8.433594 76.746094 8.242188 78.667969 8.621094 79.15625 C 8.785156 79.359375 9.023438 79.765625 9.148438 80.058594 C 9.277344 80.347656 9.585938 80.75 9.832031 80.945312 C 11.4375 82.230469 12.554688 82.972656 13.199219 83.1875 C 13.609375 83.320312 14.535156 83.695312 15.261719 84.015625 Z M 73.351562 70.171875 C 73.484375 70.183594 73.53125 70.320312 73.460938 70.472656 C 73.390625 70.621094 73.210938 70.6875 73.058594 70.617188 C 72.753906 70.476562 72.980469 70.125 73.355469 70.167969 Z M 73.761719 70.738281 C 73.808594 70.640625 73.921875 70.601562 74.019531 70.644531 C 74.113281 70.6875 74.15625 70.804688 74.109375 70.898438 C 74.066406 70.996094 73.949219 71.039062 73.855469 70.992188 C 73.761719 70.949219 73.71875 70.832031 73.761719 70.738281 Z M 70.414062 70.652344 C 70.457031 70.558594 70.574219 70.515625 70.671875 70.5625 C 70.765625 70.605469 70.808594 70.722656 70.761719 70.816406 C 70.71875 70.914062 70.601562 70.953125 70.507812 70.910156 C 70.410156 70.863281 70.371094 70.75 70.414062 70.652344 Z M 69.703125 71.273438 C 69.769531 71.128906 69.902344 71.050781 70 71.09375 C 70.09375 71.136719 70.117188 71.292969 70.050781 71.4375 C 69.984375 71.578125 69.851562 71.660156 69.753906 71.613281 C 69.660156 71.570312 69.636719 71.417969 69.703125 71.273438 Z M 57.058594 74.78125 C 57.011719 74.875 56.898438 74.917969 56.800781 74.871094 C 56.707031 74.828125 56.664062 74.710938 56.710938 74.617188 C 56.753906 74.523438 56.871094 74.480469 56.964844 74.523438 C 57.058594 74.570312 57.101562 74.683594 57.058594 74.78125 Z M 67.03125 75.632812 C 66.988281 75.726562 66.871094 75.769531 66.777344 75.726562 C 66.679688 75.679688 66.636719 75.5625 66.683594 75.46875 C 66.726562 75.375 66.84375 75.332031 66.9375 75.375 C 67.035156 75.421875 67.074219 75.535156 67.03125 75.632812 Z M 21.398438 62.09375 C 19.484375 60.609375 19 60.148438 19.160156 59.980469 C 19.246094 59.890625 19.902344 59.773438 20.617188 59.722656 C 25.039062 59.40625 33.507812 60.359375 38.800781 61.769531 C 40.988281 62.351562 47.316406 65.375 49.003906 66.648438 C 50.449219 67.738281 52.179688 69.621094 52.148438 70.074219 C 52.125 70.398438 51.738281 70.398438 48.042969 70.070312 C 42.433594 69.574219 37.304688 68.625 32.265625 67.148438 C 29.394531 66.308594 23.003906 63.332031 21.402344 62.089844 Z M 44.207031 79.855469 C 44.019531 79.660156 44.03125 79.601562 44.273438 79.570312 C 44.4375 79.550781 44.632812 79.558594 44.707031 79.589844 C 44.777344 79.625 44.785156 79.765625 44.714844 79.910156 C 44.578125 80.203125 44.542969 80.203125 44.210938 79.859375 Z M 44.207031 79.855469 " fill-opacity="1" fill-rule="nonzero"/></g></g></g></g></g></g></g><g clip-path="url(#75808667f2)"><g clip-path="url(#5e752571ad)"><g transform="matrix(1, 0, 0, 1, 0, 2)"><g clip-path="url(#cb4b90b5c6)"><g clip-path="url(#77bcf5f90c)"><g clip-path="url(#cdd20bbae1)"><g clip-path="url(#8440f64af0)"><path fill="#469ff3" d="M 15.316406 84.148438 C 17.792969 85.238281 21.714844 86.300781 24.902344 86.734375 C 25.285156 86.789062 25.730469 86.855469 25.890625 86.882812 C 26.21875 86.941406 28.511719 87.15625 31.265625 87.382812 C 33.605469 87.574219 38.257812 87.410156 40.558594 87.054688 C 41.542969 86.902344 42.40625 86.746094 42.484375 86.703125 C 42.558594 86.664062 42.761719 86.640625 42.929688 86.652344 C 43.445312 86.691406 47.835938 85.460938 49.007812 84.953125 C 51.554688 83.839844 55.175781 81.410156 56.835938 79.699219 L 57.777344 78.730469 L 61.414062 78.613281 C 63.414062 78.546875 65.691406 78.445312 66.476562 78.378906 C 67.265625 78.3125 68.589844 78.230469 69.417969 78.199219 C 70.25 78.167969 71.609375 78.046875 72.445312 77.925781 C 73.28125 77.808594 74.011719 77.734375 74.074219 77.765625 C 74.269531 77.855469 81.457031 76.765625 82.949219 76.421875 C 83.730469 76.242188 84.941406 75.992188 85.640625 75.871094 C 88.808594 75.320312 92.996094 74.140625 97.230469 72.609375 C 99.757812 71.699219 102.257812 70.730469 102.785156 70.460938 C 103.308594 70.191406 104.109375 69.804688 104.566406 69.601562 C 105.019531 69.394531 105.972656 68.878906 106.6875 68.453125 C 107.398438 68.03125 108.089844 67.664062 108.214844 67.640625 C 108.34375 67.613281 108.382812 67.5625 108.304688 67.523438 C 108.226562 67.484375 108.53125 67.265625 108.976562 67.039062 C 110.28125 66.378906 116.597656 62.117188 118.472656 60.628906 C 118.886719 60.300781 119.539062 59.796875 119.917969 59.507812 C 121.949219 57.96875 124.652344 55.183594 127.757812 51.425781 C 128.910156 50.035156 130.082031 47.769531 130.152344 46.792969 C 130.183594 46.367188 130.042969 46.132812 129.515625 45.742188 C 128.96875 45.332031 128.878906 45.175781 129.042969 44.902344 C 129.175781 44.683594 129.125 44.40625 128.890625 44.101562 C 128.695312 43.847656 128.496094 43.488281 128.457031 43.304688 C 128.414062 43.125 128.257812 42.988281 128.109375 43.003906 C 127.960938 43.023438 127.335938 42.84375 126.726562 42.613281 C 125.574219 42.171875 123.839844 41.867188 123.554688 42.054688 C 123.464844 42.117188 123.257812 42.621094 123.097656 43.179688 C 122.675781 44.632812 121.789062 45.960938 119.4375 48.640625 C 116.347656 52.167969 115.296875 53.066406 109.929688 56.742188 C 103.503906 61.144531 100.25 62.929688 95.496094 64.675781 C 90.179688 66.625 84.375 68.058594 77.578125 69.105469 C 75.757812 69.382812 74.101562 69.640625 73.886719 69.671875 C 73.675781 69.707031 73.398438 69.859375 73.269531 70.015625 C 73.023438 70.308594 72.597656 70.242188 72.746094 69.929688 C 72.792969 69.832031 72.730469 69.757812 72.605469 69.773438 C 72.484375 69.789062 72.292969 69.988281 72.183594 70.222656 C 72.074219 70.453125 72.066406 70.683594 72.160156 70.726562 C 72.253906 70.773438 72.28125 70.917969 72.21875 71.054688 C 72.15625 71.191406 72.1875 71.382812 72.285156 71.472656 C 72.417969 71.601562 72.351562 71.6875 72.042969 71.800781 C 71.445312 72.019531 71.382812 71.9375 71.667969 71.328125 C 71.914062 70.796875 71.816406 70.148438 71.464844 69.980469 C 71.207031 69.859375 71.089844 70.171875 71.308594 70.390625 C 71.410156 70.492188 71.398438 70.609375 71.28125 70.65625 C 71.167969 70.699219 71.054688 70.605469 71.035156 70.445312 C 71.011719 70.230469 70.890625 70.15625 70.589844 70.175781 C 70.367188 70.191406 69.71875 70.203125 69.152344 70.207031 C 68.589844 70.207031 68.199219 70.277344 68.289062 70.359375 C 68.613281 70.667969 68.28125 70.824219 67.835938 70.574219 C 67.359375 70.304688 65.390625 70.257812 65.273438 70.511719 C 65.234375 70.589844 65.105469 70.605469 64.984375 70.550781 C 64.867188 70.496094 63.8125 70.480469 62.648438 70.523438 L 60.535156 70.601562 L 60.402344 69.582031 C 60.046875 66.820312 58.03125 63.601562 55.253906 61.355469 C 51.351562 58.207031 45.371094 55.203125 40.441406 53.910156 C 33.539062 52.105469 23.335938 51.179688 18.183594 51.890625 C 15.753906 52.226562 13.683594 52.972656 12.460938 53.953125 C 11.199219 54.964844 10.222656 56.472656 9.914062 57.882812 C 9.273438 60.804688 10.722656 63.742188 14.410156 67.007812 C 16.816406 69.136719 19.558594 70.765625 23.863281 72.628906 C 28.898438 74.804688 31.5 75.652344 35.335938 76.378906 C 36.511719 76.601562 37.851562 76.890625 38.3125 77.027344 C 38.773438 77.160156 40.320312 77.402344 41.753906 77.5625 C 44.320312 77.855469 44.988281 78.0625 43.894531 78.230469 C 43.585938 78.28125 42.898438 78.429688 42.363281 78.5625 C 41.828125 78.699219 41.199219 78.859375 40.96875 78.917969 C 40.734375 78.976562 40.492188 79 40.425781 78.96875 C 40.363281 78.9375 39.695312 79 38.9375 79.109375 C 37.152344 79.355469 32.796875 79.394531 30.210938 79.175781 C 25.058594 78.75 21.886719 78.019531 17.316406 76.21875 C 13.457031 74.695312 12.75 74.589844 10.832031 75.246094 C 9.917969 75.558594 9.183594 75.945312 8.96875 76.226562 C 8.472656 76.875 8.28125 78.796875 8.660156 79.28125 C 8.824219 79.488281 9.0625 79.894531 9.191406 80.1875 C 9.320312 80.476562 9.625 80.875 9.871094 81.074219 C 11.476562 82.355469 12.59375 83.097656 13.238281 83.3125 C 13.648438 83.449219 14.578125 83.820312 15.300781 84.140625 Z M 73.390625 70.296875 C 73.523438 70.3125 73.570312 70.449219 73.5 70.597656 C 73.429688 70.75 73.25 70.816406 73.097656 70.746094 C 72.792969 70.601562 73.019531 70.25 73.394531 70.292969 Z M 73.800781 70.863281 C 73.847656 70.769531 73.960938 70.726562 74.058594 70.769531 C 74.152344 70.816406 74.195312 70.933594 74.152344 71.027344 C 74.105469 71.121094 73.992188 71.164062 73.894531 71.121094 C 73.800781 71.074219 73.757812 70.960938 73.800781 70.863281 Z M 70.453125 70.78125 C 70.5 70.683594 70.613281 70.644531 70.710938 70.6875 C 70.804688 70.734375 70.847656 70.847656 70.800781 70.945312 C 70.757812 71.039062 70.640625 71.082031 70.546875 71.035156 C 70.449219 70.992188 70.410156 70.875 70.453125 70.78125 Z M 69.742188 71.398438 C 69.808594 71.257812 69.941406 71.175781 70.039062 71.222656 C 70.132812 71.265625 70.15625 71.417969 70.089844 71.5625 C 70.023438 71.707031 69.890625 71.785156 69.796875 71.742188 C 69.699219 71.695312 69.675781 71.542969 69.742188 71.398438 Z M 57.097656 74.90625 C 57.054688 75.003906 56.9375 75.042969 56.839844 75 C 56.746094 74.957031 56.703125 74.839844 56.75 74.746094 C 56.792969 74.648438 56.910156 74.605469 57.003906 74.652344 C 57.101562 74.695312 57.140625 74.8125 57.097656 74.90625 Z M 67.070312 75.757812 C 67.027344 75.855469 66.910156 75.898438 66.816406 75.851562 C 66.71875 75.808594 66.675781 75.691406 66.722656 75.597656 C 66.765625 75.5 66.882812 75.457031 66.976562 75.503906 C 67.074219 75.546875 67.117188 75.664062 67.070312 75.757812 Z M 21.4375 62.21875 C 19.523438 60.738281 19.039062 60.277344 19.199219 60.109375 C 19.285156 60.015625 19.941406 59.902344 20.65625 59.847656 C 25.082031 59.535156 33.546875 60.488281 38.839844 61.894531 C 41.027344 62.480469 47.355469 65.503906 49.042969 66.777344 C 50.488281 67.863281 52.21875 69.75 52.1875 70.203125 C 52.164062 70.527344 51.777344 70.527344 48.082031 70.199219 C 42.472656 69.703125 37.34375 68.753906 32.304688 67.277344 C 29.433594 66.433594 23.042969 63.460938 21.441406 62.21875 Z M 44.25 79.984375 C 44.058594 79.789062 44.070312 79.730469 44.3125 79.699219 C 44.476562 79.675781 44.671875 79.6875 44.746094 79.71875 C 44.816406 79.75 44.824219 79.894531 44.753906 80.039062 C 44.617188 80.332031 44.582031 80.328125 44.25 79.984375 Z M 44.25 79.984375 " fill-opacity="1" fill-rule="nonzero"/></g></g></g></g></g></g></g></svg>